<mxfile host="app.diagrams.net" modified="2023-02-01T04:12:32.248Z" agent="5.0 (Macintosh; Intel Mac OS X 10_15_7) AppleWebKit/605.1.15 (KHTML, like Gecko) Version/16.3 Safari/605.1.15" etag="MtLamoytg6nTtj5XqcOz" version="20.8.14" type="github">
  <diagram name="Page-1" id="N3B9et3qFpsSfHETlygY">
    <mxGraphModel dx="1196" dy="831" grid="1" gridSize="10" guides="1" tooltips="1" connect="1" arrows="1" fold="1" page="1" pageScale="1" pageWidth="827" pageHeight="1169" math="0" shadow="0">
      <root>
        <mxCell id="0" />
        <mxCell id="1" parent="0" />
        <mxCell id="-YayVQwCSqtVJ1XMJFyR-1" value="Copyright and open access" style="text;html=1;strokeColor=#CBCCCB;fillColor=default;align=center;verticalAlign=middle;whiteSpace=wrap;rounded=0;fontFamily=London Tube;fontSize=12;fontStyle=0;spacingLeft=4;fontColor=#22387D;labelBackgroundColor=none;labelBorderColor=none;glass=0;spacingBottom=0;strokeWidth=1;" vertex="1" parent="1">
          <mxGeometry x="990" y="469.5" width="113" height="42" as="geometry" />
        </mxCell>
        <mxCell id="-YayVQwCSqtVJ1XMJFyR-2" value="&lt;span style=&quot;text-align: left;&quot;&gt;Cleaning messy data with OpenRefine&lt;/span&gt;" style="text;html=1;strokeColor=#CBCCCB;fillColor=default;align=center;verticalAlign=middle;whiteSpace=wrap;rounded=0;fontFamily=London Tube;fontSize=12;fontStyle=0;spacingLeft=4;labelBackgroundColor=none;labelBorderColor=none;fontColor=#22387D;glass=0;spacingBottom=0;strokeWidth=1;" vertex="1" parent="1">
          <mxGeometry x="697" y="812" width="130" height="50" as="geometry" />
        </mxCell>
        <mxCell id="-YayVQwCSqtVJ1XMJFyR-3" value="" style="endArrow=none;html=1;rounded=1;strokeColor=#00A79F;strokeWidth=3;shape=link;endSize=5;" edge="1" parent="1">
          <mxGeometry width="50" height="50" relative="1" as="geometry">
            <mxPoint x="237.5" y="959" as="sourcePoint" />
            <mxPoint x="837.5" y="959" as="targetPoint" />
            <Array as="points" />
          </mxGeometry>
        </mxCell>
        <mxCell id="-YayVQwCSqtVJ1XMJFyR-4" value="Managing your research data" style="text;html=1;strokeColor=#CBCCCB;fillColor=default;align=center;verticalAlign=middle;whiteSpace=wrap;rounded=0;fontFamily=London Tube;fontSize=12;fontStyle=0;spacingLeft=4;fontColor=#22387D;labelBackgroundColor=none;labelBorderColor=none;glass=0;spacingBottom=0;strokeWidth=1;" vertex="1" parent="1">
          <mxGeometry x="561.5" y="820" width="120" height="42" as="geometry" />
        </mxCell>
        <mxCell id="-YayVQwCSqtVJ1XMJFyR-5" value="Endnote Q&amp;amp;A" style="text;html=1;strokeColor=#CBCCCB;fillColor=default;align=center;verticalAlign=middle;whiteSpace=wrap;rounded=0;fontFamily=London Tube;fontSize=12;fontStyle=0;spacingLeft=4;fontColor=#22387D;labelBackgroundColor=none;labelBorderColor=none;spacing=2;glass=0;spacingBottom=0;strokeWidth=1;" vertex="1" parent="1">
          <mxGeometry x="130" y="145" width="99" height="31" as="geometry" />
        </mxCell>
        <mxCell id="-YayVQwCSqtVJ1XMJFyR-6" value="Intro to R thinking" style="text;html=1;strokeColor=#CBCCCB;fillColor=default;align=center;verticalAlign=middle;whiteSpace=wrap;rounded=0;fontFamily=London Tube;fontSize=12;fontStyle=0;spacingLeft=4;fontColor=#22387D;labelBackgroundColor=none;labelBorderColor=none;glass=0;spacingBottom=0;strokeWidth=1;" vertex="1" parent="1">
          <mxGeometry x="837.5" y="287.5" width="90" height="42" as="geometry" />
        </mxCell>
        <mxCell id="-YayVQwCSqtVJ1XMJFyR-7" value="" style="endArrow=none;html=1;rounded=1;strokeColor=#830750;strokeWidth=6;arcSize=40;" edge="1" parent="1">
          <mxGeometry width="50" height="50" relative="1" as="geometry">
            <mxPoint x="240" y="869" as="sourcePoint" />
            <mxPoint x="840" y="869" as="targetPoint" />
            <Array as="points" />
          </mxGeometry>
        </mxCell>
        <mxCell id="-YayVQwCSqtVJ1XMJFyR-8" value="" style="endArrow=none;html=1;rounded=1;strokeColor=#FBCE20;strokeWidth=6;arcSize=80;" edge="1" parent="1">
          <mxGeometry width="50" height="50" relative="1" as="geometry">
            <mxPoint x="240" y="519" as="sourcePoint" />
            <mxPoint x="1440" y="520" as="targetPoint" />
            <Array as="points" />
          </mxGeometry>
        </mxCell>
        <mxCell id="-YayVQwCSqtVJ1XMJFyR-9" value="" style="endArrow=none;html=1;strokeWidth=6;rounded=1;arcSize=40;strokeColor=#E77D96;" edge="1" parent="1">
          <mxGeometry width="50" height="50" relative="1" as="geometry">
            <mxPoint x="840" y="200" as="sourcePoint" />
            <mxPoint x="240" y="200" as="targetPoint" />
            <Array as="points" />
          </mxGeometry>
        </mxCell>
        <mxCell id="-YayVQwCSqtVJ1XMJFyR-10" value="" style="endArrow=none;html=1;rounded=1;strokeColor=#E77D96;strokeWidth=6;" edge="1" parent="1">
          <mxGeometry width="50" height="50" relative="1" as="geometry">
            <mxPoint x="1508.5" y="169.57999999999993" as="sourcePoint" />
            <mxPoint x="1608.5" y="169.57999999999993" as="targetPoint" />
          </mxGeometry>
        </mxCell>
        <mxCell id="-YayVQwCSqtVJ1XMJFyR-11" value="Literature Review Line" style="text;html=1;strokeColor=none;fillColor=none;align=left;verticalAlign=middle;whiteSpace=wrap;rounded=0;fontFamily=London Tube;fontSize=18;fontStyle=0;fontColor=#22387D;" vertex="1" parent="1">
          <mxGeometry x="40" y="185" width="279" height="30" as="geometry" />
        </mxCell>
        <mxCell id="-YayVQwCSqtVJ1XMJFyR-12" value="" style="endArrow=none;html=1;strokeWidth=6;strokeColor=#DA322A;startArrow=none;rounded=1;arcSize=40;" edge="1" parent="1">
          <mxGeometry width="50" height="50" relative="1" as="geometry">
            <mxPoint x="240" y="769" as="sourcePoint" />
            <mxPoint x="840" y="769" as="targetPoint" />
            <Array as="points" />
          </mxGeometry>
        </mxCell>
        <mxCell id="-YayVQwCSqtVJ1XMJFyR-13" value="Organisation and evaluation of sources" style="text;html=1;strokeColor=none;fillColor=none;align=right;verticalAlign=top;whiteSpace=wrap;rounded=0;fontFamily=London Tube;fontSize=12;fontStyle=0;spacingLeft=4;fontColor=#22387D;" vertex="1" parent="1">
          <mxGeometry x="355" y="160" width="129.25" height="31" as="geometry" />
        </mxCell>
        <mxCell id="-YayVQwCSqtVJ1XMJFyR-14" value="Social media scraping" style="text;html=1;strokeColor=none;fillColor=none;align=center;verticalAlign=top;whiteSpace=wrap;rounded=0;fontFamily=London Tube;fontSize=12;fontStyle=0;spacingLeft=4;fontColor=#22387D;" vertex="1" parent="1">
          <mxGeometry x="240" y="720" width="80" height="40" as="geometry" />
        </mxCell>
        <mxCell id="-YayVQwCSqtVJ1XMJFyR-15" value="West Leximancer" style="text;html=1;strokeColor=none;fillColor=none;align=center;verticalAlign=top;whiteSpace=wrap;rounded=0;fontFamily=London Tube;fontSize=12;fontStyle=0;spacingLeft=4;fontColor=#22387D;" vertex="1" parent="1">
          <mxGeometry x="334.25" y="734.5" width="120" height="30" as="geometry" />
        </mxCell>
        <mxCell id="-YayVQwCSqtVJ1XMJFyR-16" value="NVIVO East" style="text;html=1;strokeColor=none;fillColor=none;align=center;verticalAlign=top;whiteSpace=wrap;rounded=0;fontFamily=London Tube;fontSize=12;fontStyle=0;spacingLeft=4;fontColor=#22387D;" vertex="1" parent="1">
          <mxGeometry x="445.75" y="735" width="90" height="25" as="geometry" />
        </mxCell>
        <mxCell id="-YayVQwCSqtVJ1XMJFyR-17" value="" style="endArrow=none;html=1;rounded=1;strokeColor=#DA322A;strokeWidth=6;" edge="1" parent="1">
          <mxGeometry width="50" height="50" relative="1" as="geometry">
            <mxPoint x="1508.5" y="209.57999999999993" as="sourcePoint" />
            <mxPoint x="1608.5" y="209.57999999999993" as="targetPoint" />
          </mxGeometry>
        </mxCell>
        <mxCell id="-YayVQwCSqtVJ1XMJFyR-18" value="Digital Humanities Line" style="text;html=1;strokeColor=none;fillColor=none;align=left;verticalAlign=middle;whiteSpace=wrap;rounded=0;fontFamily=London Tube;fontSize=18;fontStyle=0;fontColor=#22387D;" vertex="1" parent="1">
          <mxGeometry x="40" y="755" width="210" height="30" as="geometry" />
        </mxCell>
        <mxCell id="-YayVQwCSqtVJ1XMJFyR-19" value="" style="endArrow=none;html=1;rounded=1;strokeColor=#22387D;strokeWidth=6;" edge="1" parent="1">
          <mxGeometry width="50" height="50" relative="1" as="geometry">
            <mxPoint x="1508.5" y="249.57999999999993" as="sourcePoint" />
            <mxPoint x="1608.5" y="249.57999999999993" as="targetPoint" />
          </mxGeometry>
        </mxCell>
        <mxCell id="-YayVQwCSqtVJ1XMJFyR-20" value="Line of Code" style="text;html=1;strokeColor=none;fillColor=none;align=left;verticalAlign=middle;whiteSpace=wrap;rounded=0;fontFamily=London Tube;fontSize=18;fontStyle=0;fontColor=#22387D;" vertex="1" parent="1">
          <mxGeometry x="43" y="320.5" width="210" height="30" as="geometry" />
        </mxCell>
        <mxCell id="-YayVQwCSqtVJ1XMJFyR-21" value="" style="endArrow=none;html=1;rounded=1;strokeColor=#FBCE20;strokeWidth=6;" edge="1" parent="1">
          <mxGeometry width="50" height="50" relative="1" as="geometry">
            <mxPoint x="1508.5" y="289.5799999999999" as="sourcePoint" />
            <mxPoint x="1608.5" y="289.5799999999999" as="targetPoint" />
          </mxGeometry>
        </mxCell>
        <mxCell id="-YayVQwCSqtVJ1XMJFyR-22" value="Write &amp;amp; Publish Loop" style="text;html=1;strokeColor=none;fillColor=none;align=left;verticalAlign=middle;whiteSpace=wrap;rounded=0;fontFamily=London Tube;fontSize=18;fontStyle=0;fontColor=#22387D;" vertex="1" parent="1">
          <mxGeometry x="40" y="503" width="210" height="30" as="geometry" />
        </mxCell>
        <mxCell id="-YayVQwCSqtVJ1XMJFyR-23" value="Digital texts &amp;amp; tools for HASS" style="text;html=1;strokeColor=#CBCCCB;fillColor=default;align=center;verticalAlign=middle;whiteSpace=wrap;rounded=0;fontFamily=London Tube;fontSize=12;fontStyle=0;spacingLeft=4;labelBackgroundColor=none;labelBorderColor=none;fontColor=#22387D;glass=0;spacingBottom=0;strokeWidth=1;" vertex="1" parent="1">
          <mxGeometry x="740" y="710" width="110" height="50" as="geometry" />
        </mxCell>
        <mxCell id="-YayVQwCSqtVJ1XMJFyR-24" value="Webscraping" style="text;html=1;strokeColor=none;fillColor=none;align=center;verticalAlign=top;whiteSpace=wrap;rounded=0;fontFamily=London Tube;fontSize=12;fontStyle=0;spacingLeft=4;fontColor=#22387D;" vertex="1" parent="1">
          <mxGeometry x="535.75" y="740" width="120" height="30" as="geometry" />
        </mxCell>
        <mxCell id="-YayVQwCSqtVJ1XMJFyR-25" value="Navigating the publication maze" style="text;html=1;strokeColor=none;fillColor=none;align=right;verticalAlign=top;whiteSpace=wrap;rounded=0;fontFamily=London Tube;fontSize=12;fontStyle=0;spacingLeft=4;fontColor=#22387D;" vertex="1" parent="1">
          <mxGeometry x="1148.5" y="473" width="120" height="40" as="geometry" />
        </mxCell>
        <mxCell id="-YayVQwCSqtVJ1XMJFyR-26" value="" style="endArrow=none;html=1;rounded=1;strokeColor=#FBCE20;strokeWidth=6;" edge="1" parent="1">
          <mxGeometry width="50" height="50" relative="1" as="geometry">
            <mxPoint x="630" y="778" as="sourcePoint" />
            <mxPoint x="640" y="788" as="targetPoint" />
          </mxGeometry>
        </mxCell>
        <mxCell id="-YayVQwCSqtVJ1XMJFyR-27" value="Publishing during your PhD" style="text;html=1;strokeColor=none;fillColor=none;align=left;verticalAlign=top;whiteSpace=wrap;rounded=0;fontFamily=London Tube;fontSize=12;fontStyle=0;spacingLeft=4;fontColor=#22387D;" vertex="1" parent="1">
          <mxGeometry x="837.5" y="476.5" width="100" height="30" as="geometry" />
        </mxCell>
        <mxCell id="-YayVQwCSqtVJ1XMJFyR-28" value="Conveying your argument" style="text;html=1;strokeColor=none;fillColor=none;align=center;verticalAlign=top;whiteSpace=wrap;rounded=0;fontFamily=London Tube;fontSize=12;fontStyle=0;spacingLeft=4;fontColor=#22387D;" vertex="1" parent="1">
          <mxGeometry x="245.75" y="477.5" width="88.5" height="30" as="geometry" />
        </mxCell>
        <mxCell id="-YayVQwCSqtVJ1XMJFyR-29" value="" style="ellipse;whiteSpace=wrap;html=1;strokeWidth=4;direction=south;" vertex="1" parent="1">
          <mxGeometry x="1470" y="895" width="20" height="20" as="geometry" />
        </mxCell>
        <mxCell id="-YayVQwCSqtVJ1XMJFyR-30" value="" style="ellipse;whiteSpace=wrap;html=1;strokeWidth=4;" vertex="1" parent="1">
          <mxGeometry x="1508.5" y="854" width="20" height="20" as="geometry" />
        </mxCell>
        <mxCell id="-YayVQwCSqtVJ1XMJFyR-31" value="" style="endArrow=none;html=1;rounded=1;strokeColor=#000000;strokeWidth=6;dashed=1;exitX=0;exitY=0;exitDx=0;exitDy=0;entryX=0;entryY=1;entryDx=0;entryDy=0;dashPattern=1 1;" edge="1" parent="1" source="-YayVQwCSqtVJ1XMJFyR-29">
          <mxGeometry width="50" height="50" relative="1" as="geometry">
            <mxPoint x="1496.5710678118655" y="898.9289321881347" as="sourcePoint" />
            <mxPoint x="1511.4289321881347" y="872.0710678118653" as="targetPoint" />
          </mxGeometry>
        </mxCell>
        <mxCell id="-YayVQwCSqtVJ1XMJFyR-32" value="Advanced Endnote for SQLR" style="text;html=1;strokeColor=none;fillColor=none;align=center;verticalAlign=top;whiteSpace=wrap;rounded=0;fontFamily=London Tube;fontSize=12;fontStyle=0;spacingLeft=4;fontColor=#22387D;" vertex="1" parent="1">
          <mxGeometry x="497.5" y="240" width="110" height="25" as="geometry" />
        </mxCell>
        <mxCell id="-YayVQwCSqtVJ1XMJFyR-33" value="Building a robust search strategy" style="text;html=1;strokeColor=none;fillColor=none;align=center;verticalAlign=top;whiteSpace=wrap;rounded=0;fontFamily=London Tube;fontSize=12;fontStyle=0;spacingLeft=4;fontColor=#22387D;" vertex="1" parent="1">
          <mxGeometry x="300" y="130" width="120" height="40" as="geometry" />
        </mxCell>
        <mxCell id="-YayVQwCSqtVJ1XMJFyR-34" value="GALE Digital Scholar Lab" style="text;html=1;strokeColor=none;fillColor=none;align=center;verticalAlign=top;whiteSpace=wrap;rounded=0;fontFamily=London Tube;fontSize=12;fontStyle=0;spacingLeft=4;fontColor=#22387D;" vertex="1" parent="1">
          <mxGeometry x="644" y="725" width="80" height="40" as="geometry" />
        </mxCell>
        <mxCell id="-YayVQwCSqtVJ1XMJFyR-35" value="" style="endArrow=none;html=1;rounded=1;strokeColor=#E6782F;strokeWidth=3;shape=link;" edge="1" parent="1">
          <mxGeometry width="50" height="50" relative="1" as="geometry">
            <mxPoint x="1508.5" y="329.58000000000015" as="sourcePoint" />
            <mxPoint x="1608.5" y="329.58000000000015" as="targetPoint" />
          </mxGeometry>
        </mxCell>
        <mxCell id="-YayVQwCSqtVJ1XMJFyR-36" value="Research Data Line" style="text;html=1;strokeColor=none;fillColor=none;align=left;verticalAlign=middle;whiteSpace=wrap;rounded=0;fontFamily=London Tube;fontSize=18;fontStyle=0;fontColor=#22387D;" vertex="1" parent="1">
          <mxGeometry x="40" y="850" width="240" height="30" as="geometry" />
        </mxCell>
        <mxCell id="-YayVQwCSqtVJ1XMJFyR-37" value="Intro to Linux" style="text;html=1;strokeColor=none;fillColor=none;align=center;verticalAlign=top;whiteSpace=wrap;rounded=0;fontFamily=London Tube;fontSize=12;fontStyle=0;spacingLeft=4;fontColor=#22387D;" vertex="1" parent="1">
          <mxGeometry x="562.25" y="407.5" width="85" height="25" as="geometry" />
        </mxCell>
        <mxCell id="-YayVQwCSqtVJ1XMJFyR-38" value="Intro to Git" style="text;html=1;strokeColor=none;fillColor=none;align=center;verticalAlign=top;whiteSpace=wrap;rounded=0;fontFamily=London Tube;fontSize=12;fontStyle=0;spacingLeft=4;fontColor=#22387D;" vertex="1" parent="1">
          <mxGeometry x="335" y="302.5" width="85" height="25" as="geometry" />
        </mxCell>
        <mxCell id="-YayVQwCSqtVJ1XMJFyR-39" value="Intro to Python" style="text;html=1;strokeColor=none;fillColor=none;align=center;verticalAlign=top;whiteSpace=wrap;rounded=0;fontFamily=London Tube;fontSize=12;fontStyle=0;spacingLeft=4;fontColor=#22387D;" vertex="1" parent="1">
          <mxGeometry x="1103" y="302.5" width="94" height="24" as="geometry" />
        </mxCell>
        <mxCell id="-YayVQwCSqtVJ1XMJFyR-40" value="Intro to Docker &amp;amp; Singularity" style="text;html=1;strokeColor=none;fillColor=none;align=center;verticalAlign=top;whiteSpace=wrap;rounded=0;fontFamily=London Tube;fontSize=12;fontStyle=0;spacingLeft=4;fontColor=#22387D;" vertex="1" parent="1">
          <mxGeometry x="352.25" y="400" width="91" height="40" as="geometry" />
        </mxCell>
        <mxCell id="-YayVQwCSqtVJ1XMJFyR-41" value="High performance&lt;br&gt;computing" style="text;html=1;strokeColor=none;fillColor=none;align=center;verticalAlign=top;whiteSpace=wrap;rounded=0;fontFamily=London Tube;fontSize=12;fontStyle=0;spacingLeft=4;fontColor=#22387D;" vertex="1" parent="1">
          <mxGeometry x="436.5" y="400" width="127.5" height="40" as="geometry" />
        </mxCell>
        <mxCell id="-YayVQwCSqtVJ1XMJFyR-42" value="Machine learning" style="text;html=1;strokeColor=none;fillColor=none;align=center;verticalAlign=top;whiteSpace=wrap;rounded=0;fontFamily=London Tube;fontSize=12;fontStyle=0;spacingLeft=4;fontColor=#22387D;" vertex="1" parent="1">
          <mxGeometry x="243" y="410" width="100" height="30" as="geometry" />
        </mxCell>
        <mxCell id="-YayVQwCSqtVJ1XMJFyR-43" value="Coding club" style="text;html=1;strokeColor=none;fillColor=none;align=right;verticalAlign=top;whiteSpace=wrap;rounded=0;fontFamily=London Tube;fontSize=12;fontStyle=0;spacingLeft=4;fontColor=#22387D;" vertex="1" parent="1">
          <mxGeometry x="1339.21" y="299.5" width="100" height="30" as="geometry" />
        </mxCell>
        <mxCell id="-YayVQwCSqtVJ1XMJFyR-44" value="Literature search strategies" style="text;html=1;strokeColor=none;fillColor=none;align=left;verticalAlign=top;whiteSpace=wrap;rounded=0;fontFamily=London Tube;fontSize=12;fontStyle=0;spacingLeft=4;fontColor=#22387D;" vertex="1" parent="1">
          <mxGeometry x="240" y="160" width="110" height="30" as="geometry" />
        </mxCell>
        <mxCell id="-YayVQwCSqtVJ1XMJFyR-45" value="" style="ellipse;whiteSpace=wrap;html=1;strokeWidth=4;" vertex="1" parent="1">
          <mxGeometry x="1143" y="1086" width="20" height="20" as="geometry" />
        </mxCell>
        <mxCell id="-YayVQwCSqtVJ1XMJFyR-46" value="" style="ellipse;whiteSpace=wrap;html=1;strokeWidth=4;" vertex="1" parent="1">
          <mxGeometry x="1223" y="1006" width="20" height="20" as="geometry" />
        </mxCell>
        <mxCell id="-YayVQwCSqtVJ1XMJFyR-47" value="Managing your research literature" style="text;html=1;strokeColor=#CBCCCB;fillColor=default;align=center;verticalAlign=middle;whiteSpace=wrap;rounded=0;fontFamily=London Tube;fontSize=12;fontStyle=0;spacingLeft=4;fontColor=#22387D;labelBackgroundColor=none;labelBorderColor=none;glass=0;spacingBottom=0;strokeWidth=1;" vertex="1" parent="1">
          <mxGeometry x="420" y="115" width="120" height="42" as="geometry" />
        </mxCell>
        <mxCell id="-YayVQwCSqtVJ1XMJFyR-48" value="" style="endArrow=none;html=1;rounded=1;strokeColor=#000000;strokeWidth=6;dashed=1;exitX=1;exitY=0;exitDx=0;exitDy=0;entryX=0;entryY=1;entryDx=0;entryDy=0;dashPattern=1 1;" edge="1" parent="1" source="-YayVQwCSqtVJ1XMJFyR-45" target="-YayVQwCSqtVJ1XMJFyR-46">
          <mxGeometry width="50" height="50" relative="1" as="geometry">
            <mxPoint x="1200.0010678118656" y="1055.9989321881344" as="sourcePoint" />
            <mxPoint x="1214.8589321881345" y="1039.1410678118652" as="targetPoint" />
          </mxGeometry>
        </mxCell>
        <mxCell id="-YayVQwCSqtVJ1XMJFyR-49" value="" style="endArrow=none;html=1;rounded=1;strokeColor=#007A3D;strokeWidth=6;" edge="1" parent="1">
          <mxGeometry width="50" height="50" relative="1" as="geometry">
            <mxPoint x="1508.5" y="369.5799999999999" as="sourcePoint" />
            <mxPoint x="1608.5000000000005" y="369.5799999999999" as="targetPoint" />
          </mxGeometry>
        </mxCell>
        <mxCell id="-YayVQwCSqtVJ1XMJFyR-50" value="Survey Line" style="text;html=1;strokeColor=none;fillColor=none;align=left;verticalAlign=middle;whiteSpace=wrap;rounded=0;fontFamily=London Tube;fontSize=18;fontStyle=0;fontColor=#22387D;" vertex="1" parent="1">
          <mxGeometry x="43" y="586" width="140" height="30" as="geometry" />
        </mxCell>
        <mxCell id="-YayVQwCSqtVJ1XMJFyR-51" value="Tips &amp;amp; tools for getting from start to finish" style="text;html=1;strokeColor=none;fillColor=none;align=left;verticalAlign=top;whiteSpace=wrap;rounded=0;fontFamily=London Tube;fontSize=12;fontStyle=0;spacingLeft=4;fontColor=#22387D;" vertex="1" parent="1">
          <mxGeometry x="617.5" y="473" width="140" height="25" as="geometry" />
        </mxCell>
        <mxCell id="-YayVQwCSqtVJ1XMJFyR-52" value="Improving the tone and style of your academic writing" style="text;html=1;strokeColor=none;fillColor=none;align=center;verticalAlign=top;whiteSpace=wrap;rounded=0;fontFamily=London Tube;fontSize=12;fontStyle=0;spacingLeft=4;fontColor=#22387D;labelBackgroundColor=none;labelBorderColor=none;glass=0;spacingBottom=0;strokeWidth=1;" vertex="1" parent="1">
          <mxGeometry x="390" y="470.5" width="170" height="40" as="geometry" />
        </mxCell>
        <mxCell id="-YayVQwCSqtVJ1XMJFyR-53" value="" style="ellipse;whiteSpace=wrap;html=1;strokeWidth=4;" vertex="1" parent="1">
          <mxGeometry x="1430" y="870" width="20" height="20" as="geometry" />
        </mxCell>
        <mxCell id="-YayVQwCSqtVJ1XMJFyR-54" value="External research datasets" style="text;html=1;strokeColor=none;fillColor=none;align=left;verticalAlign=top;whiteSpace=wrap;rounded=0;fontFamily=London Tube;fontSize=12;fontStyle=0;spacingLeft=4;fontColor=#22387D;" vertex="1" parent="1">
          <mxGeometry x="445.75" y="830" width="120" height="30" as="geometry" />
        </mxCell>
        <mxCell id="-YayVQwCSqtVJ1XMJFyR-55" value="Working with sensitive data" style="text;html=1;strokeColor=none;fillColor=none;align=center;verticalAlign=top;whiteSpace=wrap;rounded=0;fontFamily=London Tube;fontSize=12;fontStyle=0;spacingLeft=4;fontColor=#22387D;" vertex="1" parent="1">
          <mxGeometry x="240" y="830" width="90" height="30" as="geometry" />
        </mxCell>
        <mxCell id="-YayVQwCSqtVJ1XMJFyR-56" value="" style="rounded=0;whiteSpace=wrap;html=1;glass=0;labelBackgroundColor=none;labelBorderColor=none;fontSize=12;fontColor=#22387D;strokeColor=none;strokeWidth=1;fillColor=#22387D;" vertex="1" parent="1">
          <mxGeometry x="4" width="1650" height="100" as="geometry" />
        </mxCell>
        <mxCell id="-YayVQwCSqtVJ1XMJFyR-57" value="&lt;font style=&quot;font-size: 48px; line-height: 1;&quot;&gt;Research train&lt;/font&gt;" style="text;html=1;strokeColor=none;fillColor=none;align=left;verticalAlign=top;whiteSpace=wrap;rounded=0;fontFamily=London Tube;fontSize=64;fontStyle=0;spacingLeft=4;fontColor=#FFFFFF;spacing=0;" vertex="1" parent="1">
          <mxGeometry x="80" width="410" height="70" as="geometry" />
        </mxCell>
        <mxCell id="-YayVQwCSqtVJ1XMJFyR-58" value="&lt;b style=&quot;font-size: 22px;&quot;&gt;Key to lines&lt;/b&gt;" style="text;html=1;strokeColor=none;fillColor=none;align=left;verticalAlign=middle;whiteSpace=wrap;rounded=0;fontFamily=London Tube;fontSize=22;fontStyle=0;fontColor=#22387D;" vertex="1" parent="1">
          <mxGeometry x="1508.5" y="115.58" width="140" height="30" as="geometry" />
        </mxCell>
        <mxCell id="-YayVQwCSqtVJ1XMJFyR-59" value="&lt;font style=&quot;font-size: 48px; line-height: 1;&quot;&gt;ℹ&lt;/font&gt;" style="text;html=1;strokeColor=#CBCCCB;fillColor=default;align=center;verticalAlign=middle;whiteSpace=wrap;rounded=1;fontFamily=London Tube;fontSize=12;fontStyle=0;spacingLeft=0;fontColor=#22387D;spacing=0;labelBackgroundColor=none;labelBorderColor=none;glass=0;spacingBottom=0;strokeWidth=1;arcSize=30;spacingTop=-5;" vertex="1" parent="1">
          <mxGeometry x="1120" y="22.5" width="50" height="50" as="geometry" />
        </mxCell>
        <mxCell id="-YayVQwCSqtVJ1XMJFyR-60" value="Book a workshop" style="text;html=1;strokeColor=none;fillColor=none;align=left;verticalAlign=middle;whiteSpace=wrap;rounded=0;fontFamily=London Tube;fontSize=24;fontStyle=0;fontColor=#FFFFFF;" vertex="1" parent="1">
          <mxGeometry x="1180" y="22.5" width="240" height="30" as="geometry" />
        </mxCell>
        <mxCell id="-YayVQwCSqtVJ1XMJFyR-61" value="&lt;font style=&quot;font-size: 16px;&quot;&gt;www.griffith.edu.au/research/research-services&lt;/font&gt;" style="text;html=1;strokeColor=none;fillColor=none;align=left;verticalAlign=middle;whiteSpace=wrap;rounded=0;fontFamily=London Tube;fontSize=20;fontStyle=0;fontColor=#FFFFFF;" vertex="1" parent="1">
          <mxGeometry x="1180" y="47.5" width="370" height="30" as="geometry" />
        </mxCell>
        <mxCell id="-YayVQwCSqtVJ1XMJFyR-62" value="" style="shape=image;verticalLabelPosition=bottom;labelBackgroundColor=default;verticalAlign=top;aspect=fixed;imageAspect=0;image=data:image/svg+xml,PHN2ZyB4bWxuczp4bGluaz0iaHR0cDovL3d3dy53My5vcmcvMTk5OS94bGluayIgeG1sbnM9Imh0dHA6Ly93d3cudzMub3JnLzIwMDAvc3ZnIiB4bWw6c3BhY2U9InByZXNlcnZlIiBzdHlsZT0iZW5hYmxlLWJhY2tncm91bmQ6bmV3IDAgMCA1OTUuMyA4NDEuOTsiIHZpZXdCb3g9IjAgMCA1OTUuMyA4NDEuOSIgeT0iMHB4IiB4PSIwcHgiIGlkPSJMYXllcl8xIiB2ZXJzaW9uPSIxLjEiPiYjeGE7PHN0eWxlIHR5cGU9InRleHQvY3NzIj4mI3hhOwkuc3Qwe2ZpbGw6I0RDMEMxNTt9JiN4YTsJLnN0MXtmaWxsOiMyNjIzMUU7fSYjeGE7PC9zdHlsZT4mI3hhOzxzd2l0Y2g+JiN4YTsJJiN4YTsJPGc+JiN4YTsJCTxnPiYjeGE7CQkJPHBhdGggZD0iTTM3Ni4xLDM3Ny4xYzAsNi4yLDUuOSwxMS4zLDEzLjIsMTEuM2M3LjIsMCwxMy4xLTUuMSwxMy4xLTExLjNjMC02LjItNS45LTExLjMtMTMuMS0xMS4zJiMxMDsmIzk7JiM5OyYjOTsmIzk7QzM4MiwzNjUuOCwzNzYuMSwzNzAuOSwzNzYuMSwzNzcuMXoiIGNsYXNzPSJzdDAiLz4mI3hhOwkJCTxwYXRoIGQ9Ik0zMjAuOCwzNzZjLTIuMi0wLjItNC44LTAuNC01LjktMC40Yy0xMS40LDAtMTQsMy4zLTE0LDEwLjV2MTAuM2gyMS45aDMuN3YtNC45YzAtOS45LDEuMS0xNy42LDkuOS0yMi44JiMxMDsmIzk7JiM5OyYjOTsmIzk7YzguMS00LjgsMjAuNS01LjUsMjkuNi01LjVjMi4xLDAsNS4zLDAuMSw4LjUsMC40Yy0zLDIuNS01LjksNy4yLTYuMSwxMi42Yy0yLTAuMy00LjMtMC41LTUuNC0wLjVjLTEwLjksMC0xMi4xLDQuNS0xMi4xLDEwLjUmIzEwOyYjOTsmIzk7JiM5OyYjOTt2MTAuM2g1MC4ydjY1LjJsLTI0LjUsMHYtNTIuMkgzNTF2NTIuMmgtMjQuNXYtNTIuMWgtMy43aC0yMS45djUyLjF2MGgtMjQuNnYtNTIuMWgtOS41bDAtMTMuMmg5LjV2LTQuOSYjMTA7JiM5OyYjOTsmIzk7JiM5O2MwLTkuOSwxLjItMTcuNiw5LjktMjIuOGM4LjEtNC44LDIzLjEtNS44LDM0LjctNS44YzMuOCwwLDYuOSwwLjEsOS43LDAuM0MzMjUuNiwzNjYuNiwzMjIuNCwzNzEuMSwzMjAuOCwzNzZ6IiBjbGFzcz0ic3QwIi8+JiN4YTsJCQk8cGF0aCBkPSJNMjE5LjcsMzk0LjVjLTkuMSwwLTEzLjIsOC4zLTE1LjMsMTUuN3YtMTMuOGgtMjQuNXY2NS4yaDI0LjV2LTMxLjRjMC0xMCw1LjUtMTkuMSwxMy4yLTE5LjEmIzEwOyYjOTsmIzk7JiM5OyYjOTtjMi40LDAsNSwwLjYsNy40LDEuMVYzOTVDMjIzLjgsMzk0LjcsMjIxLjQsMzk0LjUsMjE5LjcsMzk0LjV6IiBjbGFzcz0ic3QwIi8+JiN4YTsJCQk8cmVjdCBoZWlnaHQ9IjY1LjMiIHdpZHRoPSIyNC41IiBjbGFzcz0ic3QwIiB5PSIzOTYuNCIgeD0iMjMyLjQiLz4mI3hhOwkJCTxwYXRoIGQ9Ik0yMzEuNiwzNzcuMWMwLDYuMiw1LjksMTEuMywxMy4xLDExLjNjNy4zLDAsMTMuMS01LjEsMTMuMS0xMS4zYzAtNi4yLTUuOS0xMS4zLTEzLjEtMTEuMyYjMTA7JiM5OyYjOTsmIzk7JiM5O0MyMzcuNSwzNjUuOCwyMzEuNiwzNzAuOSwyMzEuNiwzNzcuMXoiIGNsYXNzPSJzdDAiLz4mI3hhOwkJCTxwYXRoIGQ9Ik00NjQuNiw0NDguMWMtNC42LDAuOC04LjgsMC45LTkuOSwwLjljLTExLjgsMC0xMS42LTguMi0xMS42LTE3LjR2LTIyaDIxLjV2LTEzLjJINDQzdi0yOS42djBoLTI0LjZ2MjkuNyYjMTA7JiM5OyYjOTsmIzk7JiM5O0g0MDlsMCwxMy4yaDkuNXYyNS4xYzAsOS45LDEuMSwxNy42LDkuOSwyMi45YzguMSw0LjgsMTgsNS41LDI3LjEsNS41YzEuOSwwLDUuMS0wLjEsOS0wLjRWNDQ4LjF6IiBjbGFzcz0ic3QwIi8+JiN4YTsJCQk8cGF0aCBkPSJNNTM1LjEsNDAyLjhjLTUuMi02LTEyLjItOC4yLTIwLTguMmMtNi4yLDAtMTMuMSwxLjMtMTcuNyw2di0zMy44aC0yNC41djk0LjlsMjQuNSwwVjQyMSYjMTA7JiM5OyYjOTsmIzk7JiM5O2MwLTYuOCwxLjQtMTEuNyw4LjUtMTEuN2M2LjMsMCw4LjcsMy4zLDguNywxMy44YzAsNC4zLDAsMzguNSwwLDM4LjVsMjQuNSwwdi0zOUM1MzkuMSw0MTUuOCw1MzkuOSw0MDguMiw1MzUuMSw0MDIuOHoiIGNsYXNzPSJzdDAiLz4mI3hhOwkJCTxwYXRoIGQ9Ik0xNjguNiwzODYuNGMtOC00LTE3LjktNS41LTI1LjktNS41Yy0yMC42LDAtMzEuNiwxMS45LTMxLjYsMjkuM2MwLDE3LjcsNi4yLDM4LDI3LDM4YzEuOSwwLDMuOSwwLDUuNy0wLjQmIzEwOyYjOTsmIzk7JiM5OyYjOTt2LTM2LjNoMjQuN3Y0Ny4yYy05LjksMi43LTIwLjIsNC40LTMwLjYsNC40Yy0yOS45LDAtNTQtMTYuOS01NC00OC44YzAtMzIuNCwyMy4yLTUwLjIsNTkuMS01MC4yYzQuMiwwLDE2LjcsMS41LDI1LjYsMy45JiMxMDsmIzk7JiM5OyYjOTsmIzk7TDE2OC42LDM4Ni40eiIgY2xhc3M9InN0MCIvPiYjeGE7CQk8L2c+JiN4YTsJCTxwYXRoIGQ9Ik0zNjYuMyw0ODkuOGMwLDMuMS0xLDUuNS0zLDcuNGMtMiwxLjktNC44LDMtOC4zLDMuNmMtMS43LDAuMi00LjcsMC4zLTkuMiwwLjNoLTkuMnYtMjEuNmgxNC4xJiMxMDsmIzk7JiM5OyYjOTtjMy40LDAsNS45LDAuMSw3LjMsMC40YzIsMC4zLDMuNywxLDUsMi4zQzM2NS4xLDQ4NC4zLDM2Ni4zLDQ4Ni45LDM2Ni4zLDQ4OS44eiBNMzc3LjIsNTMxLjlsLTkuNS0xOS45Yy0xLjktMy45LTUtNy4yLTcuNC03LjQmIzEwOyYjOTsmIzk7JiM5O2MzLjEtMC41LDYuNi0yLjUsOC0zLjljMi44LTIuNiw0LjItNi4yLDQuMi0xMC41YzAtNC43LTEuNy04LjctNS4xLTExLjljLTIuMS0xLjktNC45LTMuMi04LjUtMy43Yy0xLjgtMC4yLTUtMC4zLTkuNS0wLjNoLTE5LjImIzEwOyYjOTsmIzk7JiM5O3Y1Ny43aDYuMnYtMjUuNGgxMi40YzQuOCwwLDguMSwwLjcsOS45LDIuNGMwLjgsMC44LDEuOCwyLjEsMi44LDRjMC4zLDAuNiwxLDIsMi4xLDQuM2w3LDE0LjdIMzc3LjJ6IiBjbGFzcz0ic3QxIi8+JiN4YTsJCTxwYXRoIGQ9Ik0xMjguNiw1MjcuM2MtMy44LDMuNy0xMC40LDUuNS0xNyw1LjVjLTYuNywwLTEzLjEtMS45LTE3LTUuN2MtMi43LTIuNi00LjQtNi4xLTUuMS0xMC41JiMxMDsmIzk7JiM5OyYjOTtjLTAuMy0xLjYtMC41LTUuNi0wLjUtMTJ2LTMwLjRoNi4ydjM2LjNjMCw2LjIsMS4yLDEwLjQsMy42LDEyLjhjMi45LDIuNyw3LjksNCwxMyw0YzQuNiwwLDkuNS0xLjIsMTIuMS0zLjYmIzEwOyYjOTsmIzk7JiM5O2MyLjUtMi40LDMuOS02LjEsNC4xLTExLjNjMC0xLjEsMC0zLjEsMC02LjFsMC0zMi4xaDYuMnYzMS42YzAsNS42LTAuMSw5LjQtMC40LDExLjVDMTMyLjksNTIxLjUsMTMxLjIsNTI0LjgsMTI4LjYsNTI3LjN6IiBjbGFzcz0ic3QxIi8+JiN4YTsJCTxwYXRoIGQ9Ik0xODcuOSw1MzEuOWwtMzUuMi00Ny4zbDAuMSw0Ny4zaC02LjF2LTU3LjdoNi44bDM1LjYsNDguMWwtMC4xLTQ4LjFoNi4xdjU3LjdIMTg3Ljl6IiBjbGFzcz0ic3QxIi8+JiN4YTsJCTxwYXRoIGQ9Ik0yMDcuNSw1MzEuOXYtNTcuN2g2LjR2NTcuN0gyMDcuNXoiIGNsYXNzPSJzdDEiLz4mI3hhOwkJPHBhdGggZD0iTTI1MC45LDUzMS45aC03LjFsLTIyLjEtNTcuN2g3LjJsMTguNiw1MC41bDE5LjEtNTAuNWg2LjdMMjUwLjksNTMxLjl6IiBjbGFzcz0ic3QxIi8+JiN4YTsJCTxwYXRoIGQ9Ik0yNzkuOSw1MzEuOXYtNTcuN2gzOS42djUuNWgtMzMuNHYxOWgzMC4xdjUuNGgtMzAuMXYyMmgzNS4xdjUuN0gyNzkuOXoiIGNsYXNzPSJzdDEiLz4mI3hhOwkJPHBhdGggZD0iTTQxNi4xLDQ4My43Yy0wLjMtMC4zLTIuNS0yLjctNi43LTQuMWMtMS45LTAuNi00LjItMS02LjktMWMtNC4zLDAtNy4zLDAuOC05LjcsMi42JiMxMDsmIzk7JiM5OyYjOTtjLTIuNCwxLjgtMy41LDQuMS0zLjUsNi43YzAsMy41LDIuNSw2LjQsNy41LDguN2MzLjIsMS4yLDYuNywyLjQsOS45LDMuNmMzLjksMS42LDYuOCwzLjIsOC44LDVjMy4zLDMsNC45LDYuNSw0LjksMTAuNiYjMTA7JiM5OyYjOTsmIzk7YzAsNS0xLjUsOS4xLTQuOSwxMi4yYy0zLjcsMy4zLTguOCw0LjgtMTUuMyw0LjhjLTExLjMsMC0xNy42LTUuNi0xOC45LTYuOGwzLjctNC4zYzAuNywwLjYsNy4yLDUuNCwxNS4yLDUuNCYjMTA7JiM5OyYjOTsmIzk7YzQuNiwwLDgtMC43LDEwLjMtMi43YzIuNC0yLDMuNi00LjksMy42LTguM2MwLTMuMi0xLjctNS45LTUuNC04LjNjLTEuNy0xLTUuMy0yLjUtMTAuMi00LjRjLTQuOS0xLjktOC40LTMuNi0xMC40LTUuMyYjMTA7JiM5OyYjOTsmIzk7Yy0zLjItMi42LTQuNy02LTQuNy0xMC4yYzAtNC4zLDEuNy03LjksNS4yLTEwLjdjMy41LTIuOCw4LTQuMiwxMy41LTQuMmMzLjcsMCw2LjcsMC41LDkuMiwxLjNjNS4zLDEuOCw4LjEsNC43LDksNS41JiMxMDsmIzk7JiM5OyYjOTtMNDE2LjEsNDgzLjd6IiBjbGFzcz0ic3QxIi8+JiN4YTsJCTxwYXRoIGQ9Ik00MzEuMiw1MzEuOXYtNTcuN2g2LjR2NTcuN0g0MzEuMnoiIGNsYXNzPSJzdDEiLz4mI3hhOwkJPHBhdGggZD0iTTQ2OS40LDQ3OS43djUyLjJoLTYuMnYtNTIuMmgtMTcuN3YtNS41aDQwLjV2NS41SDQ2OS40eiIgY2xhc3M9InN0MSIvPiYjeGE7CQk8cGF0aCBkPSJNNTE3LjcsNTA4LjV2MjMuNGgtNi4ydi0yMy40bC0yMi4zLTM0LjNoNy40bDE4LjIsMjcuOGwxNy43LTI3LjhoNy4zTDUxNy43LDUwOC41eiIgY2xhc3M9InN0MSIvPiYjeGE7CQk8Zz4mI3hhOwkJCTxwb2x5Z29uIHBvaW50cz0iMzIwLjcsMzM0LjUgMzUwLjYsMjU5LjkgMzUwLjYsMTU1IDMyMC43LDIyOS42IiBjbGFzcz0ic3QwIi8+JiN4YTsJCQk8cG9seWdvbiBwb2ludHM9IjM5NS44LDE5MC42IDM5NS44LDI5NS40IDMyOC40LDMzOC42IDM3MS41LDI3My4zIDM3MS41LDIwNi4xIiBjbGFzcz0ic3QwIi8+JiN4YTsJCQk8cG9seWdvbiBwb2ludHM9IjMzMi42LDM0Ni4zIDQxMiwzMTQuMiA0MTIsMjMzLjIgNDM0LjYsMjMzLjIgNDM0LjYsMzQ2LjMiIGNsYXNzPSJzdDAiLz4mI3hhOwkJCTxwb2x5Z29uIHBvaW50cz0iMzA3LjUsMzM0LjUgMjc3LjUsMjU5LjkgMjc3LjUsMTU1IDMwNy41LDIyOS42IiBjbGFzcz0ic3QwIi8+JiN4YTsJCQk8cG9seWdvbiBwb2ludHM9IjIzMi4zLDE5MC42IDIzMi4zLDI5NS40IDI5OS43LDMzOC42IDI1Ni42LDI3My4zIDI1Ni42LDIwNi4xIiBjbGFzcz0ic3QwIi8+JiN4YTsJCQk8cG9seWdvbiBwb2ludHM9IjI5NS42LDM0Ni4zIDIxNi4xLDMxNC4yIDIxNi4xLDIzMy4yIDE5My42LDIzMy4yIDE5My42LDM0Ni4zIiBjbGFzcz0ic3QwIi8+JiN4YTsJCTwvZz4mI3hhOwkJPGc+JiN4YTsJCQk8cGF0aCBkPSJNOTYuNiw2MTQuN0w5Ni42LDYxNC43bC0wLjItMC4xYy02LjItMC45LTEyLjQtNy4xLTEyLjQtMTcuMmMwLTEwLjUsNi41LTE3LjgsMTUuNy0xNy44JiMxMDsmIzk7JiM5OyYjOTsmIzk7YzkuMSwwLDE1LjQsNy4yLDE1LjQsMTcuNWMwLDcuNC0zLjUsMTYuNC0xMy40LDE3LjVsLTAuNSwwLjFsMC4zLDAuNGMxLjksMi4zLDUuMywzLjUsOS44LDMuNWMxLjQsMCwyLjYtMC4yLDMuMi0wLjMmIzEwOyYjOTsmIzk7JiM5OyYjOTtjMCwwLDAuMSwwLDAuMSwwYzAuMSwwLjQsMC40LDIuNCwwLjQsMi44Yy0wLjYsMC4xLTIuNCwwLjUtNSwwLjVDMTA0LjEsNjIxLjYsOTkuNiw2MTkuNCw5Ni42LDYxNC43eiBNODguMiw1OTcuMyYjMTA7JiM5OyYjOTsmIzk7JiM5O2MwLDguMyw0LjgsMTQuMywxMS40LDE0LjNjNi45LDAsMTEuMi01LjYsMTEuMi0xNC42YzAtOC40LTQuNi0xNC0xMS41LTE0QzkyLjYsNTgzLDg4LjIsNTg4LjYsODguMiw1OTcuM3oiIGNsYXNzPSJzdDEiLz4mI3hhOwkJCTxwYXRoIGQ9Ik0xNDEuMiw1ODkuOGMwLDAuNSwwLDI0LjEsMCwyNC42Yy0wLjQsMC0zLDAtMy40LDBjMC0wLjQsMC0yLjEsMC0yLjFsLTAuNSwwLjNjLTMsMi01LjgsMi40LTcuNiwyLjQmIzEwOyYjOTsmIzk7JiM5OyYjOTtjLTIuNCwwLTQuNy0wLjgtNS45LTJjLTIuMy0yLjMtMi4zLTUtMi4zLTljMCwwLDAtMTMuOCwwLTE0LjNjMC40LDAsMy40LDAsMy45LDBjMCwwLjUsMCwxNCwwLDE0YzAsMy4zLDAuMSw1LjQsMS40LDYuNyYjMTA7JiM5OyYjOTsmIzk7JiM5O2MwLjYsMC42LDEuOSwxLjMsMy43LDEuM2MzLjQsMCw2LjctMi4yLDYuNy0yLjJsMC4xLTAuMWMwLDAsMC0xOS4yLDAtMTkuN0MxMzcuOCw1ODkuOCwxNDAuOCw1ODkuOCwxNDEuMiw1ODkuOHoiIGNsYXNzPSJzdDEiLz4mI3hhOwkJCTxwYXRoIGQ9Ik0xNDcuNCw2MDIuMmMwLTcuOCw0LjYtMTMuMSwxMS40LTEzLjFjNi4zLDAsMTAuMSw0LjYsMTAuMSwxMi4zYzAsMC0wLjEsMS4zLTAuMSwxLjZjLTAuNSwwLTE3LjUsMC0xNy41LDAmIzEwOyYjOTsmIzk7JiM5OyYjOTtzMCwwLjMsMCwwLjRjMCwyLjUsMC44LDQuNiwyLjMsNi4xYzEuNCwxLjUsMy41LDIuMiw1LjksMi4yYzIuNCwwLDQuOC0wLjYsNy0xLjljMC4yLDAuNCwxLjIsMi4zLDEuNCwyLjYmIzEwOyYjOTsmIzk7JiM5OyYjOTtjLTAuOCwwLjYtNCwyLjUtOC44LDIuNUMxNTIsNjE0LjksMTQ3LjQsNjEwLDE0Ny40LDYwMi4yeiBNMTUxLjMsNTk5LjhsMCwwLjNoMTMuOHYtMC4zYzAtMi44LTEuMy03LjctNi4zLTcuNyYjMTA7JiM5OyYjOTsmIzk7JiM5O0MxNTQuNyw1OTIuMSwxNTEuNyw1OTUuMiwxNTEuMyw1OTkuOHoiIGNsYXNzPSJzdDEiLz4mI3hhOwkJCTxwYXRoIGQ9Ik0xNzMuOCw2MDIuMmMwLTcuOCw0LjYtMTMuMSwxMS40LTEzLjFjNi4zLDAsMTAuMSw0LjYsMTAuMSwxMi4zYzAsMC0wLjEsMS4zLTAuMSwxLjZjLTAuNSwwLTE3LjUsMC0xNy41LDAmIzEwOyYjOTsmIzk7JiM5OyYjOTtzMCwwLjMsMCwwLjRjMCwyLjUsMC44LDQuNiwyLjMsNi4xYzEuNCwxLjUsMy41LDIuMiw1LjksMi4yYzIuNCwwLDQuOC0wLjYsNy0xLjljMC4yLDAuNCwxLjIsMi4yLDEuNCwyLjYmIzEwOyYjOTsmIzk7JiM5OyYjOTtjLTAuOCwwLjYtNCwyLjUtOC44LDIuNUMxNzguMyw2MTQuOSwxNzMuOCw2MTAsMTczLjgsNjAyLjJ6IE0xNzcuNyw1OTkuOGwwLDAuM2gxMy44di0wLjNjMC0yLjgtMS4zLTcuNy02LjMtNy43JiMxMDsmIzk7JiM5OyYjOTsmIzk7QzE4MS4xLDU5Mi4xLDE3OC4xLDU5NS4yLDE3Ny43LDU5OS44eiIgY2xhc3M9InN0MSIvPiYjeGE7CQkJPHBhdGggZD0iTTIwNS4yLDU5MS42bDAuMS0wLjFjMy0yLDUuOC0yLjQsNy42LTIuNGMyLjQsMCw0LjUsMC43LDUuOCwyLjFjMi4zLDIuMywyLjQsNC43LDIuNCw4LjhjMCwwLDAsMTMuOCwwLDE0LjMmIzEwOyYjOTsmIzk7JiM5OyYjOTtjLTAuNCwwLTMuNSwwLTMuOSwwYzAtMC41LDAtMTQsMC0xNGMwLTMuMy0wLjEtNS40LTEuNC02LjdjLTAuNi0wLjYtMi0xLjMtMy43LTEuM2MtMy40LDAtNi43LDIuMi02LjgsMi4ybC0wLjEsMC4xJiMxMDsmIzk7JiM5OyYjOTsmIzk7YzAsMCwwLDE5LjIsMCwxOS44Yy0wLjQsMC0zLjUsMC0zLjksMGMwLTAuNSwwLTI0LjEsMC0yNC42YzAuNCwwLDMsMCwzLjQsMGMwLDAuNCwwLDIuMSwwLDIuMUwyMDUuMiw1OTEuNnoiIGNsYXNzPSJzdDEiLz4mI3hhOwkJCTxwYXRoIGQ9Ik0yMzkuNiw2MDcuOWMwLTIuNS0yLjYtMy42LTUuMy00LjdjLTMuMy0xLjQtNy4xLTMtNy4xLTcuM2MwLTQsMy41LTYuOCw4LjUtNi44YzQuMywwLDYuOSwxLjYsNy42LDImIzEwOyYjOTsmIzk7JiM5OyYjOTtjLTAuMiwwLjMtMS4yLDIuMS0xLjQsMi41Yy0wLjctMC40LTMuMS0xLjYtNS45LTEuNmMtMywwLTQuOSwxLjQtNC45LDMuNmMwLDIuMywyLjYsMy40LDUuMyw0LjVjMy40LDEuNSw3LjMsMy4xLDcuMyw3LjQmIzEwOyYjOTsmIzk7JiM5OyYjOTtjMCw1LjEtNC42LDcuNC04LjksNy40Yy00LjUsMC03LjUtMS44LTguMy0yLjNjMC4yLTAuMywxLjItMi4zLDEuNC0yLjZjMiwxLjIsNC4zLDEuOCw2LjYsMS44JiMxMDsmIzk7JiM5OyYjOTsmIzk7QzIzNy40LDYxMS45LDIzOS42LDYxMC4zLDIzOS42LDYwNy45eiIgY2xhc3M9InN0MSIvPiYjeGE7CQkJPHBhdGggZD0iTTI1My42LDU3Ny41YzAsMC41LDAsMzYuNCwwLDM2LjljLTAuNCwwLTMuNCwwLTMuOSwwYzAtMC41LDAtMzYuNCwwLTM2LjkmIzEwOyYjOTsmIzk7JiM5OyYjOTtDMjUwLjIsNTc3LjUsMjUzLjIsNTc3LjUsMjUzLjYsNTc3LjV6IiBjbGFzcz0ic3QxIi8+JiN4YTsJCQk8cGF0aCBkPSJNMjY5LjgsNTg5LjFjMi45LDAsNS41LDAuOSw3LjEsMi41YzEuOCwxLjgsMS45LDQsMS45LDcuM2MwLDAsMCwxNSwwLDE1LjVjLTAuNCwwLTMsMC0zLjQsMCYjMTA7JiM5OyYjOTsmIzk7JiM5O2MwLTAuNCwwLTIuMSwwLTIuMWwtMC42LDAuNGMtMi40LDEuNS00LjgsMi4yLTcuMywyLjJjLTQuNywwLTcuOC0zLTcuOC03LjVjMC04LjMsMTAuNi04LjMsMTQuMS04LjNoMS40di0xLjkmIzEwOyYjOTsmIzk7JiM5OyYjOTtjMC0xLjUtMC4xLTIuNy0xLjEtMy43Yy0wLjktMC45LTIuNC0xLjQtNC42LTEuNGMtMi4zLDAtNC43LDAuNy02LjgsMS45Yy0wLjItMC40LTEuMi0yLjItMS40LTIuNSYjMTA7JiM5OyYjOTsmIzk7JiM5O0MyNjEuOSw1OTEsMjY0LjksNTg5LjEsMjY5LjgsNTg5LjF6IE0yNzQuOCw2MDEuOWgtMS4zYy00LjUsMC03LjUsMC43LTksMi4zYy0wLjgsMC44LTEuMiwxLjgtMS4yLDMuMWMwLDIuOCwyLjEsNC42LDUuMiw0LjYmIzEwOyYjOTsmIzk7JiM5OyYjOTtjMi44LDAsNS4xLTEuMiw2LjEtMS43bDAuNS0wLjJsMC0wLjJ2LTcuOEgyNzQuOHoiIGNsYXNzPSJzdDEiLz4mI3hhOwkJCTxwYXRoIGQ9Ik0yODkuOCw1OTEuNmwwLjEtMC4xYzMtMiw1LjgtMi40LDcuNi0yLjRjMi41LDAsNC40LDAuNyw1LjgsMi4xYzIuMywyLjMsMi40LDQuNywyLjQsOC44YzAsMCwwLDEzLjgsMCwxNC4zJiMxMDsmIzk7JiM5OyYjOTsmIzk7Yy0wLjQsMC0zLjQsMC0zLjksMGMwLTAuNSwwLTE0LDAtMTRjMC0zLjMtMC4xLTUuNC0xLjQtNi43Yy0wLjYtMC42LTEuOS0xLjMtMy43LTEuM2MtMy41LDAtNi43LDIuMi02LjgsMi4ybC0wLjEsMC4xJiMxMDsmIzk7JiM5OyYjOTsmIzk7YzAsMCwwLDE5LjIsMCwxOS44Yy0wLjQsMC0zLjQsMC0zLjksMGMwLTAuNSwwLTI0LjEsMC0yNC42YzAuNCwwLDMsMCwzLjQsMGMwLDAuNCwwLDIuMSwwLDIuMUwyODkuOCw1OTEuNnoiIGNsYXNzPSJzdDEiLz4mI3hhOwkJCTxwYXRoIGQ9Ik0zMzMuMSw1NzcuNWMwLDAuNSwwLDM2LjQsMCwzNi45Yy0wLjQsMC0zLDAtMy40LDBjMC0wLjQsMC0yLjMsMC0yLjNsLTAuNSwwLjRjLTEuOCwxLjYtNC4yLDIuNS02LjgsMi41JiMxMDsmIzk7JiM5OyYjOTsmIzk7Yy02LjUsMC0xMC44LTUtMTAuOC0xMi42YzAtNy43LDUtMTMuMywxMi0xMy4zYzEuOSwwLDMuNywwLjUsNS4yLDEuNGwwLjUsMC4zbDAtMC41YzAsMCwwLTEyLjQsMC0xMi45JiMxMDsmIzk7JiM5OyYjOTsmIzk7QzMyOS43LDU3Ny41LDMzMi43LDU3Ny41LDMzMy4xLDU3Ny41eiBNMzE1LjUsNjAyLjRjMCw1LjUsMy4yLDkuMyw3LjcsOS4zYzIuMSwwLDQuMi0wLjgsNS45LTIuMmwwLjItMC4xbDAtMC4xdi0xNS4ybC0wLjEtMC4xJiMxMDsmIzk7JiM5OyYjOTsmIzk7Yy0xLjUtMS4xLTMuMi0xLjctNS4yLTEuN0MzMTguOCw1OTIuMywzMTUuNSw1OTYuMywzMTUuNSw2MDIuNHoiIGNsYXNzPSJzdDEiLz4mI3hhOwkJCTxwYXRoIGQ9Ik0zNDIuMyw2MTAuOWMwLDAuMiwwLDAuNCwwLDAuNGMwLDUtMy4yLDcuOS00LjIsOC42Yy0wLjMtMC4yLTEuNC0xLjItMS43LTEuNWMwLjYtMC44LDIuNi0zLjMsMi42LTYuNiYjMTA7JiM5OyYjOTsmIzk7JiM5O2MwLDAsMC0wLjYsMC0wLjlDMzM5LjQsNjEwLjksMzQxLjksNjEwLjksMzQyLjMsNjEwLjl6IiBjbGFzcz0ic3QxIi8+JiN4YTsJCQk8cGF0aCBkPSJNMzcxLjUsNTgwLjNjMC4xLDAuMywxMi4yLDMzLjQsMTIuNSwzNC4xYy0wLjYsMC00LDAtNC4zLDBjLTAuMS0wLjMtMy4yLTktMy4yLTloLTE0LjZjMCwwLTMsOC43LTMuMiw5JiMxMDsmIzk7JiM5OyYjOTsmIzk7Yy0wLjMsMC0zLjUsMC00LjEsMGMwLjItMC43LDEyLjItMzMuOCwxMi40LTM0LjFDMzY3LjMsNTgwLjMsMzcxLjIsNTgwLjMsMzcxLjUsNTgwLjN6IE0zNjguOSw1ODQuOWwtNS45LDE3LjJoMTIuNGwtNi4yLTE3LjkmIzEwOyYjOTsmIzk7JiM5OyYjOTtMMzY4LjksNTg0Ljl6IiBjbGFzcz0ic3QxIi8+JiN4YTsJCQk8cGF0aCBkPSJNNDA3LjksNTg5LjhjMCwwLjUsMCwyNC4xLDAsMjQuNmMtMC40LDAtMywwLTMuNCwwYzAtMC40LDAtMi4xLDAtMi4xbC0wLjUsMC4zYy0zLDItNS44LDIuNC03LjYsMi40JiMxMDsmIzk7JiM5OyYjOTsmIzk7Yy0yLjQsMC00LjctMC44LTUuOS0yYy0yLjMtMi4zLTIuMy01LTIuMy05YzAsMCwwLTEzLjgsMC0xNC4zYzAuNCwwLDMuNCwwLDMuOSwwYzAsMC41LDAsMTQsMCwxNGMwLDMuMywwLjEsNS40LDEuNCw2LjcmIzEwOyYjOTsmIzk7JiM5OyYjOTtjMC42LDAuNiwyLDEuMywzLjcsMS4zYzMuNCwwLDYuNy0yLjIsNi43LTIuMmwwLjEtMC4xYzAsMCwwLTE5LjIsMC0xOS43QzQwNC41LDU4OS44LDQwNy41LDU4OS44LDQwNy45LDU4OS44eiIgY2xhc3M9InN0MSIvPiYjeGE7CQkJPHBhdGggZD0iTTQyNi43LDYwNy45YzAtMi41LTIuNi0zLjYtNS4zLTQuN2MtMy4zLTEuNC03LjEtMy03LjEtNy4zYzAtNCwzLjUtNi44LDguNS02LjhjNC4zLDAsNi45LDEuNiw3LjYsMiYjMTA7JiM5OyYjOTsmIzk7JiM5O2MtMC4yLDAuMy0xLjIsMi4xLTEuNCwyLjVjLTAuNy0wLjQtMy4xLTEuNi01LjktMS42Yy0zLDAtNC45LDEuNC00LjksMy42YzAsMi4zLDIuNiwzLjQsNS4zLDQuNWMzLjQsMS41LDcuMywzLjEsNy4zLDcuNCYjMTA7JiM5OyYjOTsmIzk7JiM5O2MwLDUuMS00LjYsNy40LTguOSw3LjRjLTQuNSwwLTcuNS0xLjgtOC4zLTIuM2MwLjItMC4zLDEuMi0yLjMsMS40LTIuNmMyLDEuMiw0LjMsMS44LDYuNiwxLjgmIzEwOyYjOTsmIzk7JiM5OyYjOTtDNDI0LjUsNjExLjksNDI2LjcsNjEwLjMsNDI2LjcsNjA3Ljl6IiBjbGFzcz0ic3QxIi8+JiN4YTsJCQk8cGF0aCBkPSJNNDQyLjYsNTgyLjdjMCwwLjUsMCw3LjEsMCw3LjFzNy4yLDAsNy43LDBjMCwwLjQsMCwyLjcsMCwzLjFjLTAuNSwwLTcuNywwLTcuNywwdjEzLjhjMCwyLjQsMCw1LDMuOSw1JiMxMDsmIzk7JiM5OyYjOTsmIzk7YzEuNywwLDIuOC0wLjQsMy4zLTAuNmMwLjEsMC40LDAuOCwyLjMsMSwyLjdjLTEuNiwwLjgtMy4zLDEuMi01LjEsMS4yYy0yLjQsMC00LjMtMC42LTUuNS0xLjhjLTEuNi0xLjYtMS42LTMuOS0xLjYtNi41VjYwNiYjMTA7JiM5OyYjOTsmIzk7JiM5O3YtMTMuMWMwLDAtNCwwLTQuNCwwYzAtMC40LDAtMi43LDAtMy4xYzAuNSwwLDQuNCwwLDQuNCwwczAtNi42LDAtNy4xQzQzOS4xLDU4Mi43LDQ0Mi4xLDU4Mi43LDQ0Mi42LDU4Mi43eiIgY2xhc3M9InN0MSIvPiYjeGE7CQkJPHBhdGggZD0iTTQ1OS45LDU5M0w0NTkuOSw1OTNjMS0xLjIsMy42LTMuOCw3LjktMy44YzEuNCwwLDIuMSwwLjIsMi40LDAuM2MtMC4xLDAuNC0wLjgsMi43LTAuOSwzLjEmIzEwOyYjOTsmIzk7JiM5OyYjOTtjLTAuNC0wLjEtMS0wLjEtMS43LTAuMWMtMy4xLDAtNS42LDEuNC03LjUsNGwtMC4yLDAuM2wwLDAuMWMwLDAsMCwxNy4xLDAsMTcuNmMtMC40LDAtMy41LDAtMy45LDBjMC0wLjUsMC0yNC4xLDAtMjQuNiYjMTA7JiM5OyYjOTsmIzk7JiM5O2MwLjQsMCwzLDAsMy40LDBjMCwwLjQsMCwzLjcsMCwzLjdMNDU5LjksNTkzeiIgY2xhc3M9InN0MSIvPiYjeGE7CQkJPHBhdGggZD0iTTQ4Mi41LDU4OS4xYzIuOSwwLDUuNSwwLjksNy4xLDIuNWMxLjgsMS44LDIsMy43LDIsNy4zYzAsMCwwLDE1LDAsMTUuNWMtMC40LDAtMywwLTMuNCwwJiMxMDsmIzk7JiM5OyYjOTsmIzk7YzAtMC40LDAtMi4xLDAtMi4xbC0wLjYsMC40Yy0yLjQsMS41LTQuOCwyLjItNy40LDIuMmMtNC43LDAtNy44LTMtNy44LTcuNWMwLTguMywxMC42LTguMywxNC4xLTguM2gxLjR2LTEuOSYjMTA7JiM5OyYjOTsmIzk7JiM5O2MwLTEuNS0wLjEtMi43LTEuMS0zLjdjLTAuOS0wLjktMi40LTEuNC00LjYtMS40Yy0yLjMsMC00LjcsMC43LTYuOCwxLjljLTAuMi0wLjQtMS4yLTIuMi0xLjQtMi41JiMxMDsmIzk7JiM5OyYjOTsmIzk7QzQ3NC43LDU5MC45LDQ3Ny44LDU4OS4xLDQ4Mi41LDU4OS4xeiBNNDg3LjYsNjAxLjloLTEuM2MtNC41LDAtNy41LDAuNy05LDIuM2MtMC44LDAuOC0xLjIsMS44LTEuMiwzLjFjMCwyLjgsMi4xLDQuNiw1LjIsNC42JiMxMDsmIzk7JiM5OyYjOTsmIzk7YzIuOCwwLDUuMS0xLjIsNi4xLTEuN2wwLjUtMC4ybDAtMC4ydi03LjhINDg3LjZ6IiBjbGFzcz0ic3QxIi8+JiN4YTsJCQk8cGF0aCBkPSJNNTAyLjYsNTc3LjVjMCwwLjUsMCwzNi40LDAsMzYuOWMtMC40LDAtMy41LDAtMy45LDBjMC0wLjUsMC0zNi40LDAtMzYuOSYjMTA7JiM5OyYjOTsmIzk7JiM5O0M0OTkuMSw1NzcuNSw1MDIuMSw1NzcuNSw1MDIuNiw1NzcuNXoiIGNsYXNzPSJzdDEiLz4mI3hhOwkJCTxwYXRoIGQ9Ik01MDkuNSw1ODEuNWMwLTEuNCwxLjEtMi40LDIuNC0yLjRjMS40LDAsMi40LDEuMSwyLjQsMi40YzAsMS40LTEuMSwyLjQtMi40LDIuNCYjMTA7JiM5OyYjOTsmIzk7JiM5O0M1MTAuNiw1ODQsNTA5LjUsNTgyLjksNTA5LjUsNTgxLjV6IiBjbGFzcz0ic3QxIi8+JiN4YTsJCQk8cGF0aCBkPSJNNTEzLjksNTg5LjhjMCwwLjUsMCwyNC4xLDAsMjQuNmMtMC40LDAtMy41LDAtMy45LDBjMC0wLjUsMC0yNC4xLDAtMjQuNiYjMTA7JiM5OyYjOTsmIzk7JiM5O0M1MTAuNSw1ODkuOCw1MTMuNSw1ODkuOCw1MTMuOSw1ODkuOHoiIGNsYXNzPSJzdDEiLz4mI3hhOwkJCTxwYXRoIGQ9Ik01MzAuMSw1ODkuMWMyLjksMCw1LjUsMC45LDcuMSwyLjVjMS44LDEuOCwxLjksMy43LDEuOSw3LjNjMCwwLDAsMTUsMCwxNS41Yy0wLjQsMC0zLDAtMy40LDAmIzEwOyYjOTsmIzk7JiM5OyYjOTtjMC0wLjQsMC0yLjEsMC0yLjFsLTAuNiwwLjRjLTIuNCwxLjUtNC45LDIuMi03LjQsMi4yYy00LjcsMC03LjgtMy03LjgtNy41YzAtOC4zLDEwLjYtOC4zLDE0LTguM2gxLjR2LTEuOSYjMTA7JiM5OyYjOTsmIzk7JiM5O2MwLTEuNS0wLjEtMi43LTEuMS0zLjdjLTAuOS0wLjktMi40LTEuNC00LjYtMS40Yy0yLjMsMC00LjcsMC43LTYuOCwxLjljLTAuMi0wLjQtMS4yLTIuMi0xLjQtMi41JiMxMDsmIzk7JiM5OyYjOTsmIzk7QzUyMi4yLDU5MC45LDUyNS4zLDU4OS4xLDUzMC4xLDU4OS4xeiBNNTM1LjEsNjAxLjloLTEuM2MtNC41LDAtNy41LDAuNy05LDIuM2MtMC44LDAuOC0xLjIsMS44LTEuMiwzLjFjMCwyLjgsMi4xLDQuNiw1LjIsNC42JiMxMDsmIzk7JiM5OyYjOTsmIzk7YzIuOCwwLDUuMi0xLjMsNi4xLTEuN2wwLjQtMC4ybDAtMC4ydi03LjhINTM1LjF6IiBjbGFzcz0ic3QxIi8+JiN4YTsJCTwvZz4mI3hhOwkJPHJlY3QgaGVpZ2h0PSIyLjQiIHdpZHRoPSI0NTUuMSIgY2xhc3M9InN0MSIgeT0iNTU2LjkiIHg9Ijg0Ii8+JiN4YTsJPC9nPiYjeGE7PC9zd2l0Y2g+JiN4YTsmI3hhOwkmI3hhOwllSnpzdllkaVU4ZnlPUHk5d0hrSFVVd0pXRDY5UUlDb2dxbU9iUWlFRUVlMkJWYVFKVWVTazNDZi9wdVo3WHVLam16bHd1Lys0MDJNJiN4YTtUOXN5TzMxbmRqZXU3T3h0dG82bmg4UE5vT2sybkkyTnptdzRXRXhuOXhwMHQ3RTlIcC9QRnpPOGRXdjNkc05MbWk2ODFOcE9EL2lMJiN4YTtiNGF6K1dnNnVkZncvYWJiOU9CaEg3Kyt0VGM0SFV3V0o0UEc3dlJ3TkpsUEo3Y2J0MjdEMC8zUllqeUU1NDkzdC92OWcrMlgrOEZCJiN4YTs1K1grZ2IrNSs3amRISjdOYjRzK1FLWGR3UUplOWJLdGNNdExHOW05MEcwTVR2SDVZUExuWUQ0Zi9RZWZ4a0Vhd0wzMjlIeHlQSnA4JiN4YTthay8vdnRmSWZQZ3FiRVJoMW9oakg1NCtHZTBPNTlZcnpUQjFNL0dUNGdmTnpQWDlMSEtUT0lqdzY3UVpCRm1TeGw2WUpJa1BWWG5OJiN4YTt5TTM4TlBEVE5FMmcydTcwNlB4ME9GbnN6S1pIdy9tOE14MVBaL043amM2WHdhVHhZdkFKbmd3YTc0Ymo4ZlN2Um5zOE9QcnNBT1NpJiN4YTtnLzVvUEFRZ25RNFdEUzlBZUxhMlBmK2dmVDRhSDc4OFB6MGNBdmo4TU1QYkFCdXM4dlVjNm9KcThXKzhuUnhzbjhLZHZlRmlBY09CJiN4YTtCbkZPT2kvZVBldkFYRTFQNlQyNDJYQ2JXY2hHbDdwSjVpWmV3NE83dDNaYUwvZGZ2ZXcxd2pScWRCRGVBSHA5QlBRcHZ2aCtkL2hwJiN4YTtSTE1Qay9IaE51L1JiSHAyT3BoOWhtYlRadFRZOUtObWtHWkpraWFCN3laaDJvamRvSmtrVVpTR1dZeDNHcWtYTnlQMjhmN3c5R3dNJiN4YTtzMHBURUxod3Z4RmtFZjVXZi9NM0FVajBsaDgzNHlCSk1qOU1QVGVJazRZSDcwU1I1N2t4ekU3c3g0MG9qZlJYa2thU3Bmb3JBYXRSJiN4YTtUZGJ3ejlId3IzdU5sOVBKa00xSWE3YllZOWdVaHE3TGZyTW51K2ZqNGV6MVpMU0E0WHA0SzJOVDhtSjZQQnp6Vy9SOWZ6eWdtYURpJiN4YTtxZC9zaGYzQjdOTndBVGc0SFo4dmlGeFMwUUpNK2ZQQmwrRk1OT0FsQjIwQSt3VGFtU3lndXdlamp3ZC9NaUk3K0xTNDV5V2lINi9PJiN4YTtocFA5NlJzYXlxWVh4NDBrOHB1eCtnR1VCcEI2b1o4MkVwZ0ZvQ0NjLzdnUkJyS1hudnJObTI2TkY4UFpCR1pJTlA4UHR0V2JIQjl3JiN4YTs5akU4MXR1THFEMXNUVUFHaVcwSFVQN1ZiQVNndWVkNzBJdUFrY0xqMmVoWVVRS1FhY3ArRWZTYkFHYjg4YnpNQjhyTjZ0NWhUQ0dKJiN4YTt2U2lGUWRXNXcrQUVXTENBVVlpcDlBODZMelFxZFpzdjltQWdNTzdPOUJSUmNZNk1DeWNieUc4OC9jU2V5Yi9wQ1h4K2ZzYUF3dEFDJiN4YTtzSFpuTnBwZ25jNUxlcEllN0l6UDRkSGoyZlQ4Ykh2eWNlcmNZc3o3emZBSU9EUWc5bkhqMWVIdmNBRThtRGhIWTM4Mk9JSUs0RnErJiN4YTsweHlNem01WFZnZURtdzBiN0NGOFNaZmkzK1ZmZDRjZmdlZXB6OW5kM3VUUDRYaDZwbFhMM2x0ZTM4NTRNQm5NR25SZlZ2ZDg5Q2M4JiN4YTtHUUI0VklYNDRuRHh0a2FOZ0dwbkFBNnFnMTZ4YXE5NFFYdTB2S0hubzBtdUFybzNtQzMrbXM0K3l3WTE2ZHNjbkMycGRlL3pjSEYwJiN4YTtZdGZMNzE2cTVwM0I0Z1FFMkhCeVBKY1ZzRXNGWllROHU3ZDgvSjNCZUR6Nk5CdWNuWXlPR3UzWitmeWtzVCtkam1YZEJjOWxPL296JiN4YTtlb1JmMXBoYnBNdlo1TldFalNYZkpuL0JiZzQ0Ty92bUcyMUxmbFBVRGp6OHY5TEczcGZUdytsNE5EK1ZGZXQzZGdCOVIwZmo0ZDZYJiN4YTsrV0pZZ3pmc0hSR0VpL3ByUHBKOTVyZFg2ZkYvb1EyQktMM2pFUkJxQ1ZPcWZHZnZyd0dRLy9QUllTVlo0bVI5SEUyT29jOTc1NlBGJiN4YTtVRkhpOVBRTXRlYkczc25nYkVneklkN2NreFZHSk1rMXViUzVXU0d3NGtaN29qMStQQnNjajBBVWdrbEFLdkxkeGs4bjBJUEdMdHdlJiN4YTtqRzg3aFhkQnVQdU45ckh6M3ZuZVliTGJEZHpRamR6WUJaM2ViYnNkdCtmMlBSRHBudThGWHVoRlh1S2xYdWExdkxiWDhicSs2M3UrJiN4YTs3d2QrNkVkKzRxZCs1cmY4dHQveHUzN1A4ZnVCRzNpQkg0UkJGSUJlQ2ZaRkZyU0NkdEFKdWtFdjZJZlFVZ2dTUHd6Q01JekNPRXhDJiN4YTtVTFBEVnRnT08yRTM3SVg5c0IrNWtSZjVFWmdSVWVpQUtocEhDV2lwV2RTT09sQzZVUTlLUDNaakQ0b2ZCM0VZd3l1Z1J5VnhHbWR4JiN4YTtDMG83N3NTOXVCLzNFOURiRXorQmZpUmhFaVh3aXBPZ3RwMUJhU1h0cEFPbG0vU1NmZ3BqVDcwVVJwTkNsMVBRN2xPb0xZVlhVL3pKJiN4YTswaGFVZHRxQjBrMTdVUHBwUHdOb1paNERXZytNRVVlUlFTZXpHT3ZPVWlyNDA4cmFVRHBaRjBvUFNyL2xRdkZhQUxRV1FLWVZ0aUxzJiN4YTtjaXZCRmxwWnErVzBXcTEycXdPbEM2VUhwZCtHV1dsN2JiOE5nR3lIYllCRU8yNG43UlJyYnJmYTdYWUhTcmZkY3g2cU9mWDVySUpGJiN4YTtSdk9LemVMY2RxR28rUlV6SFBNNVpyTk04K3oxdkQ3TXRldG8weDBqZ09TRTA1UkQ2V1BoODQ0L2JPWng3c1hzcy9ubkdPQllLSUJJJiN4YTtrRW8wRUloQXFLQWhBNktEd0FYRWhpeHFJUndRSnh4QWlpNUhDaDB0UW80V0RERUVhaUJ5ZEFFOUJJSXdGUEVKUlNxUUJOR0VVSVdRJiN4YTt4U05reWFPS2pTZ01UUUJKUEVJVGdTUU1UWW9RcE0rUmc2RUdJRWZSbk1aOFJ0bDhGczltSWlsV3phVW5wdExoczJtUkw1dExPWk9NJiN4YTtoblVxTnVaUlRpTk1wQk5HeGx5Mk5KSVdSTTFtVXN5bE9ac3RtazFHMzBUaGprYmlPSnM2bWE4Mm56aWpNSjBPVGhDZlU1elZOcDlWJiN4YTtOWnRxUG91SnYyMFN2NE1UQzdPcXlOOWtBQVZ6aXdYcFVNM3ArbjQ4QnhCRUw3NVdBaW8wWmNRU0VJVmlsNERsRXV0RFZrWXNBcEdxJiN4YTt6UkRMSWR3UzJLWHdDekZNNEJpVEN3YWVBYVl4TEF0c0pITTRsdGtZbHVneVFtTU9BcGs0SWhFQ0llb2cyaURLRU9Fek5FSDBRTlRJJiN4YTtPRG9nSXZnMC9VakpMWnJyUHMxeUNET2J3bnppWFBaaEFnT1lNcHl1Rmt4VHp5SHFDd0FiRThhTWdRdjNBQncrOEtXWStHMGIrR3dmJiN4YTt4aG9BcmlaQTVhMU9wOVB0OURwOW10Tit2OS9yZC91ZGZydmZncmxPZ1ZuRS9RalFQd0M2OHZwdXI5L3I5YnE5VHE4TmZEMERWRW9BJiN4YTtieU1na1FCb3ordTUzWDYzMSsxMk85MDI4UDZzbXpxQW9URlFSQWhFNTNlOXJ0dnBRMXRkYUxNTkxXZlFmdEtCOFVKZlF1aVJELzF5JiN4YTsyLzEyRC9yWWdaNjJvTDhwWUhvTWZESUU0dlhibnROMlczMFFLVjBZV0J1R2w4RXdFNkNqQ0FnMkFMYmp0VnhBMGg2Z2F3Y1F0NFh1JiN4YTtMNEJPRERBS0FWSSt3TXNGN084QjdEcEFENjAwYzlDYkJ5Q05BTEFCZ05kTFhXQ1J5Q283UUdJdElJVVVwaUNHaVFpQkluM0FHUmZvJiN4YTt0QWRUMUlHcGFzR0VwVEJ0TVZCMkNKUG94NTRUdTFFZk9FQVhlRUViSmprRGNreGd5dkVuaE9uM0FRbGM0Q2c5UUlrT29FWUxFQ1FGJiN4YTtSSW1CcFlTQU5qNmdqeHYwZ1VWMUFhSGFRY3NCN0VvQngyTEF0UkJ3emdmY2M0SFA5UUFYTzhENVdvQ2NLU0JwRE1nYUF0TDZnTDR1JiN4YTtvSEhQNi80N3AvL082UnJudFBhTXRsMW52VE9hcHM1Nlp6UjJuWkladmRCODRuUTZGNXRQRUR0dG1OT3dzWEhRbm9GUjQycE9VN1IwJiN4YTswSk1hNFExNHZ1ZHNISlErYjg4ZHQ1bUFSSW9BVG9rSDhqQnB1RTJRUVdua1E0Y3pnR3ZrNFIwUStGRWFSSjRmdUxHUGQxSVBIb1daJiN4YTs2OGRobXZreDNQRThnQ0xlOGpJUXMybnhIVGRLVXgrQWxZV2VsOFNxSzU2ck92dk5kQWlnMCs1S2cxVVluc1cyYU85ME9CdU1qeHU5JiN4YTtMME93UWZVcnFERVF0aWZRRWtoN05PWjZwTDBCamVWTGJCV2tRVllDdXpnOVVtQ0JQTEc0ckFDaGl0TFRDdnZwOE5LV3BhVVhoLzdKJiN4YTtqSkpxSlNrb2NWVnhqTXVvUmdtcmk4UC9DTlpWbkJWZVJUNEtyQU1aUnloWkJqSU1aQmNKc1F2SkxJQlhDRTdSSWs1Undpc2NZaGFLJiN4YTtYU2lHSVZnR1l4cU1iU0RqU0VrT0pHU25JTzhJVWU4RTd1R1JWZHB6Q0NlNnhFWTZQaG5kUHVuc1B0a0lQaGtrUHRYdml4K3VNNk1tJiN4YTt5MHRYbHJaRDVyRW9MYU9raFNXdUxnNy9JMXhYY1ZaNEZlZXcxK3U3QU5lWUpDSEtRNVNObC9oeEx2TnhuUXE3VnVrVWxDNk14Q3phJiN4YTtNeWYzY0ZscFZSZG4yUXVybGhVcXBEa0UrUjlrSGpDbEZJUzhEOEs5QTVRWkFWVWdSYmFCRmtPUW5DaXRXMEIzSWFDOEMvVFdBaUpEJiN4YTtBZ3RDRDhpcUMrU1VFU0VCQ1RsRVAxMGltWlFUU3NCSWc4Z0JqYjAydVl0U01nTWp3aWNpT3lpdUN4akYyQytVRHBTMlEwWWxtcGRvJiN4YTthREtUTTlFS2VXNjRhU3BLeUV0UVVIekhzRy9yRksrNjJPYnpwY3NLRmRJY0V1allENzlQWU95N1VwYngwdUdsTFV0TGxreVcxT0ZnJiN4YTtMZ1oxWEFoeUJYUzljS0E3K1ZuNHAwQit3WjkxKzFSV3FaRG1FS2dJSFdNK2VUYlJlWUZlTU9HNjhMblBpL203T3RKbEtYell5b010JiN4YTtYRnA5Unpxd3VXZVNPeVpiM0RIWkxYRkpDaWVXY21GeEo1YkQvVmdkVW1GNndwdkZuZG5vMFBLNFU0dTV0WlJyU3pndW1ZdExsTVFoJiN4YTtiNWNvcVZHS2YxclZ4ZUYvdE5kVm5CVmVKVHBrUGl4WCtrdUZMeXNrWFNFbWoxWkNqdkNVQU1XMGlqWjNpWGRJMjJET1ZIS25zalVSJiN4YTtsM3hlSHZtOVdCRS9JUytSTExFc2lTeXBLazZRR2FWbGxYWmg2WlFYWjJVOU1hOTlHOFZaOXNLcVpZVUtsUzM0ZlpFMjZ4Y1dyN0pJJiN4YTt6dXNRKzlVVmpaNVd1bHBSUDIxWldsckpxS1JPSitVbDRZVjVmbGdKNVF4eHpPcVE0Q1hlTDFTVEhpOWQ4aVowbkhhYlhBcXNNS3dtJiN4YTtraWNIUTB4T2hvZ2NEU0ZIREovcnNreVE5TG5mb1V1K0J5Z09yNHY5WkxSSWhjNklSRG9rUXNJNm45d1N6REhScDRVdTVwN29TQmRGJiN4YTt4dHdVRG5rcW1LOGk1UDRLOGxpUXowSjRMVHJjYzlFaVRwSVNJNHVKcVVYa3dOQmNHSTcwWWpBL2h2SmtvQzhEMVJOWDgyYVkvb3pZJiN4YTs5R21RaXRSMUNud2FZYUZmZzNrMjhuNE5ZWjV3SjVVRE5JMC91aytqM0tQUklic2lnNDdIcEZPQlVrQktRSWZFTzhyeXlDR2g3RXV4JiN4YTtvK24wRWY4M0tDeStWVXloS3hTTm5tUG9HMWphV2xGTEJTMU54UkFLUlZLa1RtQ0h4VHJFcGFYOGlvTDUzd3IvRnlwa2JsdmQ4a21OJiN4YTtFc3NTOFJMSUl1eDRwazJMSCtEWURubDRXV0U4Uy9jNlVhQUJseXBNbkN1WGt1NUdVbzZqek9sbW1pTklPV2U0RkFHQklZUUQ0NjZDJiN4YTs4eXV1SDNLdXo3aTk2MmhNSGhzUzNGM3dkY0hSQlQ5SE5ZVDRPUHpmNDV5OEl4azRzRk9IYzI3azNaSGszRDdaRG9KemQwbHVNTGR5JiN4YTtTbnBkeEZsMW1HUFdQUWY0ZFZ2eTZ0VGcxYWlJK3FTWXVzU3RoWnRNWjlhbzBrYWs0L2lNVVR1Y1YzZVp2Q0p1blhGdUhYRnV6ZmkxJiN4YTtSeTVvNW9RV3pxV01aSVJhV2dnaXp5RkcxQ2UzWVpkemJYUXZNYjRkS2ZjU01GWG1rZTRRNzg2a2F5a2s5dTJUeVVOT0pWVHkydHlaJiN4YTtsSkJLaVBZeEtvc2VxbzdrbDJaeU5TUDdHTHJLK1MvanMxMHkzNUNmSjRLZk0zdUpMdzJ2eHdUOXJ4RG12eFgrVytFRktyUkRJQlRXJiN4YTsybEVMK2JpRmZPUUNEMjl5ZU9oQ1I4WTU5WmdQaFdwV01ReUJFY2NnSWhsRS9KT0lnT3A0WFlkQ0dvUkJXR3dPQ21NdzQ1RTBWbVFVJiN4YTt0L3VZeFJjNldsQU5DNnZKQmRhUUI4RlRvVFU4c2lZcGlKTHFoajNIQ3EwSmlmUEY1R0xYQTJ2TUNDa1ZVUk5MdHdOM1BEakM5eUJEJiN4YTthVlQwWENMZER5SitSamtmZk9sNGlIa2tWTVlpb1J3Uk5NUGpaWmhMd1k2QTZvZ0lHUm4vcEFmR1pUd21qdUxoSEFxSVkrRndJUStGJiN4YTtZOEZ3TEJTdUM3S3lEeWlBVStnRE13OUJPc1FVckpHQnlHMkxnSTFPSDFERUErTXZ3R1dVQ0FSTzBrMUJmcmRBem5aQXJQZTZmY0FmJiN4YTtqd1EvVzZqQ0phb1VCR1FMcEhFSDVIK3YxMGZjd2tuR0NDY01QMEpQQ3JwdjIrU0RodWZNUFp2M05YUUtpN1hheE8wb1VmcWlPQ0tRJiN4YTtTQlo5SGNMWGluSUxoTEpFV29sWmNRak9yS1N5S0tlTStKR1dwYlJreFdKWmp4ZXVuRG1hd1NCV1M0ZzJwRU1pNUNYaWhVdDdta3MyJiN4YTtueWtQY0tRZ1I0YzN6SDZFVGMyVzdZUU94L3o4d2ovcWNRVHdDUWxZQ2FtUXV1Q1EwaFVUWmlTRUhTbGhTRVpZd2c9PSYjeGE7CSYjeGE7CSYjeGE7CUNtdUYvVEM3bmxuNmZZNDlMbUdRUjFqa080aEt2REROajYzaHNkVytoTEFySlF6TENNdGFoR2x0d3JZT1lWeVhzQTRMcldzNDNCcnomI3hhO09CTDZYQmRsNjUrUlhEbGxPaXR6NWpGTWFSR0t0Z2xOTzRTcVdIb09ZaXlXUHVlS2hMdkVwS2hRbkI0VnBra1RiVFB2SU9JYkZiV1kmI3hhOzBzV0ZsQzZyaitPNTRZbnA2MFZ6Snd0VDFaZEZ1TURZRDdlMmNmWFA0WHlQOGI2VTg3K01JM0tiODhFTzU0VmR2alFzb2cyUktYcGEmI3hhO3pHR0E0Y1NNUHlLSFpEeFNEeWR0cVpCU3ZnQkxvY1phWEtrZWpVanhpQTVub0N3bzBRNUw3TkRjbTZHSklqalJERTlNUkhTaW80VW4mI3hhO212NWRQVXd4eklVcFpsYVlvZ3hVZExoWDF6Y0NVRldVY2lhOXJkVXh5aEZuRVdCQnBKd2ppQ2hsUFVZNUg2V3N4eW0zT2MzMk9LVVMmI3hhO2hUcWNOQ1BPcHdXbmJuSGFZMVRYNTlUbWN3S0xPTXNXVEx2RkNRbEl5RUhxa1lRVGNIS0pPWmxra29OekhpNjV1QzlwUU9BK3cvcTImI3hhO3c5Q2Q4M01WYXRJa3VMc3B3aFJ0ZzRiYkRKTTRDaklma0RxTmZTL0NOTkxBaTBGQkNjQWFTZjBZTStUQW1nSjF3RTM5SUk0enpQSnImI3hhO29oR2dZaTh3R01PSFNyd0k1dGRQUW9yeXdKQ01VTDNHb3pPOHVPa0RVamI4dEJsSFhxTGlScjY1bmxGNERhNU5abUFOb2k2Vllsd0smI3hhO29EVW1DNlJKaFBvVlZnOW9tYVdrclBtb3F1RTdMaUE3OUNqRmxGaWZNaE14WWlVTVJBUUxqczVYbDE0V2k4QWVURG9PMHFnUmgvQkomI3hhO3JJUG5LM2NFb1ZFY2lKUllNMW45MWlwaE9idUQwZVJ3K3RkdFIvNEY5Y1lpSEtjd0RJNEZ3WFdzSUxpaUVEZ1cvNGIrZFRSdWU1MnUmI3hhO1E3NXZFZnJHQTk5azJKc0llbU1oYng1NUs5QlB3U0xkSWhubHBzVzQ0U0kzdW8wRENtL3JrWU00b3dYdmlMc1ptSXVCK1lMUnNjRDgmI3hhO3Z5NndYK2IxVGNtRFFMNERERWhCUHkrTFJvbjRtbmlmZXdqRXluaUlmZ0h1ejIzeGdFTU1NR0dMNDIxYUhCZW12NHZXUWdmMEwrYTMmI3hhO1ZWN2JObmx0Y2FXVnhWdHdvU3JFS1JlbDZ3dVB1UFRQZjZsQ3BqajBlS2tUMUNFWFBmSUJIQXlhVWtObTFtVmZMcHgzK0RLNUNENUkmI3hhO0tJVWk0YmFrWmtGcUJtUkhXMmluN3gyNXhtNnZ1dHZyNzZtMTBLNjg0Y2JpdTZNOURybExYL2x0UEN0dVArUlYydXYwNmptNTJVTnImI3hhO1haNVZrR2llK3Vxd0FPTWU5akRUaW9DUmhBMERkUG1LUHh1SVcyam9tOGErVm9waU82bzlYVXNDRVp6bHNRaXJsWXQ2Nk96aFd4VlcmI3hhO3VVNUl2eTdPcURQejZWSXpuMDdMcGxPcGROd240TWhNdW9vWUJDc0VRWGtBVk9xY3NQNGpSeHIvTFprdW8reCszZXJYYkg3TDRqZnMmI3hhO2ZZZXJscWExWDJUclYxajZVbThFcmRHcHNQUEp5aWRBOHhqQmxKZUVsNWlYU0JaaHc0aFZmZlVqMXRoY2xrT253Z2w3c29nRlptNnEmI3hhO0ZrUVY4bmdNR1V1WThDS2pCbU9QR3pseUFUQy8yT2NWUmhWWmtVWE9rdEFpR1ZhVVl4MTVKaWQ1a1IwblpEaW1DZEJwVUZuOFZZc2omI3hhOy95eUp4cXhSREJicEZQSE44cEwwbHhXbjlGRmhBUFR5NGxBY2YwWFJJeUtrTnlTVUJsZmVBZEtTYmcvVDlQSWtHUW52Uml6SVNkbGcmI3hhO2JlN0trSTRNdzRrbVRMRlkraXd5N3F2Z2ZncUhiTEtlOUZKNDBrdGhlaWdpMGxSajduTVRYZ3J4ZjhiK1pVeVRKYVFpMjJ6ekJETVImI3hhO240V00wa3dzRTNuR1BjNFZSVlpaaTJVVUErMEZEakRDbUpnZ3NzQWVaMzhoY2I0TXVGNlhjenprZFN5dHJFczh6cGQ1WlMyeW12czgmI3hhO3J5eHlnS01oUCtzUUwyT2NURTh1NndQWUE3SjJVNEp3bDJDSzBFUUl0Z0ZnZlFBUkFnYzYrRStrRnJvaS85U3QrSGVKL0NxcVVQeUkmI3hhO0NueisyNWU2RDB0NGpVbGJFNXhJY1NXbWlmVC93U0YvNVFwTGxSMDlLZGpUMUx6UVdpUFJNenNMbDBiMGhSR0hyNDBVcll3VXJJM3cmI3hhO3BaSHlhTG5ReVFYTTVjUGx1c1pLaVd1c2xnUXlMZzYwRStaSVh6SHJhVm5TazFNejYwbWxNU3hKZVhKV3kzbXFUbm1pSVhQN09xT0UmI3hhO2sxaG1tZkU4TTVscEpuTE5STGFaeURjVEdXY2k1NnpuOExRemtYZ21VczlFOGhtbG44azRzSTdNUUJNNWFDSUxqVnZvTFZkTWlwZ1cmI3hhO01UR0pEUEppa3lPbVIweFFXd3NZRU9FQ2dSRzlWNVFwbzdKZnFpTDdDaVA0bks1cmxwSTR2bncwWDBsTW4yTUU4MUZBWDJsSkNrcHMmI3hhO0YwZUcvcWxnRUZVQzQyOHJOSkNwclVMVE1wUlA3ZHFUNm1uQTR4Vjg0MDVnS3JLT2RsdjU2eVB5ZU5oM0lrbnNjZTQ2RVF6QUlSNlEmI3hhO1NIVXRzNHBLenpFNWhlQVcraDNpSG82TXRPMFI3ZWpiVWRnQnQ2NTJCVDhzK2FVRkNCbFRtSTlQUHEwdTBWdkt2VmtlajlucFVLeU8mI3hhO2NtUWhMUWszVmlKSkI4akc0ZkUyU0MweDkyT0pYRTBranBTQ2FRSk9ERjBpQWtFQUFYR29Ic1hIWk55QjVUdmt2K3JKdENwTXFoS3gmI3hhO2lzaUhNbHJEaUlnRG9RTUwzVmNZa3NpZFZ6eWtSYVIyQklIbkFKZnBrZmNxNCtHSHpIdkZRbFphbE13UmtQTUtTWVNGcUVRQVRGZXMmI3hhOzJaZGtCeFNXNnFjbFdRVkJydUt5cElTaSsyRytoOHRMZWY1RHJvZEZUb2x5b2YvUWNWRnNSVmFKSzB0U1VXaWh4N0VDN1plRjNDOE4mI3hhO3ZYZHFoTndYcjFnWHIxdDNuWXBsYkx2MHpVSll0cG9mWTdrYncxbk5qN0hjamVHczVzZFk3c1p3VnZOajZHNE1YV2p5ZldGQXdTUEYmI3hhO0RyVTV0cmNQMzcySkI3SWdYMmZCSzJMN0Z6VFF4TFljYXV1bXRpTjM1U2oyTWJIbFZybGZFOHlOV0ZGVjJ6WDF0VDE1WWtkYVZOVWUmI3hhO3BzeE1jU25ZYzRmUGtNTVRXa1NNaVd2c3RWTzZ6dzdNbDlleXQySGlDNXdabjdpMjNJUXB2N3daeXFpRlJFWXF0T1JtVE15a2xRdWMmI3hhO3l1cldiZTQwWjNQYndRWjZvSUVydFJrS05mQUxRZzFrd0lIZzFJSDBFQ1BqQ2luNk9pQ0c1WE52cE92YUR0cTFXakQvVDFmSTRNcEUmI3hhO0JwdUh5SkdyQUJGM256R25tcm15d0Z4eExQaURpUmpteFZPUmF5SDMvcVVPZVFVejhoVXk3eUZERXZJMGt1dVIxQnpoYlVsb0lTK1YmI3hhO3Y3SG9rU0lxWHFUVDYrWktqLy91VWRJd2p5WHhORCtObDRzcENXZ3RVZHpCMzZIaHhlSEZrWDhtV3RoSlNrdVM2azVXbkFKckJhZVUmI3hhO0xCRmg2UllzdGFrVnFKNWNqR1BCVzEzNURJckQveEFMVjMzdE0xWEtxczZYbnFNbEtodXJXMGJHc2ZCbG1jQXdJOTBaZEYySFRZVHMmI3hhO2pBeHo1MHU0cmY5ZFI4bi9jeFV1V1E0cnk0Nlc2dlMvdStEODcrMkNReklnNWRrR1BIUE1jOWt5dUVvNFlNdmVrVnh1NWdJaTR5SWgmI3hhO0xVaUIwVGRjeWUyeFl1eXVJdmRWY2JSdFZWcmFQaXI2emltNmMwZDM2ZWd1SE9tbmNhU1RSbmZHNkltVnVnZEc5Ni9vcmhUTlplS28mI3hhO1pNcGNPbVZYcEZOeVQxbTdNSjh5TVhNcUhSN1FHc2hFbkh4cVpaOUh5V29KbGxaK1phWnlMRldxVHN5amRVT1picWtTZDloS29Tc1QmI3hhO2VGVHlaVmRMd0tTRUhvZDc1ektlMlpOeW16TG1DWm1SNlZaV0MrdTJIYTZINHB2QitLa1JLdEJpWVJPbTUxbDRuODNnZk9HSDlxU3ImI3hhO0tqRFVIYkhNeVhkTUVRdWh5amN0L05QQ1I5Mld5NnBkelZmZGt6cUs1aGh6cENmTWRuYnBUaXpOaldYNHJ2SmVxbzRqUFpHOW5FK3EmI3hhO0xCSGNUZ00zRXNBZHZpQnFwM3licWQxbWJyWVplV3RHM1FhT0VYSWJxcEJidm9kbll0aVVvdU4yTUlPU1JXYUl4dHJGbldwcXpSVzYmI3hhO3hUMHVxNUFOMVNRTnNTMHJLK0t1SUJQK3I4TXBSam1heEpKNVBrcUkwUlQ3cldqS3BDN2EzUVArWUhJODVLcTF4NVh5bmd6Y3N5VjMmI3hhO3lGbDRjUUFmRTk2aHd4a3drOThzVzlHVTNxYjhibXZoZkpyMDVzSzdqVnNhQzltZGw5eE1ib3VsQWxOcW84d1d2bEU5d0svbFNGbXQmI3hhO0pIV1BNZ2FabEdZeTJ0eDZLcE9oZmdHSVJ4WHFSd25jRHM4RDlFZ2VkMlR1ZGtUeGZxN2NEQ2VqclhCQ0xucDdmQnNja2VEbjgrUysmI3hhO05rd011VTFEWlgwbDB0NWlvcmJGeGExWUEyL3gzMEpmYjlQS3Jsb00xd3dzeDdLMjhyWVhzN2JNVmZJaXk0RXpDU2VYQUJEeGw4S0MmI3hhO29wNnFOOFRYb2FoUTlNTHVXeUJSVldia0d2YWoyelBzS1pHeDRNaWtCUmE0MHUvbGYweGJWWWNqZzY1ZVVvZHBPbWE2NVpwK3ZnSDcmI3hhOzRIK2xRa1kvZ1pINUVob1pNS3FZT3dXYVFUS3BYaHdMR1ZwV2FSdWxrM09ONkE2UkhuZUhDRG8xbkFHdVVid1NRaldkSlp4KzhpUVgmI3hhO2FhU3BGek9LS0xXS0NJamxmNWgrazdJZDBvUWJ4UEJYbUVQak1iMXMrd25sVXk3ZVZqeS80WE5sRU9PLzN2OVZ2UDlGUVl5OTJHRUMmI3hhO2h5MEwyOHZCcnJHN29SNlMyRFBXelR0YTBiWTlkSXhkRHpPajZKRjBpVmIwUFE4anJSaGJGcFp0VldMKzZJcG12eUNha1RZd01kYjUmI3hhO2pWanVvbTNUV2thVWMwR1F0Rk93ZVZyWnRtbkxWZ3VwNDRxL2FlbEVMam9FMGdEMHpOQ0xNNStTVUVJOEpJdEMwOEEwd2lTVU1FbDkmI3hhO0wwazgxRTNTZ0IzVWxhV3V5c3FKNko3YzJaWHlVWUtTN1dYL2F5MVMraytXUkZucSt5R1FWOERxUnNzVDg0L1FzeEhHdUwrdEMrVGwmI3hhO2VrbVF1V0VLS2h1bDNTU1JtNFFCS0h6QUpQQWQzMGc1d2pRbHowakV3VXdtYTN0YjJabFVHLzAzMGgrMjh6QzBBam91SUJCd0dEL0UmI3hhO1dsMllHZy8zVm5YakpJdDRJaER1OXl2MzZJVTJNWGtwTlRidWpWVGxzYjZUOEQvVUFFdnNBaVFLNGFYSUIrYWFZZVdlSDZYd0h4am4mI3hhO1VlcTZsRkFGRERpT0FJZEMxNlZYY3NpSGNFcU4vQ25zcFpsaEpac090YkY5bmVacDVHNFFSVDVXNHJsaGxBV3Mzc1RGaFVlNGsrSGMmI3hhO1oyNEVjeDZIaURSK0ZMUFREYUUvMWdiTXFtNWZwOUIvcG43V2Q4K05VK0MxRVM0R3UvUlJGQWRnallFUWRURm1saW9IZVEzL1l5NmMmI3hhOzYwZUUvMkFudVJsdVo1Z0JPaEEzTUNrZndTOVRCTjJNTnBkV0NJVzRWTFF4OXpmU25WVlM2dllXdytHNDBSN01HdHZidHgzekVxb0smI3hhO3Z1WTVTL1lwUy9xUkxIMWJvM0w0c24zeFpoSHFsS1Z2NzV3bEVkZGk1QzlMZGN3WHgraUl4WDFVeTc3V01VbmM5NmZyd2ZvZUlCMCsmI3hhO2VYejZIR3NHN1lOMXRIVDNiK3lZSkQxYlhkOFVSTTJ4Y1pnT3p1OVhQT1ZJTjBxcXpqa2lyMmxvblZsbFQ0Y0lodm5XVGpuU040a3QmI3hhO1Arc28weWZucXg5U1ZMN1Jqd3BtNTRjVTlRM2tFQ0hzc1VHdjM5b2hSVDJhdzZBZ215U0FTV0c1SkIwdzRmQlkzWkRZWGZhL3RHcjcmI3hhO2JaNUhzL0s2N2I5VDh1K1UvQnZic0N5MlFWOU41QXZjNWdiQ3ZoeHpYNjVlcTNRU1BhRkVwSlFFWWlOS1IreEV5VGNPem05RkthQWkmI3hhO053N1dZQ09nSStBREVISUlSQXBJZmJtQmhBNG1CU29DbGtSZkFhOVV3Y3ZSQUthRHJIano0T0lFSVNNV3hOR0NRZlJRRURNTVJBc0MmI3hhO3lXOUZ3Y05BbWVMRjkvTXN6czBSV0NYd1NvZGZCUVFabXZseSsrVStLUzhNM1FRc0dUUUYyZ25FczZFSjhIUTRDbVk2V0VuRlVuRHQmI3hhO3l5MCtkZmlxalQ0RmpBbktiS3Nxc2Rkbnk5anRVd3UrNFNEdjhmTmpCTlJUTXdRSHZhbU9qTUpwYzUrb0dZbWpwcUVyZzNIa2ZzNTYmI3hhO09JNUlqTlluSWpOUTJVUm1qNU82bXBDMjNGK1Y3YkJLMCtLUWpyajZ0S2o5VnZuVWlEMVhuWUp0VjlWdTJXeHFmSW55UmRNaWp2ZmgmI3hhO0IvdzRmQXRXKzRTZmpKL3hJeVpHeFVXcHFiRmpvMmhxbU45YkJVaXBqYlhMSmtiRlNNVUZVd0pzQ0ZrUUxsS3IvV2NTTFhHbm95WHUmI3hhOzZEdlBpTHlkUUZ1UEJwQTVCQzlhanFieldCaDhCR3dVUzlBWlFuVytvQkVkRnJEZGFLM2g2N2daVytlMmVQTGtGdTQxZHpRM3VlNGEmI3hhO1Y3NXc1ZnV1OW5mejFkVTEyaE1zdDNzTm0yRG95MGZPT2piQjBKZVBuRnFiWUt5d2dPU3NaeHNNdFlEa2xLMGcxZDNzMHRycjh0OHAmI3hhOytmYW1aQzJieGFoSmNkYXpXWXlkd25QcHpXTCt6MHlKdHVUbmtiYyt2ekJuM1cvUEhlMU9rRFZCSVlqRjJ3VlB5TDJ2M1MrdWVVVm4mI3hhOzkvbGtQbHlnbTV2OUFaOUg4akJIRVRzaHdwdjBXR0w5SU1kSWhxRVZ4aE9MYUdLbnl3Nnp0L0x1TzVvZWFCZ2pVZz09JiN4YTsJJiN4YTsJJiN4YTsJeWJDTkVaVUhTM3FGUSthaHgycG1PYlFaejUvMUtIdTJ3emQvdzY5Y0NnWExDcmQ5RTJGZzhzd094MnZ4Yk0vYThRazFxY1pKR0JtWCYjeGE7SkZ1cnlGUTlPalhONVZIclVhcHRGcVhhS2NnY1pLc1NZazBpTnRja0NySUhzWHIwbUtHL3pJandjR2pEbFdXTWg3R2RQTk5wMTVFRSYjeGE7N1FMd2laMVVpNWhPb0RtaVRiWWpHVTlSMW1CSDJ4YlZ5K2NMcW1SQng4b1c5R1dtb0dKRWloVXBadVRMRFhuVS9xZkVsQnk1QzA5ZiYjeGE7MndCVjdNRWpkaGRPK0s3QytpYW9YYm41anRvSEZWaVdZK3kvbzBkRzhWQW9rVGtZU1Nkc3hQZktVLzluOHYrVy9GODVaZHM4ZWEydiYjeGE7L25mSU9TditWd0hlRE1mRS8yd0ZMT2IvTTd4ai83ZElkVzJyUlJlSGtGRnNRa0xoM0hJVEVoYkhyWHk3NWo3dGlWeWF5VFNxNkRDdiYjeGE7YjRlMGFiNDhBUDk3cEdXekdHMWZia2NpdGlReGorWVNZZGw4SGNmUk5uVHZJZmZSb3JCOXNaNUFTcjRJdnhhaDF6SGY3Smh0ZEN5MiYjeGE7ZTI4N2ZLL2pMckU1RVFUWFJ3dkwyQUJlclR5SXJlRFZkdkFwTVU2K0R1SHdwWWlPekJ3MTl6cjJSZXlxd0E0VkhLY0h3L0hJdDRJSSYjeGE7TjAvS1FTMkF6YkhpMlBKUmEzelAzYUtncy9xYlMxN2k1OThLQzE3NG1wbURGWGx1eHY4bFdXOWwyMGdJRG1lRzVPdEZSbjNwYk05bSYjeGE7ZG5wU1MxZWt0R2diSzZrVnk0QUZ1a1Z5NlRLVngwNllHeXYxalUyVmtKZUZYT0NxblpUNERrb095OXduWHVYS2JCS1dQWkx5UGM4WSYjeGE7UjJMcnlpSUZKS1NWSzhGbTJsd1E5eUxYSVZZUzBnSld6RU1Da0VmMGFFczBsM09GL3IvZTlXL0l1LzYxTXdlRnBoOXJTU1l5elVRZSYjeGE7bUNWT1hHOXJPMXFsUEJGUXBBRFNFZVMrZGx5V1NQanJhTnRiWlR6RlR5VDNpVTJ1MURaWGZlMUl4TFpqSEprbGt2WkVwa29nOC9SYyYjeGE7bVovWGxYbDU2c3hEZFdwVzZCaEhIcXFEczBTK25UZzhTeDJmbFYrMzhIU1h1Mk90WEtoZHNkUXhXc3JkSzd6dnhlN2VoRGw3WSs3dSYjeGE7RGFTNzE3UGN2YnJETjVVT1grV0pOMVkySE5NZGIzbmpBWEZOQVZHK3h1OGIwYkY1bG15d1k4Zm14MFl4bzNRem81aWJNc3VJWHowViYjeGE7c1dPbEpKcUppVnA2b3NIUlZhRWZSd1lsMnljcm11Y3VtdWV1UjBheFRvTlBqR0p1VFdxR1dwdUh6N2VOSXVPMkhTMEZzbXVsUWxvcCYjeGE7a1VaaVpIN25NTDU3bUZPNlpSalBMZFJ0U29xaGNMbXpYam5zUlc1a1Y2NnJzQ0lVOHZ6dXUzeFhNVWR1dXl1OC9NTFRyYmJjZGJuUCYjeGE7dTYrRnMzZWtCMXlzMExRWUFCMzZ4OWhhbHdlb3h6dzhYYmpJaFpzY2Y3TW9kQTl4d29vODd6cTAwTllsTkd2eHd6SkZubDZKQk5JeiYjeGE7NE1UT1lQM0MvRGRQQ2gxdDkwS3gxbURLbTZRd0I2N0Z4WXc0enRRVU1xbWpOZzR6cEl2WStWNHRRM2I1Wm14aS8zdDJOTHc0OWc2RiYjeGE7Q1IxZTZzaDk4THY4L0ZLVkZhZm5pMm1KTHZta0Z2MWFiSUdSeWUwd1pDS01VN0J4aUZtVm52bW1aOUNvUkRZam9jM1JVdGo4NnFRMSYjeGE7bnBPbWR0M29heGxwTWhQTjRhbG95bE9tY3RDTWhSaVI4MEFaRGthZVEvRlo4RzI1d2IxTWFuQ2tiUzRXYnZTOGh2emV6WG82UTJFeSYjeGE7ZzhvQ050ZDR5amRudjVqNlQ5QW8zS0xZUEo5SmJWSGN0YzVrOHFTVFJMcEpIT2twU2VRWlRPYjVTMkxMWXQxbklyWXREbVM2bVhTYyYjeGE7T0laVnJPMWZYTEI5Y2Y2QUpmMXdKWjZYNWZCMExKRjZwUitydEw2MUQrYnVjdGJsWmhkZWRtZGRibmJoWlhlSzNld3FtOG5PWXFxNyYjeGE7cFhyQmh1cU9rWjlVdHAyNm1ZcGtweDhaWk9rVWJLUytiQnYxa2szVUZla1ZiRG1vQzlyQ2MxdmFsR1NNZWptZDJhTHRicG1RdnUyVCYjeGE7aXMxMjBVaHBiMHM4b2dVVjU1WkRaOHVHYkZOTG1IUlVnaU9VVzF4bVpiUVE3Z0VDbzVSS1VENEJRcU1hbXFBNEFoekZaZStJamxvaCYjeGE7SzhmaElURjJnSURIeDJ0SGNLZ0R0bHY4MEM4UnljRks1UERZZ1pEMk1mQkZhSWNXUWlEaU81Z01hOGxRZ3BUNzdkZ09DNUVJSzNESSYjeGE7YnZKcHVnSGd5dnVWeU4vMmljQnN6aG5aTThPR2JidWhEdjlseU5nWGlmUU9OMkhZL2lUTWRHRWFFRE5abUtXU3lseDZzazk0dHFhKyYjeGE7V3dnN2Y0c2Z4aVVPWTlkM0M0bTFPOHhKblVnenh2NWIvYVpOUjh4SDZ0K2s0RFB6WC8zZFdEU3ZqaFprSncwK0ZFc05iTEVCa0JXbyYjeGE7S2lSVkY3VXozTE1zSkhXdlJhNE5sZWNRazR1Vk9UUDY1TWFRdVEwTzkyQXdUeWp6Z0VhazZLVGs2K1R4MWpMVW1zVzhzeEJyRmw2TiYjeGE7VTlZbkJSRERjUlBjWHdCWUtWQW9zdENFN0xJdThVemtseWxKb1Q1eHlKQkdqM3l4UjV3bUpBdFQzODdkZ3c0bkRwZGZMWkpaS0NwYyYjeGE7NG4weDdlcU8rN3FqRUJJQ0NGbVpFRHN4U1JxMU13QUtGeGMzK3pMRVN0R3h3Zm8yRkdvM2laWVZUUit3ZmVTSU8zWUovQjQ1bXlJLyYjeGE7Y1VqRjYvREVoWkRJaFRtVXV0U3N6OE9mV2ZCemp3TS9sbUJ2QzdDVHpFT2Zod3dmNnZFZ21KYXhMWVB5ZTdCSUdFYjB6T2ZoU1orSCYjeGE7Q2d4S0hJMkFWYmhXbDNzOU1tNCt5SWdnd3o0b2lvbEpIRTBNWUdJcUxaL1h6YkVwWGt6UExhYzdGY3VDVlpLK1dOYUR0SGR5NHQ1TyYjeGE7WHpZWDFrMlpYM0Q2cW1Oa3phVDZFaGNULzFJQkVDcUFlUXFyMkFWVEh2WG55T05ZYVI5TUJsWno3eHQ3MXh0OXd4dDdzeHQ5b3h1NSYjeGE7eVkxajduQ1RPMUZTYm0yanJhOVVIaVhwYU1rMTVtbVM4anhKYloyRkhTbXBIeXFaOHQxK3hXR3J0T0tTWDNQaFowekt0UmRYT2dQRSYjeGE7OGk2SGloQjlQQkVyWW51cHh1b0VTaFk0cUFJR3pjaFhUM290ZTVyZnlJamJsUEdCbXJ2SUlkN1lzWHhGY1Q1bWs0YWdJbUQxaGZwRSYjeGE7UDVEZElUTFhvMkZOV1ovbWdnTzF1RTFpQUNwd2s5aUFvNFVJYXZKY0NYUEQ4eUQ4RFMwWnk2bE85dUVuK2ppbVQ4RTY4akh4ZkVDZyYjeGE7TkVVM2VVSW4vZ1ZSNnZtWmx3UVJrR3BBeVplb29HWEFVNElZN0huZjUvblJWczUwMDlNVE5NT3lITzMvV29zc1I5dkRLVTR4TFRJSyYjeGE7NkpoSXpKRUZ6cEZsWVpRQ09LazFaRFdvalNMQTRUOXFMVER5VFNrSk56UVNvMVZyVWRKRWlhSmxZdjgzVy8zSDhuYWpxQW1pOUovTiYjeGE7M2VWdHNBQ2Z6SFZqUVBvRWM5RUpNK0xJU3lPUS9VQUJYcFpRQm0yS1NiV1o3eUlEby9UMUpNRy9vREhBL3dBQlpoemZHV0w3b1pzNyYjeGE7NUxNc1lUYk1taUd3RnkyKzZCdnFGTVBvT0FTdEJvL284WEQvSnBaRUhNWSt0STg4SEZzUGd0UUxNcmlOK2dzNzZ0T1BRQkhGemZwZCYjeGE7MEFncFdUN1hlcFpMOGkvRXZEQnFCRDVsbG12NC91MzBhWlVRc0o5T1JvdmgzVVo3UERqNmZOc3hMd2xKdjJLK2N6N2oyZERHak9ERyYjeGE7MERGQ2pjUkc1VDB0SFZOUHhmeVc4cDNUd3UzTWk4OXNqblg5emRGT2JEYlBiTFpQYkZibk5YZjQ3alJmS1dIYXl0T05OTld3SUUvWCYjeGE7c1ZCQXFPUWloS2FqY25TL3NZUnBNeiszQ0ZWc1JPRUJhNDZoMDBlNXlMV2lXR2F1Mm4vRmpPdVFLL3BKWmI0MTZlK09WTjN0Zkd2OSYjeGE7cFBkdk1lTmF6V1p4cnJXYTA3WkovQTYzMUJUNUYyMTRZSjFsd01qL3E2ZHNGeWR0NjZ1d01tVmJZSmZDTHpNMDVsdE0yZTRTSXZneSYjeGE7enJSRmM5MlhCd0NtTUo4ZE9nRFFnNm1MYUxyd0FNQ2VROVFuenYvTDZBVEFIai8vTHlaKzJ3WSsyeWRma1g3MFg2L1QvNHJ4Tml0RSYjeGE7M0RoeXU4ODFSZHo4RnhPTUx4aHo0eXcvd0swczV1YmZPZjEzVHYrTmkvdjI0K0pNenc5WTZLQmFRSDg4akdOQXV6Wk0wc2lIUmpPQSYjeGE7RFpsZllMMEdVUnBFSGxqOVlNemhYbFJnMzlIT1lYR1laajRhYlo1dDJ4ZmRjWTBOMTBvY1E5OUtoOURLNXB2SGVWUUtOdmNxZTE1bCYjeGE7ZmNLTmc1ZlR5YzVzTkZtTUpwODJOeldqVkgvZ3ZEekRKd0Y3c2pOWUxJYXpDVmlycmYrY3o0YU5YWGhqRHNhcWZ0WHd3ZmhsdjZLVSYjeGE7LzZKZXR1ajMyNy9ZeFJEK09hYy9QZDcvdDEvbzhpbjgrVHZjL0F2RzMzalJlUC9CYlJ5ekwzZmhIMVg1cWJpaVZwN0RsV3hPWGRFTCYjeGE7ejQzdjhHcENGZTR5ZDBFVUE1a0ZDSHlZczRBOFJMR1hKVERUSG1WcG8zc0FwOXpOd2pnRFVrQlBFam9NZ2hCb05Bc1NEd2lFTmlyVSYjeGE7dGtGenlWbVcyVnVqUlpaRDdTM0N4R3NtRVl3MmJMeUFpOUFWWXpnVlZ5RmNnWGFMVG9Vd2RMTUczYVNoMEY5SFdBVmNSWm5IYm9UYSYjeGE7TjZHb0RkL0NpemlGU3J5d0liNUlZbEVaL1lXdmlYYm9CdFVvUGxLZHcvZm1vb055T3VpS2F0YTdLM3RyZDViZkV4L0lGMFZmcVFhdCYjeGE7cndVRE4yQkN2OFJINm1XanIvUkw5alZ3emI0cUxKRmZpc2JsRU1RM29kNFBnck5yZGxjaG9BU1phSWR1TUdpNlduZGxkWE1EbTAvRiYjeGE7bFpoVitzZ1l0UUtJbTRNVi84anNDVjJKZVJVZnFSbVh5Q0Nhb2h2MHRmaEk5Yy9vc1VRR3VoSnpLM3NzTzJ6M1Yzd3F2akJuZ2Y0USYjeGE7VTJ1TTBSeStBUm5xZ2ZoSWRjN29yc1FIOXJKcmRsY2htL3hTTks3Nkp6NHlNWk9CMnpWN3JNMTdhdlZZZ1ZOOHBGNFdQVmFUY0NxdSYjeGE7eE96U3JCZ0RWN2laNXNBbHVJUFJFNVBVVXcwbDZCV0pFcUlwdWtHL3hFZnFaYVBIRWlYb1NreXc3TEhzc04xZjBWM0pJSXlKTUtsZCYjeGE7SDZNNWZBTXkxQVB4a2VxYzBWMkpFdXhsMSt5dUlpUFZrMVJuRVRwZk1aSFRKUGhVUXdtVGxrUlRDdXppSTlVLzBlUFg4UDlXYTdibyYjeGE7am80V28rbGtNUHZTdUFlMzdzUC84Ri9XdUhXNzhmWW5wOGRrT0FoOUxzRUxaWHBuY0RvOS96Z2VmQnFDU05jdVNLOUlBdmh2ZlhJYyYjeGE7cXp5bGY2RmlGTWxVdi9qTG96ODgvaStUMXE5SVdrZFpDbXBxREFJWkk3MUlmUW9UTjRoQWRFY2dkZjJNN1d5SzBqbEM5NEpITzV1NiYjeGE7SHVqUW9GdUJSb29yWExqZ3dlVTBjL0puVE1IVEZERy9RS0svSGVBa2twaW1icDlxZlpTZFZ1T1FRL3RJUFFlVk1IWmQ2RnNZWkJtdCYjeGE7M1ZETWJ4eDZjWlNrUGkxaFpYRVV3RHRKZ2l0YmJEblNjeW5ZSy9EOEVONURIY0kxVmg2TGx5SWpZL1dHOWR3RGRBckRUUGFjWDdKdSYjeGE7aDNFelNRUGZ1aElqVVYrcThYZzRualIyVVFGS2Flbko4M0JlSWpCTVBGeFF4Zkg0SVNCNUVORXUxeTVwVXZDUG55WXdHRHlxTVMzWSYjeGE7L3hoMDc5eENpN0hNQW5QTXh1UEJUSHUrUUNSK0ZUWVQwTUliV1JQc2tiRGhOOVBVQzhRVlVBOFlMVVE3L0k2SEM3NEJVR1BUajZ5TCYjeGE7b0prbWdaRHVlQ05wb3A4UjMzSnAwZFM2OXIwbUxoSXpwVUhjQzVzRVZGeE9TdTByQUdvY2hlSjl2QVdNS1hBVDRBbk55SGVqM0dYYyYjeGE7Qk16UG1OVGd0N0ptNG9McEFZTlB3VWpNWFlkQkU5WFZJd1lmZGl0cHVsRWNONkQzTVhKRjh4SVlEWmlFREVUaVZ0Z00zVENBWHVEcSYjeGE7V080eWhlOURuM2VLYnNXZzBNYWtJTVdBdHJuTENNRG1Dcml5VzFrVHZZRU5NWVZ3SFhpZ0hZdHJRTHNPU3RRRThBbjZ4ckZRWElxMyYjeGE7Z2Z1NnVIQXRhcFBYV29QeUh1OFR6SUhSUjNHdGowcmU0d1AzSXlDdktNaGZhNkFUOXdSMG9ZN1VDNlA4dFpvZmNVdE1JWFFWREJJdiYjeGE7ZjYxaGdiekhFY1dQbTJESFJMbHJIZFhrUFlhTThBK1k5bW51VWtObWNVOGd2RThCQkFYWEdzWEllNXlrb0k3WWphTGN0VWFSNGhZbiYjeGE7V1RHOW5KN0ZwVWVvb0VoZjhhTTB6a0F5cEM1WVpGbEVoclVmK0RIY0JOc2NtVDVhWkdEQnBVRkNzUytlNzFQUVFKb2tMZ1ZHQU1kSyYjeGE7RXJaUnVXV1FRMDNHenVVZWx3UkFVY0J0R2Z2aEY5aGI1Q0F3QVdtY3NMR2s4bElicmJnbGVRNkt0ckRnV21kRDRoNEhQTFFaSllDbCYjeGE7OXJVK2VmSWVtMTlBT0V4TnpWMFNnakNrRXZjWUVzV0lnRjRDZkNCM3JTR2l2RWZJU3U4a3lMbnRhdzNmNVMxT0VtSFV4TzNJYzljNiYjeGE7V2NsN25QUkNjcDVFK1d1TmZNVTl5WWJRY1pObStXdWRMNGw3bkpYd3lSV2NobDl5dGhSbFRUZUpwS3dVbC9CeTZIdkFJQU5XYjRMKyYjeGE7QUpoWWNSM0h6ZGlEUGhQakZQZDhqRTZKTVE0bFJScTFyNkZ1a1BMOEczRVBSSUhyNDNCY0YvbXhkUW1qVEZNR2NRPT0mI3hhOwkmI3hhOwkmI3hhOwljUTgwVDFDSFlIU0FUc2dNYzllZ2VIc3VhMFhldzUzZkUreEE1Z09WV0pkQjB2UlRJUVRFdlFEMFc1QnBFZkNiT1BaejEzNEcvRTVJJiN4YTtNM0VQVUNxSldlOHpGSkgyTmFCZ3dQbVl1QWU2U1p3Q0s0aDhZQjhvcHUzcnFJbitPTmFPdU9jMWdUWDRDS3drakwzY2RRTFRIMGNDJiN4YTt6SFFyYUlKYTB4Q1RHeklTRVplTUtVbCtJSGpTV25YejhmU3ZTYU8xV0xEb0VPTVNaREVOQ2hIVFJ5R3pQalZkMUh3cS9nYjI4NXlOJiN4YTsxYjd3Mk1BajdXOWRjVTk5VVBnQ2pNd0I3a3hSYUc0U2hqQ2RMbTBRUk43U0xBRXRsakpHWWd4MElqY2JFSkVIYkJmK1JleWhJelJ5JiN4YTtKNElVczJlbXFDZE53Z21mbVhUc01zSlRSVEpDalFBNEd0aVhPRzgrL3dPblBRVlYzQS81alZqN0pwYlZFUktpR1FpakJ5N2Y0Si80JiN4YTtBYStNL1VHcUYyK0hQMHEwajdUdUhVbEpobFFLMmgyTUdRaWNpYTBFMUhIUXNvTTRZSTVFalBoeTR6aENveUNNMmJreHhza01CRS9YJiN4YTtDT0hDbXV5alVnaFNRRmJRZmhEaXdSN0NyWW8zb0k5WkFHQUNpbzZBYTRNVWh1N2lPejRqV3cvMDRpd002WUd2WHZkRlZjeDlob0lpJiN4YTt3eWdyOFRwd2ZxWk80enZzZ3Q3a3piQTd2QXY4VTZPSEdxQyszcUVXQkxqQXhWSEhIR3B3QlV3TkpESEpVOHlFUUswRlpoellHRUV0JiN4YTtFUWdCaUpDbFlTWWUwK0RrcHdMMnNTOTFWcndSWU5RZTRSQjlHa1JOV1RIOXpYVklhcFp1WU9mNFI2cWZHdXpXRnovSmtDaWdVWVRjJiN4YTtkOEl2ZlJDQ2FZTG9Ea1Fmb0txSUZKQmgzMTFKSGdsL2lUMk1PRXpvSHIrU3J1T0l3NU5xa3g4Uy9iQmFKU25KSnVrTzd3Ny9VT3VyJiN4YTtBc2hYWFFjZ2JJcjU1Sit5Q3crbFMwaVNFNWdmU0RydWpzS3hDbDhjWUJDOVF6ZG9RT0lybjN0VUJUam9NbUkxaWEvOGxOZm5NLzFLJiN4YTt0SVQzWS9tMjdKZUNGWVpTeHFnMWgxa1NrVjN2NFNwZjdJWkpoaXVDQVZueG9DSWtNYWpETUZEeUR3Q3UrUUJMa09pdXk1YkhVajFnJiN4YTsyZ3NMYlgvZklrNkdiYUVFdzZtNkJLVTJERWhOQUtvbjNabHgyb2o5eWJrTVlIdkFiakRHS3o3alZ3SzAvQktVSStBcERmbGRwdXJNJiN4YTtsS3VYdFpleFNkQSswL3Fwb0pmNEdMVVhCYUJ4dTFIQ2xnbnhIcWlBbUNRVnArcTBLUE9BSkRwb0tlOElRZldMYkVsVVAwN2xEV0NrJiN4YTtFV28reUFWOG1FU2NSOUJnRTJTcndrb2wxUWdmZUUzMUFWM3c2Z1Fwb1pibyt3d3I2S09JbHExNGhleUNveEExeHU3d252RlBqWDdxJiN4YTs0aTVJdzhpbmdIdm05QUxnQU5OeEF6OUREeDVKUUZDOGZaL0ZubmxJWm5ndmh5cXBIYlBMNFpOeXJpRTVOYnNCekFUZFpYRGwra2dFJiN4YTsxRitQL1VWamlhSGZDWHNRTmJVUE9POFZESlZkZ3lUM21jaGlIeEg2aUFvbFc1S05zY2VzSStKVHZaKzZsRU5ucHhlQVNrRG1JMXFCJiN4YTtDVkFnc0w0UUdFck1EdURDTUs4SWp4VHo2S2c1WU95Qmh4MUpNWFNBWEhHbUFFTzNvYTBkZUVWc0NiQ2FMRnVmS1ZEOHltdVNOSVZMJiN4YTtrQnBrSHlBZU1KcmhGNXkzWTJpQmZNN0dKci9tbDh4eWtGZG9XNUNDd0Q0TjZEYXZPcERBa1UzejU2S2IvR3ZaNjI5SFhXRGFKTXk4JiN4YTswTFA0alJnc29ZQ3NFcWlEb1JsNVNvSkVYRENQSmJtdTJJMVVmcFdLQ2tsdEpUVUNHRXVEdngzUStnbXJLcENyeGJ5aGdDK3VNRHFtJiN4YTt6NHd1S3NqOTk1WDNnQ2s5ekxmQ0xwRGl5Y21CWG0vQnlUS2FmSDUxeEhoZjdBY2FwK1BmNFY4QkoydWtZSmpXQm44M1lJakg2d29VJiN4YTsvZkcyK0IzZURmYXA3T0EvcDFGNUFjZDR6dFg1TmJ5ZnBnRmlpNHZveUppR3hrMllKemJFZDlnTjR6T3RUb0lGWFlKNHdxcjRWNkdxJiN4YTtNWlExaXViWUhjLzR6ck1xWmVBSVFNS2h1QUxPQnJZOUNTOGdDWmovS0VvQVB5aWRDR05nZlIrWXZwZEU2UHdrdnBYQWx6N291Qkc2JiN4YTt6akREeFY0ZnlCOEFhU1JlY1JTS3BmNXpLcTVBOUtLV0FhWWNlbjVJWEFkU0lTVkp4MWNGOE5xVDczdWEvdU9SRlVlK1lyN0N3T3Z3JiN4YTtCZVNwYnA5WmplTGQyTkRGT0xyNGNRemlKQWF0SWtrWnVyZ2dCY0dJOUVETXVUNWo5RUJ2UG9ic2hnRXo4endPUnozdEpMOG14TVJlJiN4YTt5TEhBRnhnazczalNSNU9pR3hSTnR4aHhTZjNKb3hXOEJGOFRqejAyMy9KemNTM05abmtIdEN0TW5wTTFnQm9VWU1PQi9KTXJDNng5JiN4YTs4VmowVDN4dWpPQ2ZvN1F3TXltTlgzT1NRWStrb3JRd05Fa05lSVJPYThhWFFXWlJXNmFUamZneTFPcFZCQ2RhNVUvTkw3TnZrZUJDJiN4YTszNkE0ZHNsSkNGMUVpdVl5ZytnQWNvcnFna1IrZzM5S21zRUxUa3ppZlYvVXBMaTFvRDNXTm45ZjY5Yy9qVUpvei9zNkNvSG9RV0hCJiN4YTs1OUtueDJ5bTJkODZCckU3Z2Y1aG9OV3FFTWhqZmh5SlFKNWVyNmRWekpzVno4MlByYXIvU2RNa3NTMFQwekJ4aGJSMkRiUEU1VmFKJiN4YTtacFFrcGswQ0F6TnNFdTRlWUpWNVVuTVM3YkE3ckF2aVU3MkQvN1FvVHl4SmJncHlYMHBkeWUwaWhSZ04vUk5WbTVUaE5LMUtobnVxJiN4YTtOdVhVRkMxeGY2ZnhuV2ZXK1pYVXZrVFQraEpONllzTW5jOVcrVHhkNDNQRk42N1F6bHloczNtR3RtY3JlNUd1NnlXYXFpYzZwWXR1JiN4YTtsNkkyM0JTc1Z1S1FvUXZpT2NYOHBSRHNob3pUU0JZYWdobmhrQXZWU0kyMDBvaVREYWlpRVhvYjRpWWVJODFJUjl5THdIaEM2a201JiN4YTtwUk9DbmVRU0ptY3h1b240TlZlRzNRRGRRK0tkR005YzF1b1ExN3dkWWZYeWU0anZEVmtISUFjaXVteUhYM01XTG13MjlvN3FQNnZEJiN4YTtHbzhBNVRwWFNCN1Boc05KWTM5d09CNGVqYWVMazl0Ty9oYk5DenJwUTJkdFN5VDQ0aW45Q3hWVFlFS28vZVhTSHk3L1YxOFFTUUR4JiN4YTtVNXozQkkxTmlwOUpXUTZXRzd2QWdDaHhHVStuRE1QVURVRndFd0s1WUowbUdVYWhoN2pDWDNRK2VwVEw3dmFMY0l5dGp3QlhUSG4zJiN4YTs0WS9uK2poaTlRZC9oRlBtcGVJTFhEQmg5M0cxSStTUlF0cGYybGRvZ1dadWhwTEhvN1RLQmkzTGdzb1I0N1lERWJIVU1Ba3g5Z240JiN4YTtWeEFJalJpUEZYZVJhbkM4U0VES3RRcDBoSEluTWJQWjhSM0xEY1NOYjlGdk9SdzVRSzMvdnQ1clhBSGlZNVdqVVNNMDVsa2ZxeEdQJiN4YTtMeHYzUmVPK0NWUURqUHloYU55WGpmc1dVRldUN0wxdkI5Q3g2TFlyK3VVcWdLcy9mQU9qZklsUnZnMFVIZkxHUUw4MkFZRlp4OGNaJiN4YTtpMkg2NXVoaS9vU1BNaGFEakszcE5pWTQvb2Jta3ZwNnFvMGsxaWRJL2hYclNCc0xuSTJ0c1NsRXBiZXF5Y1hsemJvR0lIWFl1WHFqJiN4YTtybWpVTmNFb1c1S3MrTnNBYkN5RmhoQVFzVEhRV09zdGplcFVIN1FDZ3dabDljRTZwZXJPbDluZ2RIU01TVDd5VHpaVkdWdHNXbU51JiN4YTtqNG9KcHNwcFhLSVY3YW8wTmhnM0dnUFFaNWtIS3JsSGNhTjRLZzFtbndXWXE4V24yUVdkRGU3Z0dqdGJPRThEUFZ5V0ZoTHN2VC9TJiN4YTtXUDlKekZCZzZoWjEzQlZocEZGamJQUityRjRjU3lSRUwzT2FnSElGNk9WU1ZITGs0cklpcU5ncHFJVXBXZHJBeUFKUXd6Tm9OYU00JiN4YTtaVUMzQ0JjY0kxQ2RrNFJXSEhOS1pXRFpZdms3d3JVdjR0ZHlYWWY3YWdoYXA0TTR4THk0d0FQcThXbHRCb2dDb0FzUXpxSVFyQ1M4JiN4YTtFM2k0VnVNRHE0Vkh0QndSQm5IaU1WWWRoZVJsc0NCYVlGRW1SaHdlQjdwWDNtRU4wRnFIa1RwREJCOVU2OUhLWkpBQ3owZkx6WXNpJiN4YTtqSlBEUWNVWnpnSUNHbGVVU1pURXFlZTZ1QkZVUU5TZlh5N0pSMkpINWpxQUJ1UnFGQ25BbG5VVDh1N3d1TEczbUkzT01MaGZ1MEEzJiN4YTtpMGVoM2RFYVNabFZ5aXgrcUZoRXhxdS80T2x6K1o2VmtrY0xNeUh3WFQvTzFHSThURmNXeGw0WWVpN3paT0hPRklBb0hzd2I0V0dhJiN4YTtENFBQTDh0WWZxc1c0NTBpK3k1QWM0ZFpud0graFJPeGQ3bUpXRG5WTXVVek56NkgzNjhPZng4ZUxaeGJyZVBwNGJEUm5wM1BUeG92JiN4YTtCcFBCcCtHczhXcDJQSnpkcm43V1lBODdnL0Y0OUdrMk9Ec1pIZkUzOTZmVDhSYjhQajg2S1hpOGRidlJaSjNCMGVoZFdmT1FTbm9HJiN4YTtYUy9yR2p6eVdMQVdKY2ppLzFwWmE3OHo5Z1FtZm0veFpUeWNPMXZQSnRPL0puUUJDSERyZlhmNGNYQStYbnk0M2RoNk9UZ2ROdTQ2JiN4YTtXM3VqMDdQeFVMeUNvaW1uNENDYWY5VU1ZMEI3ZzU1THFKbG9tZnA4N0d6dERBQTBqZnRPWXdzR0RmOFNlQUNlQ2poTElid3pHQStCJiN4YTtMZ2dnTzRlMEg1NEhDaGpRYXBRQWQ2YlVEOXpGeGNPWUwvUkNFbFR3RHhBMnZoK0RFQ0dkUGdscFF4RGN2VFJMRXo2TVcrOTNvWTM1JiN4YTtZalpBQ3Yxd213RCs5aitPZmQvWk9WcHp5ekNqdHpvUEVBOWYwTzkzOVBzWi9xYldLaC9ta0FQZXhuZnhUWHlQdi9WVnNTWFhLZGw1JiN4YTtqRWQzb2U0a0J1YnJjVEhwZzVUTlF1Z2J5SFZTV0xEdENMaTRDOW9aQlFLRlhocTZQdTQzQldNaEF5dklMV2tWM01sSEoxajlTa1czJiN4YTt3Z1RrQkIyaEdJUnhSaC9IVUl1YllFeWxuNUtPbDcrREd4UjdVWkxpWmtRQkxZVkV1YUNKNVhmeTNZcEZ0d0xRTFZBYmNVRnZpd0tXJiN4YTtXQUNkQ0pLWU5tMGkrUG1nTjhXSm15YTAyeFNaSFdFRTVtMkVPOWFCQnVNVmVoR1gzOGwzS3hUZFF1Y3R1aXJCZGc1REJna2ZGQjhmJiN4YTt0d3NWV1dlZzdBSEM0VzQ4V1JJd1E5cU9NTWtIY3kyL2srK1ZMM3FWdDdaQXdmVEJpUGN4TUlNWjg0UjRHQnFiQUtGeTV6T2dIKzQrJiN4YTs1Y2FSeTdRQ08xakQ5WFY5UDJaZWJTTVpVUFZLSjFtdFl3RTZGQUJ6SXhicEJoZ2VBVEhDVFk5VzJhQTZtRCtnQjVkQkQzdHFxeUpCJiN4YTszc2xnNkpPQjFndVl2bmY0Uy9hQjZBeGdpUXdzRFgzZlphYUNodzNTRnR4cHlGZjdnaXhPQXREWXdUcWxSUm9yTVJEd2hDaFVCNG5PJiN4YTtoaUljZm1TTzNzVllmUSszVGd5SkxnRkY0Z1MxWkJkd05tTllEUXpTQTVnandmczhPdGtNemlMdVpEdGVFb3ZtVlQ5OGhJQWY2UXd4JiN4YTtBeG9IQkVGQVJ6eThFQU9rY0YwaGNqSGpnNVlCb2l3R05FMWQzRVMzVWJqK1dTc1JOT2YrZ1g2bEFtMU45SWd4dmlzRmNnRWowK1BMJiN4YTtIeUJqZkR6SlB2WEpEbUVieUZyVGpZdHZObThKc3B4QkFRM0hvbUVkSmVCZDNCTFVpMkg0UHZFOGhpU0FyQmx3UXF5WGJWeWJON3pTJiN4YTtIRUVVK0N5ZzNWQzBheUFFN1ZFSG5VUFI2YWFrVlNCYmkyUGNnaXlNY01HSVdkbldnay9CWWxrT0pWaTd2bWpYUUFBd2daSGljSVJKJiN4YTtTdlppQklaYTRDTGZBcjRSK25LcE1zd2pXdDZ5bEZJNnlvdmVESmNEY2FlY0pLVFZuaURCL1lMOUJIZTlpUkRqR1dhNU1PUWdCdFlkJiN4YTtFWi94YlNkQ0ZCZy9wSFFZUU9IOWdHbDk4U0JJclc2Z0p5RERMZGJRb1VIZURSOHJkUEdzWmVpTUYvRFJSdmxGSjl1d05yeFdubWcyJiN4YTtrb1JtVEM5QTB3VWVFMFJ4ek9JRHdJZ0NxeGdEVWpLSzJtRE4ya01wY3F0a2hSTGN4K0ZDOTgxMmtaRzdFWGJUUjZ1TitKc1BjakhFJiN4YTsxVWNnNjVEcFk2NFBnZ3JtSS9BOEZ2Ym8rcGdwajIveFhIQ2I0VVhXTnMydXplNXNiZys5QUpudFF4T1kzb0N6ajd1Z0p4aXI0N0tKJiN4YTtCUXdCQ2d0ajJoZzFacVNYMmMwVU9BdURRalIweGV4YkhCODVTb1NSMHhseEY4YnhnY0NnWmNCUFRNVmpmTllnNTBaUlNIV1VUdy9YJiN4YTsrYXhPM2pUZndON0I5dmFTRkV4djh2aUVRR2xnajRPKzRQdWNyUlJFNCtaMGttSjBkOFgwRytRTklQV0NGQkVOalA2QWhWMkdlQUFLJiN4YTtLclZabExGZGU5R2pCQklnQW8wOTRWNEJIeFZnMEowaW44WEs1dUJSNFBDM1NFYWpoOHptQnJoRkpXNnRqRHNLQno0akwxem5CbmtlJiN4YTt1SmlqdzdBUXFnWUx3VXQ1bG1tT09lUm9NcytrN0RnYzFpc1kxSXNIc2MwY2NxeWdHYUszQzhnRDdBTkFPbDlRYWQ0OW5VdFhTQ3lJJiN4YTthVlFhMnR3Qm1DM3Uxd2hpTndGa0psbnB3MWdCSzRFOUFKWVVhaUU0bDViR1VhUU4yUGxNbkVrSGlLYSt6YU05UEZvTlFKeGdXaFJ4JiN4YTtBbEJXUVFzQURJbzgzSzVheHEzazNIaUZNall0TXNJaUptS2hZb0JzeXZPd1dHUXdjeS95Tm9MSW9IV0N1ODBOc2c9PSYjeGE7CSYjeGE7CSYjeGE7CTBCaWZMZG9ObE1zeWpLZUlZMERRaUNLUUFjM0pOc1hWaXNEM2l6QU1oNm9URzk5cndWYkliVFpsU1hwanJtRXdNVWg2SDFUcjFQTzQmI3hhOzFQUEJLQVVsREQzQ21YQ24yODNtWTg5dExtVUplb01CZ3pMcG94Yy9UQk9maFZZMGNZdFhNRDF3TDlLSXR2aHVGSWE0VythRnhkaUImI3hhO29hRTFEMHdtaTBNMkhKRG9NWnF5d0dKeEExc1piMmxMMU1DUzVHWTdobHBtc0tnZzQyb1pFQVFLS0RDOFF2U1BzMlpzQm1wY3U3WmwmI3hhO2FXcmxWbmdTVXo4QU5VQS9DaWxHU1RTU1Y4TXQ3YzlzUmVQSjdVUEhiK1QySlJmT0MvWXYrOTMrQklLajNiWTJNZWQxQ0k5SCt3U3ImI3hhO28wZDNHL1JpWTNkd1BCcU1sOVphOUkzcTRONWlPQnczMm9OWlkzdDdhVlhHeTZxTzNjRm9jamo5YStubjRyM0NvZlZPaDdQQitMalImI3hhOyt6SmNXcEgrcmphVTg4bDh1RmcrQ1BZYStacUtRMTdFcDZ5ODErcjUwRGdyK0lpcVV1dDlOYXBRNjRUNHFiRWZZSTJ2amQwRXNRSjkmI3hhO2dhTEc5L3JpQm5uY2pQVG9HaFdZNmRWVWhiYi9VWjBLdEwyVHVONEVISjRPS2s1ZGRIT3g3Mi90dEY3dXYzclphNEJXM2VoZ3pYODcmI3hhOzFqMzhmS2N0dmFuQ2FicUtvL3I1YUw3UXZkTTVaeTI5Y0JHUHVPZXlSM3RmVGcrblk2em0vK08zb1NMclprbmx2Sy9kNmRINTZYQ3kmI3hhOzZBNFd1RXEySmE1cFlXWExXbWh4RzF2YjhPaFdaelk5YTgyR2d4WTgvUk1tNWk1Ymw1a052aFIrRnVKaExjamZHMXU3dzhGNFp6ckMmI3hhOzdTOFBnTDdQeDhQWnE5a0krc0VxRVExMFIvT3o4ZURMaThIc00zdHdDMEIyT0IzTWpodmU3Y2JXNjhub2FIbzhSRlNiZkdyY1FwOC8mI3hhO2U4MWpMZUQ4N3JJN1lFS0QxRWYzVEFaQ0U1VFRUWjkycjhDOXJRTzhrV3FkMmgyTzk2ZTdyRVBVd1ozcGZJUWpvYWMrcXhGM0Ewc3AmI3hhO2xiRHVoNTRjWEhzNmhjNXR6OFZvOW9aQTZvdmhzZXk5L1FMSEhUWEMrL3kzQkFpQjNXb0FNTUZySEl1Wi9EeVpIbjJlbmk4YW4yYlQmI3hhOzg3UEtWMGZ6NlhnQTNCdzQwT1FZWU10ZXhvMWpVejR6Z0RpTmdaaUxvK2w0T212NFVERXdMam1Ha3ZkeURXZU5zOEhaY05hWWowN1AmI3hhO3g3UXNVTE81bVFDWXI3MjFtQTBtODdQQmJEZzUrZ0lkR2gxRHZmOFoxcXp4Y0h6T1gwVUZJU3AvMVZPTkwzMVRnOHJTZDFVSFBHTm0mI3hhO2RtYkQrWEQyNTdDeFAveDcwZWdkanhhRHc5RjR0T0F6N3NWbytZdDZCZTEyQnBNL0IvTTlPWHhYdmdFMVNnTGZHeTdPenhyUEI1TlAmI3hhOzU4QXVHenZUTTRFY1cyOWZQSDhKOUZWSXpJQjZmNStPSi9CNGM3QUFBanc4WHd6bmVSYndEMWV4aHZxMXQ0NU9SdVBqbVpnc2dWWGkmI3hhO0tmNWFmRG5qd0x4MVl6SS8rSE13bTk4SFJpUTRrUDdxbndNNWwzUi9YdkxlUktOcDhlTGQvL1BRT1J3UjQvQnFBQWVBQ0RqSVdOdHkmI3hhO0NPbHZyd2xKTHpyR3lYUlMxbVY5ZkdOZ3U4Z3NsbzlOdkxtbTZiL2s2TDNLMGRlYTF4SHFzSFVRZitsTWZtVkNQenFmTDZhbi94U3AmI3hhOy8xL2lZdmYrckQwNGZMVStLdjl6ZUhodlBzQWdFRlJ0Z1hYVVJjZC9uQzcyMEpiOFpycnl2MENsODQ5L2ZjUFMrQ3VUd1h3OE92cS8mI3hhO3pvdWxVbHcyeU1QcEF2ajA4K0hIaFRBbmw4OXkvcHV2eTVORDNFc1FmYml4RjlLeGt0eVdMUnZ6WDZOamRDd3RIeWgvOGV1T2JqUEkmI3hhO2FQT2pKWVA2VW1kQVg3NzJZRElmZDRyTXhFKzZiRlIvMStJNlgzdFVhUnk2eTBaeU1oeDlPcWtqditTYjM0QW1RQ3h3YjNvK094cTImI3hhO3ArZVQ0Nit1Q29EQSt0cGRPQjB1QnNlZ0dWMjJIOWtsKzNGTk9KL3E0SlQyTW5Oc2JFYXVhM3NWZDRheitkbVFYSk9QWjZQamc5MGgmI3hhO2VwZitIUGJIMCtuc3pXQXltcDlBSy9TKzZSL0pmWWdJdkRNZVRJWnZSdk1SODd2c0xRWUx3YThETDJ2R1FaSUFZOE1sK1Vib3hsa3omI3hhO0MwUGNoaTZPNGNheWpzbjY5NmRuV24veUZVY1hyYmhOTWs2dk84bEUzUkdtV0RXb3NWWHJMb0ppNkNheTE3VGJNRzd2dkVyTktJbXAmI3hhOzA1M2hlTno3ZXpGY09qL0tmYnc5T1I3K3ZUYzhtazZPcFRDVnZjbTgxRnU1TndxR0YrMU9melNiTC9tRVVMSWN3OG8razVENlovQlMmI3hhO1ZyOW10SlQxNXJBU1Qwa1ZWZU5KYkN0akpWWmRoSlM2TjlWdGZCeGpRc2hrT0d1Y0NiL3E5TS9oN0F3WFJ1YlZIeHlOUjJlTm95bmEmI3hhO2szODNac05QSUpQRkY2N21YOVUvbVEzbWkrRnM4MC9vNW5UV09CekF5SThFMTN2L1luZzhPajl0N0E3bjAvRTVENVczMXpXSy9MVjkmI3hhO1dUMjVoaGNOYmZFamt0SWJmY3d2aHZPVHhpNzFZZlFmY3E5cnJYR3d1OFlYcjg0WForZUxKZC9rakFKRGZ1OE54MDhHQytqejgrblImI3hhO1lJeDltMnNMRkNYdkF2Q0dzKzJ1L3FiK21CWkVzVlZKRklVek5EMWZqRWVUWVdNeC9KdS9lUXZQR1dqcXJzalByZTMrK1hnc1lQb0cmI3hhO3NBaUdBazhGUE9UNmtZVmZ5QU9VUTkyR1FTTDBxdU96VVpNVEM3OXpOQjNiS3grbmd6bGYxUXBpMGQ3WjRQalllbTB3SHRrNE9UK2ImI3hhO0tvV3F0ZDFvblMrbWNycUdlZkRFR25nR2s4V29BWFVPNXRXOEJYQlFFS1dmeEVrVjQycExLUjVHWllCRHd1d1Bqb2F0eWFleGZEbE4mI3hhO3dxcDZINnVGa3lobE1UVVlVT2hGcGEwUXM5WjVOQzd6TG1FWmU0Q2dTN3RQRlZ2OWp6REpvb0l6SzdCRXBmaEU0M3gxTmpoU1N6bWwmI3hhO2ZVRGM2NERhdWk0MmpLSkNMRTJ1QkdVY25BN2s4dUdSVWEyUGJna2dQbjZrQUl2cVNta3U3RnJMRlRjTk85UFNPdCtNaG44QloraU8mI3hhOzVndkZuYXNRbjZwK1hMeXlWL2p1cnI1ZVdJRTE4ajAveG56ZThoZTF4cGRTcUt4MEdkT2NMMmJUejhJazg4dm40TWtVT00xMDhrU3omI3hhOzdmeVNEdXhMSTZEQWlKVmhCL0JrcS9mMzJYUzJRQzdmbWdNZXpKOE5wUlNBYmh4Tlo4ZkQ0M3hGamEyWDA0WHhXQkRsYytDSVlubDgmI3hhO3U1c0hnTmZvN2V5aHRLT2g3MHQ1b2RhdXhTdVdjcEJFOWh1TStXNjlZVEsrcmN2NEpaMFZ1THVsRE9LdDM2ZUh6Y1BSNG5TQTZva2gmI3hhO2RiMkN0ODgrblg1dUF0Q0d4OU9QSDV2bjh5RUF0WTJYdkxkU3VPUStPaDNNUHMveEkrWUNzMGkwdkEzcjlWeVBQazRXemVQeDJlemomI3hhO1ZOZW5TbDQ3QlUybmRrZG5DdDlxdkwyWW50Vitkd3drVlJzQVdqZHF2QzI3VWVOZG94dkZVMDJ4QW9lRDJYekplMmVEVDhQUjVPTjAmI3hhO3lXc3pMUjl6V2Nzek9SSk1tQzhielBId0kxS1U1bTRzclpIR3piVzB2T0tiZXgwSVl6RmFqSWRMYXAxalVGWDlXdG5pM3NmUjBucUgmI3hhO0UyUk94eFdUZVRRN2JxSXBNUjZjTlU5cXZ2ZG5lYXY0MmdMc09oR0JVL2JPL09oc2ZQU2xuTkxZTzBjVFlZZDZibW12NXFnT2FYMHEmI3hhOzZmdnNrM2huYVYxTDRRQjFWZUFKdmdMNGRIWXluZjJIcXdZbGI1M3hZQ3ZPcFAyeTJrQjJnY2haZ3ZCSDR4bFEyZ1RtYUlIcWRnV3gmI3hhOzRadlNmRHhrZ2JoVjd5cUdWOGI3cWFiQm5JbUFXbmlNWHlrUFdXVzkwMnBFeC9lT2gvUFJwNGtHSUwrcXdrUHVTaTBkODluWnJFbGgmI3hhO1dWV0lnQy85TmRVVXdQTFhUbXErcGlrbnh0NEFGWEFFM29xUmVEQndJNWd3TjZiNVlveHNEbXNrR0F5NWNYY0xtZ0hXZDl3NC9OTG8mI3hhO3prQUZtaTNoUDlEUFNlMld6bzRyR0JUVXhCaFpMWVRCYW5uUFZmdDF2ams3UnZ3ZHE0K1NJbkw4KzZ4cE9EcThRbUV4YjZJR09obk8mI3hhOzU2dTRRNngyVkUrS3NCUmVtSitmb1I0MS93c0QxSVVBSXlkSjBkdWZiSldyRU5qekppQ2cyZm1nbUEvaXF5ZUQ0K0ZzV0NXdjU4MngmI3hhO2gxNmxRWVh3UjNWcGZuNW8reEt0ZXJBV0hLM3AzQ2thNmF6T1NPRzk2ZG04U2pCaWs4QlZKaFh2VUNWSEZZb0l2WEI4WHZrQ09pN0kmI3hhO2J5R2xZU0ZTelk1bkRLM1FzSmxYdzN3eS9EUlFrY3RSVnF6U0lHTlNxZ3dlckZieWxzNXdDaFYxZUllVGNubTNXUC9QSjBlOG5yU3MmI3hhO3RkRXA2SGRLdDB6ZFlocVRieTdWOFkrc2tVWkpVbDJqcGdVdjYyYTFXZ3V6eTBXdGN0b0ZKV1F5L0hNNHJwelV3eEdhV3VXem9CcGomI3hhO3h1NlNxVEIwdnJMNlFEMnB6VUVaazVhOHZGQmRPMjBLeC9UUjZSZXVUaWp2WmE2UEsvQjllbjh3bVV3cjhCU2FWenBLRVZPRkYxQnkmI3hhOzVCYk9Tc1l3WFp4SStUamZmZHh1YlBjNnNaZkY4YWJmTEFqano5V2lhU3ozWlR3ME5JNEpJdXpGaG5JTFg5RGNSc0V2VjA2S1FVMEsmI3hhO0QyN25OSmg4V3FKQXpRQkxaL1BobExaOXFueHovbmwwQmpyajVIUDVkQ2lOY0R5dXJReUt5SEt0czh2cUZwL01pMEQ5ZEhxNERiYWsmI3hhO0JtaGptY0h6RzYzdHh1UFo0QmhWNjhaZ2NzelhIYXBXR3RoSHo5SDUwcHF4anlpODNmN0liSWs1WEZadGluMjF2QzNwSDhwNVMwK20mI3hhO2Z6MFpIZHRLanhoRmhRTklYMHFpZDRYSGFVOTN0bms1eDFRSGw1bzZmS2xwMTFocUtuVmlHVldXcUZQR3NoSitYTEdXWks0aTRNc3QmI3hhO1hEOW8yWExZZ0lYdExuUExBR0M0M0ZRNnlHU3FsdU1hb3drdHQ2RnBWOWduWFA0bzdKTFpaRGt3bDBPSktxZ0hKTEE1NVVMZHp1anYmI3hhOzRSalE2T1B3eUI1bERya213czVid3I1dXZkOGVqOC9KWFFOb2RuR2JaZ2tId1VIdmRQc0hmSyt1THl0L3lKWVFPOVBKTVZuazI4Y0EmI3hhO2tOSEhrUlFERjZybEF0L2lrdUprc2NORXlNcWo2QTduaXhHemc2dk53WUlQZHFialVaVkxSbnpTUVc5ZWh4U1MrUXFmOFNGdFQ0NEEmI3hhO0hlcDk1N0h2bUV4dUhjMm1oNFBGODhHWFlaVWpjZW5hYWtsYlM5Y1dTaHFyV3FtczBWVEY2bnhVcVBPdXZrQnVmMTFyc1h4MXcxYk0mI3hhO0YyYzdHTTFBYk9kbHBaUEgrbXBmeTRYVG5IV2xuKzJCZFRsYzlNR2MyOFZ4c0U4S2ZlZmlDN1ppMTU5TlQwR3EvaldkZmQ2dmRMbVgmI3hhO2ZyYTd4SzlmK21GYnMycFcrL0s1TWtsS25ObmkwLzNaNkJSVFVIOGFHbTcvQ2hvanZ3cCtvaGEvd29vUFhrd24wNk1UNk5xd282ejMmI3hhO1p5TVZ3MVRWR243Y25mNDFZVWtPMjJodXRRNm5mMVp6SzZ0WjliMXFGUStPS1A4VzlLOHYrOENBVkRCRVZVdjR0amEwSDg4SEtuZHgmI3hhO1dTdUZJTUh6R2FzL3F3QkpKVGpOYjNPcWFPMHY2d0tTK0g5OVNISnhzVG9vN1E5Vi8yN3Rud0JuYVFDYmFJQ2gxdUFlaWdaUUMyYUomI3hhO3p4dC9uUXduamZuZ1QrUlJnMGxEVjBCUUJEVUdjN3pOOW8rRmxtUVdjYlB4ZWs1VndtK3pzaS9UODhZWmFNZ05ZSlZEbE8xUU16Yk4mI3hhO3F2czBBSjF2WkRSMHR3R055VThuUTlDR0ZsT3M0bWpZR0pHT09HaU1CMTh3dVhsd2RnYVNrTEhoT1c1WkM5M2JublRKbzYycVlhMU4mI3hhO2dPTFBvWGZUajZyNTBieHhQdm1NKzhvMmF5c0pSN1BSV2JVYlRid01IUG5zck1xYklGN2NXNENKQXNiWWNveVEybmJscXlGMWxTOE0mI3hhO0w2K1VYZ05yU1MxbGxMTkhlcmU5ekx0a3ZMMWZ1U0pxdkxxN1pLblY3SEdsbTBueVorQUgyNVVMb3diUnRDdVhXc1dyb0Nvanc2L3gmI3hhO3BoQW4xV29OYjUvUks0aXNHa0lmVkpDZmhvY1l5bEtIU2RMWUxzb2xyWTlYWVpQV3A0b1BWZkpXVk84R2krSCt5Zm5wNFdRd0dsZkQmI3hhO21VZ0l1QTlKNG4xdEFiWElxNmdERy9pR2tWZGZVWDJKZ2FFcjRvVkxJL1dqUTRzOTkxWFNlNVY1RUphQXhtWjdqQmQzQm1kc2Q0SFImI3hhO1VQbUM0Qk9tZ1hha09Xa1p0WHR2SHU5OCttak9DOXpyN25mekw2TGwvd3EzdzFjTHY5b3pHSXIweGVsZllaempzK0hNR2h5Mk94c2UmI3hhO2plYTVZY01UVkdiMzlmd3gvUUVHcDJwS3ZucEl1N0tvei9UZXZSV1d1bFpYNy9RUUdCVk5wT2sweFdjVEVDRDZBcjV3RmV3Ti9oeSsmI3hhO0FFRTdnbmxybWE0M3E1dE1MVi9rSzBHUW9OaWwrTnF6d1pGMGt1YjhCbXFEY0hPakYwUUd0Z0VNem9oNDVoQ1M2SGZRRjlIYTYyeHYmI3hhO3AxRjNpQklSYTczek1Qb3R1ZlBvemVHV3UzWG54ZWFkUnllTEFQL3l3KzkvdkJmSUJ6L0t2K2pCL2VEUi9xTGQvWmc5L3Z6azJ1NkQmI3hhO1FmZWorKzZoZk9yZmViQWJuMXk1SFR4NWNHVno2K2F1czNIbHpzUFAzMSs1L2ZMbjdNcmRreEU4K3Uxajg4cWQ4dz09JiN4YTsJJiN4YTsJJiN4YTsJZTN0WDdyNTQyNzJ5NmI3dzNhMEg3MjVSODlHVnp1MGZ3N2svZndHZDYzNE9INzM2N1dIUVRvTTAvamsrL2ZuN3pkLzYwK1Nud0QxVyYjeGE7VDkwbkI4T09zekdiUFh4dzJMcDc5dkxwRDgreStjUDB5ZmMvTmZ2VG44TTN2ZGt2UDd2ZG4vdnY5dnNQV2crT3ZPOWF5WVMzRWx4ZiYjeGE7YldnQU1UYTQyU3k4Y3ZmTnI5dFhOdFBOOU1xZG8rWWVqaXJGZTcwcmR3K09veXUzUjUvSFYyNHYyaU1jMm0xOWFPSGRYWGNyM051ViYjeGE7TGJPQjg3SDh0akYyTnZETk16NGJEOTZGREt6dDZmd2wrNHQvK0h3TzNlaENBMjgvSi9ZcjJNM1pMNFAzWVRONG5wN2ZlZmo0eWcwRiYjeGE7MU9iV1BIM3NiUGpuNzM0N2hCdVB4Kzd4alhkZHZkcjc4N2V6RDdlN0w3Q2pSdmNBMVBEdG5aL0RxLzY5NytBemowRDVTbXYwdyt1NCYjeGE7cXhwMU5xeG1veCtEejdPeVJuK2JmZmhqOGJxazBjNWh2RHZZOUlzYWhkbWZwejk1WldOOUVtWWJyYy9Galg1LzljYjg1dlhwV1ZHaiYjeGE7cy9QZm10ZHZIVjdmL1lVYVpmT2lOZXYyM1VmZmx6UWFYN3VlM3YrWUZUY2F2dnZGN2UrM2Z5eHExTm1ZWCsyZjNkdDROWHF4V3pSVyYjeGE7OS9HMTZmUFNSbTgrZlI2K0tBUHY2OWt2Ui81VGJQUTJZSElPd0ZkL0NqYWl4VTM0TUp6bVp2WGU5WWU4MFoyYk42MDVEZmVUeDJOcSYjeGE7RklqcnNLY2FSYXE4UC84dysvRG1rSEQrZHI3UmV3ZlI2K05QVzRXTi9ycTUvN0swMFdUcjQ5NU5hdFRac0pxRldRVVNuZCs3TXk5dSYjeGE7ZENmNU5YeDc4dnh1VWFQem13L2ZlVVdOT2h2UWJIUnkrMlo3K0xob3JEaXI3OXgrNXI0c2JQUnEvMU55ZmZmVWYxWFVxTnYvOEtGUCYjeGE7alNKUHRzY2FYOXY0UEhuUktXdDA0RDYrKzl1YjRrWWZ1NjJidzF2Sk82dFJ6c2RtaTJ0M0gvR3h2dHU4WlJITm81ZmhnMTlZbzcxZiYjeGE7UHZlTlJuLyszbjJlYkhyWTZIZTVScDhNcDBTcHpnWTBtNXpaWTMzKy91ZEJTYVB4dGVUemNmL1hza2E3N292dlBtUldvOUFLYTNiNyYjeGE7ajNzLy9ENTd1VnZZNk43OW0wRnBvOCtHZTRGYjB1ajdUWGZ2NFBaVmFLVndyTStlREYrKy8vbjJyY0pHMzl5Y2ZDcHRkTy9rUjg1OSYjeGE7VmFQWUNtLzJzZnZtMmRuM3hZMCtEelplOTMvNC9rRnhvMmRQcjVZMit1Ymc4ZFVGeWYzQ3NiNXlmM3IwckZ2YzZJdUh2WU5mZi96dyYjeGE7b2JEUkQ2OCtiMXVOVWl1ODJkL2ZSY2Y5a2taL1NkMFA4L0ZtY2FNdmZ6ODdmWldsUVdHakI5dWJ3Sk5MeHpyYjJMdHpwYVRSZDYvZCYjeGE7M3VqMGFXR2o2Y3ZOcTFkKytMRFpnMGJ2L1VHTmdoUlRYT244SURuZ2pSNEd0eTJpdWYzejg4RjMxS2gvOCtHdEorWkluN3UvZlhldiYjeGE7aFkzZXpVbWFnOS8vY0RadWVFOFA5cUhaQnpPYkZjNm5OeDd3UmhlUDdsZ2p2UUtDL2pacnRQM08yellaNGQzWi9QWERLOWhva3hxRiYjeGE7c2VoY2FYdFRqTFd6c0JxOWMvL0oxWmcxK3NoN3RtazBHcDNjUFF0Zi9rYU5CdGZ2ZFo2WmpWNUh6ajg0bkdDenJqM1dXV3M0RmZqNyYjeGE7OUlyTmY2UGY3N1Y1by9kK2JGcmd2VG9kL3JiUHhOdHdjQkJiMmtYMDVQV05YNmYzMUhQcjZic2Z2ZE0zWlU5UFVQYzZMM3JLT1QrdyYjeGE7M3U2TmtxOWhEbTdjNld6d3A3OFBFK3RwbkhvSG90L3p6Nm45ZEhKeTlhMnpVZm84MmRtKzkwdnAwOVQvYnZlMzhxY25nMTl2cXFjVyYjeGE7eE9KckxmL0d6MGVsWHorL00zbmtsejg5ZlBYeGZ0RlRnbGg4N2RYVm84TW5KVituVDI0OCtmNzFuRDM5ZVBPUHpLcjc5WjNSL2QvNSYjeGE7VSsvcVBmdnA0ZE85aVlCWXdmTTMzVHRDeXl4NCt0UEc0ZGFWOHFlL2RPODlVRTl6RVB0dDQ5ZmtldW5Ydnk5MnpwNlVQdjM4eG0vLyYjeGE7V1BTVVErejBjLy9ocjJWZnczQi92QitWUG4zcWh3L2ZsajQ5bWh6dVBTK0gySTByTjdaLythNzBhYS8xNG5CWSt2U3AvK2lxVnc2eCYjeGE7MWhYLyt1MTdKVjlIVDl6ZWcrL0VtTy9kdW04OXZiUC80L3dSZjlwcGZtOVQ1WlA5M3g1LzF5cDZUalQ3M2ZWSFFoMHVldnJvNXg5ZSYjeGE7NlUvQk5OTXN3ODdtZHgzVVlXNis3eWpqVERmTitnZFJoV25tTDY2ajVkdTVzdmswZXdlVzcrLzcrS3VKOS9wWDduWjNPL2pySjJCMSYjeGE7MlhYVXhya3h5RGdNYjIrdzJ4WjhjM2JWdi9sZ1o1TkxBMjlEbHhBUHJ3Vkk0azlQbWJFRHBwbEdUVnN2MHNsTk1DUGZuaU5QQm5NSCYjeGE7V3Z6NHZXenYydGJvd2VGdDRHMVhlMmp1YkJyTVdtLzB6dmYrcHg5TEdvMnZYWHQ5Tm42dnkzM1ZMSXJibjBzYkJSSDB1MWZhcU52LyYjeGE7K0hLdnFGRk9MeWd3ajRyR2lvMGU2NDJHZTllMVJ0T1g3VDJ0MGVNYk42NnBSdWZYVG9hN210d1BMQUEvL09QNjZYdlI2T094MGVqdCYjeGE7ZDZXTkFuZ2YrRVdOY20yY2JBYzUxc0FDTU5vT3Y1WTArdTVEK1Vpdjl1ZWhJZmZOc1pMdFVOb28yZzRueFkxK2Y2VloxQ2paWXRUcyYjeGE7ODV1bEFDYU5wTFJSMUVmMmpUa2RacUo1K292UFBpaGJuWitQVDZ2ZlpPLzllbjQ2V2ZwZWZPMlBYM3R2WCtrY3B1VE42SVRqSGVjWCYjeGE7YlJqekw2MDdta2RLRWU1dnQwNU5idyt3Ly83NWpKZ0xnR1h2Qjg2VDFZZGJvMnYzN3FwZkQ4OXVIZTl6VTUvOFZRRFVoMmUzdnovVCYjeGE7L0VkWXdjUHN5ZlhmcVE4UHM4ZnZ1OEMyQmoxc09SQVduOWFCaDcwTi91dnVpeWx2Z0JSbzBZRHFEUXp0d1JsN3hmQ1VFZE5yYjUwTSYjeGE7dXh2eTE2NXBXWENYMXl2NWVoZGJlYXdQOTdlbmowU1hYKy9BNVEwMDVzNi9FOUJoT3IvbHFQdVJiT1FiR2dndHlMdFBvNDBOK29VbyYjeGE7K2RPeUxuM090b3U2NUd6d1RoMmMzd1RVZlhIWHYvbkkzVlllRzh0UlNVRDNQNXkzbnltZ0Y0TWNmL0d1aDFQbVU3SkhpRDZBS3pYRyYjeGE7UjcrV3p0OGVXSy9MWi9DYUhOOTNwZU5EeGZkMTZmeWhKVjV2Qm5IK3BoYUdMZ1VXcndxMWkzeGwzbmZ0My92TEtxdUQ3UGMzcGR5LyYjeGE7TkdZOS91V1Bhcmc3OVNFUHF0SFBGNlFjay9ZQldINzc1K3pwQllGbHNwN2JpdlZ3dVEvOStiVm5UbTF3MGRuby9iSTkwd0VJOVFsTCYjeGE7M0VEZEc4UjhTbUQzYTArQ3Q2UTNkM3QzMlM4T08rSHB6V1B0dTAyVEtuVzJYVXlWNU1zckhObzdpeXJsYkt3eXRPRFJtLzBYMVlERyYjeGE7ZVhuODdBYjJlN2VrSzkwN2RVWTEzR25lNExPZlEvWWV0ZkptZXVrQm9TbjRWdXVESkVLVHcveDIrd1owNzIyM1pKcnVubm1ENnplZiYjeGE7TE1QQUVyQmdLeHd3YmlsZ3RrNm1keDRJM0pHWVRBNmhZaGg3VmxYU0QxT3ZNcFB1dnN1TC9FRy9pT3JJbzdncTNRMnV2ajJ2bk1sciYjeGE7M3QzWDNsMzg5WjZQaGE4MjVCQURPT090M3JQU0NSWFRpYjlnT3BVVE80OGJnejYwWW5GQnZiSlhQOHBPYVQyRHNTd2VGL2JyNGVQRCYjeGE7ZWRFZ0FaUGgrUS91Y1BGNks2ZUZWVXpKbmZ5VUhEOHVsWEhPUmluektjYnB6K204VkNFbzFSaWxyRFRtRjdTWjk0dEt3V1RQYjlucyYjeGE7UGthSVBERTFXRXN3MWRhZWpoK2JmTm9XU3c1RFhTVjRLenExZVBTMHBFdXZkbmx2U3Jxayt5NVlwOHBWT2psMXRlWXZ1MjdwL0RuRiYjeGE7b2xybk4rWnZVcTNRc2ZrRFc2ek9ERDdlT2IwTU1tZ1NHU3ZibTZ3THN3eHh3dmpZSlNwN1YyM0VyQWF4SlhyZGFoQTdtSzBOWWpwSCYjeGE7dXdERXpveEFoR1NXTTF3WEQyMG1wRXV4VmJUako2dVlncnNsZkt6OTl1UktYY09tbUNvWGo2NnVqU3JiYi8rNFhzTlFaanIvN2gxdCYjeGE7TmJjQU9vKzhaOC9yUXFlb044NkczMzUzOWNZbG9mTndMc1Z5S1U5V09rV3hhdmhrT1ZOWTBoRnNCYnBTMzhRcjcwZ0ZGM0EyNnNMRSYjeGE7MUMxWDZ3alRMcDRzSjN2TE1yeFRJalUvUFVIWDlYc0xWWlF0Vm1RYnNrVk41ZVRlVlRYNkgrYUhUYzJkRFg5dEk4YjNLajBrZGdNcyYjeGE7MUNBSE85QUU2emcxTk9hQjVNRWpWY3k1M0NiRll3Vjd1THhMMTViWis3VVp3SWZGeGhJL2k0WmoxUXhnZXhVR1lJL1BzUGRoaERkWCYjeGE7QjNveHlBMU5vVkMrV0ZoYnBzdi92bzBMZ2ovVkdKK3pzWFFHdXd1djkySCt1TDQvSTIrVGM0c1BzUDhrV0J1d2NnUmU2THVvQmF3QyYjeGE7RWk5RkJzSmtBMWdtaVFmWHM4OWJKb2svdFVtODBFZ3p2RXNsSGhMQTJxdVg5U1U4VlM1WnRXWmg5cWUyVVhINjFOVGZTejBraGxPMiYjeGE7YkdnM0x6TTB4dm1mWWxURGk2WDJjSlY3NDVIMzlOd1V5NEVwSzVjNk9LakxnQWQvK0JjY2tJYkpUM05TOVFKK245T251REQ4emdKTCYjeGE7Z1JSYkNwaGx2ajZMRllBOVg2eGJJblRpR3REUldJSGhhVEJWNlIvT1dmeVlya3dESHRSeEppNVhwWjhwVmJxTVhtckE3dDZQRzlXOSYjeGE7VVdKUStDM0xCR0h3NkhWeWN6bEdMQkdEakY2ZTJZTHdRa083WFRvMFo2TW1WM3FXTTVSWHdIT0Z5V2ZQYk1sM29RRmRNVVZlcWErdiYjeGE7a2dFOGVyMFJyYzRBakNob0RwZ0QyMDEvSVYwV1lDTUZYU1VtMTlObGNiSHFwaDY5Z2FPQ2U3Y3RpKytpZE5lQjNqVHJlTHlGeFZjOCYjeGE7NnJkNzloTGt4YVFkYWVOUTJicjhyVmhWbnZSVzVjbElORFVXS1N4TU5hUFR4YnlWQ3IyNkdFKzFLRE5TUkhkY3NKNENDaXlxaFdtdyYjeGE7RmZWY1lxVkMxUUwyL3NxU3I3UXljMzJ3Vkx1b3RWS0I2UVIzYjVuNlpvZENYRXNwaDYrSzF2UjdkU2gwZFhWeFUyaFhZbVYrYzhVMSYjeGE7dmxKUS9qNzhEdjB3SmNBc1dlYXU1R2p6ejdkekhHMysrWTZ6UkhiWDVXZ0FtQi8rV0RJdnk3VzV0Njh2dzlFc0R6eFV0amFPOWxweCYjeGE7dEl0clN1aVhyc3ZSS21rZjVtME5ISTFtMzNTTlhiU2VhbzdtMUsvbjhtdXZWRS9GZXREZDlpMjVqck5WU0RubWhGa1dOSzBqYTR0QyYjeGE7MnRKaHNaYkNBNzFFRkNKWVBEbmZPTjR6RjJBdkhIT0ZpK0MxbUJCcVpxaU5GNnVzSGFEelY5V2NzVGFUQlJ6ci9mTG15cVcxZXRHdiYjeGE7ZDFmTDExNXJHbzF2MzF6UWxqYm5CZWZOQ211NkNGUEFXZ3pGWHZjb3JsWlBaUWlFVlV0WnBBclZremVwTDlLYmU3ZCtybHpoclZUSiYjeGE7N2NxcUhGbEY4V05WMGhER2Q4ZVdobkJ2czVweW5QclNjSEIxdHpCRVlDV0w3KzFQNjlIdldWV21MQ3pGc1RyUzhLZTZwcld6VVlVaSYjeGE7di95eHVuNmY0M2N3YTg3RzVhVWgxbE10Qyt0Sk1hcW5wbjVmSmNXb25rdnI5MWhMa1N5VTl2NXEwdkNYUDZySU1DY0xtZWVxVWhvZSYjeGE7NUZlSzhkNHFRWUE0TDZYUzhONnRtbkZZS2d5amVQUVVwWFl3cTVnU0haUWx1b0JPUTIrTGFOdTBrZXRUOTl1Vk5GMDJMNlhVL2JZVyYjeGE7ZFM5bDJ4eGl0VWg4dVhFSk05a3Nvdkt5S0xVU3ZRYmcrV2FySGtZczkvUlNwMnBpUkRGeG1XSUpvOVE2emMyY1lPbzB5N3U4a3BIbSYjeGE7dDk4ZW41ZkhqdGFKWERQN1ZiNEtnQmJmQ3VSRkVTanJpN2JGeXBhdjN0Ulp1OEdxbkkzZyt2MW56OWVBeEoxbVVzdWZYTFkyWU03bCYjeGE7UVIxTm4xVlZhaU8vcXd5K05UQ2lWcGQ4YTAxOHhjQlhScmhLbmoyTVhrd0tMUXRKKzVRdk4vOTBaWFB5NHdIYlJHV3pGZnlLbVhPOSYjeGE7dWpsMGNqb0xNK2hvbDRBMTVOQlZaOUE1Ryt2Sm9jczFhbVRRTVc1NStSeTY2Z3c2ekJaY1J3NGRvN1d5RERwdVdWdzZoNjQ2ZzQ1biYjeGE7QzE0Nmg2NndVWmxCVjVRdGVKRWN1dW9NT3JGM3gyVno2S296NkZUdTIrVnk2S296NkpDUHJTT0h6bVpSWmp4MDhYcmw2amwwZVZHbSYjeGE7aHlPVGg2UXNFMmpuWm4rWkJhM2JiT1Y1UU5oS2RiQ0wwYW1LTGxYRlR6bGNOYXlWTWRXZlZ3WTlsYnVZN0pYRXJxMy9Mb1ZUbWZiNyYjeGE7dnF0a3ZZaFZ1Q0NjTEJkVFByeWRRY2xabm9aMy96c0RZUXZpekI0YzNxcE9CYU0xUGt6RCszMzRaajM0VkJTSFpkc3ZOZkhnL3VaSyYjeGE7NDlQV1gvTEpicWJucWd6b3k3dTBaYTJNWEFUb3ZFdkxQRmRWblNwTm1oTlZMRStaSXh4YmpyQTlPNjU2WmE4ZldlSjNGM1dEUWFwRCYjeGE7UVVxZHhyYW50NGJidUxkNktFaEJydWk3eld1WFRuWXJpSVM4V0xMYktxRWdwVG1KZDg4dTQ2cVMrV2xiRlRyL0NvQXBEd1hSekJDbiYjeGE7aG0zVUs4M1FxbW5UbkpsUkJMOTUrVFdiUS8rUFpYaGVqeWNQK3F1YnZjWFRlUmdVQmxBS2orSktTYWFEcXkvc3JBPT0mI3hhOwkmI3hhOwkmI3hhOwl3MnJIR2MxK21XMFB3S3BZeTY3aE9CTnVReUdSSDM1T3p5dzNDWHo5ZWszcE1Hd252VEsxYTFrZW1KVUZWcXAwWFNDUDczeVpSRm9oJiN4YTtqKyt3T3YvbG11RzBLazlOdTFvUkExOWpPd3FqU3lmWHlycjBnNVpqVlN1aGFVa00vQXBSQk1lUFRROW1nVHBZZS81bXlvTlpxbHV1JiN4YTtVTmt5RzZOSCsvVFdxMnhaaWt4VnY4eFZVYXhzbWFGUmY1REt2Ym9HaUZXbmlhNElzV1ZiSVN5Qm1KVTkwMzc3YnRNTWRYcFNtajFUJiN4YTtWNWNWdVFubzlhMUo3SVV5dmpwYlR1NUVzYVNLejFlWDlPRTMvMWNQZi8xV1JOdGEzUGlUdFJsN241NllqdDJpdlc2a3NWZGF4VEwyJiN4YTtrS3ZBNGpDZm5sUnZqcUxQOUFxSmNuYk95UElaT25EcldqeGx0SThwYm5XZERHWHdMRExoeXV6S2NuQXNTNDB0V3BNcDBQbGhRRXZwJiN4YTszUEFHVklUeTM2TTloWGV0SEt2dVloVXpzenpUeDRKN0ZTWXZTVCtxVG84enVJN2NjN2dvcDIyK0tKWG5LK2xqMnppV05WSDg3OXNXJiN4YTt4UmZwWS9YZ1ZOTzlZeW5hdWZoa3pCemJXZzhLS0tOUTVsYlg2MVJCbC93YVhkSWloNnN5MEZieXlGUm0ySVZyZ3RQU3ZOZXFUcGtlJiN4YTttV2JlSTNQNnROUWpVNEpqSlI2WnB4ZjB5SmdjeG50MmZUMGVtZUQ2dmVhTk9yNkxHaDZacCt1SUlJSXFicTBoWmZEeHp1bWw5MU9DJiN4YTtPVi91a1hIcXBLRmQyaU9EcTlYWkgrRTZBRk9SbkpQTGVhOEtkc0VrUFpQa2FvYVVDSWxzNWFFKzJsKzRwckw4YkZrZWFwV3lyTzlFJiN4YTtFVHg2ZmVmYUpaSGg3Rm1SUzhlTVZLbHB0WUNRcVpVNktsMDZGUklaaG5idjFxV0hSdXF1UnZzWHdGQk1IeXYzTHFrQk9jdno2aTY5JiN4YTtiOWpaTTR5NldTRnN0bXlhcmxSSDY5V0tIa1RBWENaMVZMZVNubFU2UVpjbTE5bUJlanZhT3FyRVpMeTdmUEhoZ3Zsd3ErL1hkNUY4JiN4YTt1TksxcExYbXcyRXJsMDFHWFo0UFZ6UFA0cEw1Y0RMUHdzaUl1M0QyU0VrKzNJb1pxUmZNaHl2T0ZseDNQdHh5YnJtT2ZEaXA5VjA4JiN4YTtWYU5HUGx6dGZVZ3VsUTlYTUMrL0Q3OWJkejZjdVVPN3lCMjY5TElPejJPN2ZHWTlpcmU2aTBOcXRick1aWW1WWFRZbVVuSCtOOU5hJiN4YTtNWkhMTXI2Q0ltam5WNnlxMUlCT1BrRGlRdG5vVk0vZHk2ck5IU3Vjb1NKUGZIazlhOG5rd2xpR1VydDVwYjFJVVIvRDVMcHloOWlxJiN4YTtFYytvZVgxbkVTSFR4NVpNUkUweWZGTnFRWnM3VUMzTlpicmdHbTJCUnhFclcxZG84cnN6SXNMTGFlTUk3VHJXNGhKdHZMT1czWUJaJiN4YTt0bUIzU1NKV0hmS0JXc3JKcC9iZUhSMFYzN0I2YnpRTnRsTzlKZkJLa2QvV2xzREZldyt1c01YTTdidDVIeGFtbmhrR2RVRytXTDFZJiN4YTtLdlQvMVFaZ0ZSOWJlV3ZocW96VXdkV0R3alRTQzJTa0RxNGVGam9NVnN0SS9XazlHYW0vL0xHT2pGU3NaUjBacVpndnRvNk1WS3puJiN4YTs4aG1wV0l1ZGtWcTJEZlR5L0syZmN2YTFFYkNBM0hKcG1KRkpocHNGWlBpMjJxOVZQOXIyTXFsd1JWSnMvYWx3cGZPeTFsUTR0UTk4JiN4YTtIY1A5b3Fsd3hSQmJkeXBjVGJ2eWtxbHdUdTFPWFNZVkxoY1JjY0ZVdUdyRlVNdXRmbGUxdUxMYWp2QWRLMERDWGhsWlBhK3UwQ3l5JiN4YTtWbXljalJwck5saFpyWjI2eW1JQ2pWMmFvYkpMdVNkMWlCbGJESmV2SlMxZlhLQVV0anI3cTEzajY1VWw0dUZ3WHJXRVUxODRzTjIwJiN4YTszdVgyK2w0MUJsWDNBSjJ3TStQdUZzZVE4RG1nQXpJZnZqcDVQSDR6T09oZU96N3Y5YlByUC96YTMzKzQwL3RoYTNHejA5OS9sTHlqJiN4YTs0OHk3UC9kbVA3U2V4UHRQTyszbVVhZlQzbnFHaHhEc25RbGh0REcyZmJEYzUyUm1ZMVhrblgxLzVYMzV5VzNwai9kMlRJK2ltZXgyJiN4YTsvK2pWQzkzOXJEVWFuWHkzOGYyVmFWbXkyOXVLREx2NTFmN3hsazRnVnJMYmZyczh3dzRQMVI2VU5mcGJaWWJkNDgxTWE5USt6K3plJiN4YTtuYmxzMUU1Mnc2T201YW1HZWdJWU80L3ZWbFd5bTljc2JmVE85L2RQeXpMczRtdlgvb2pQZnluTnNIdjN2aXJ2N0xRcXcyNjZ2MS9VJiN4YTtxRGlQNy9udzVMZ3N3MjVZbFV2NDQ5dnlSbnN2M3ovV2JERWJ3TmNud2YyRHNrWi96S0VTa0N0dm52N2llSDZ2WVBhTDM3eGZxOGJ3JiN4YTtsK2ZWNzJFclBOOXhoNzNKUmVmenVFQVZGWVRiUHgvYjRyUnFMN1VmdEdqYm10diszNW5rd3VSM2JreXJZemFjMm5rMHRUWngxN3dtJiN4YTtWZWRZL1ZIZHFkcGRNcmR6WHhwenRmSkpja1hhTDVPVjZ6eEpya2dnc25Ya0padXUxNFZUYVlqa2F2RXczUm9uamhnS1p1VzVieGM4JiN4YTtSSzZvS2tKTlE0ZTVLQjRzUFd3RWRaajhDQXM3dGVTc2dhb3VhWEsvdTJvd1pVV1hMTS94SmVqbDhYREpNVVFxMkZYUGdGaFBObDFSJiN4YTtEKzNWaE10bjB4WGwwdVhPVExsME5sMlJ3MHVjeGJtK2JMcWlYTHBhTzArdWxFMVh2bDY1em15Nk1tNjUzbXk2UzNtdGEyZlRGUmtmJiN4YTtCWmg4eVd3NlEwbmd1WFFtN2E4am02NG9sNjZJdzF3dW02N0libmJXbmsxWGxFc24xMTdYbGszSEZVTWpsMDVFMjY0dm02NG9sMDc1JiN4YTtZZGFWVFZjMHUrUzFYbXMyWGZHcTZMcXo2WXE2NUdqOVdVODJYZEg4RmU1c2ZLbHN1cUpjdW1wTjZTTFpkRVZWT1N0V3RqeWJydVlLJiN4YTs3eVd6NmV5cUVPUFhCYkZxblhCRmlOWElwcXNQc2N0azB4WGwwckhWdDNWbTB4WGwwaFdmbEhlWmJMcWlDdkk1STVmTnB0UEFJbGRMJiN4YTt5bkpHTHA1TlY2UTdPL2FHWkpmT3BpdktwVnR5cnVnRnN1bUtacWhpais0TFp0UHB3eFc1ZFBYc3lsSncxRXkvS1Y5NXYyZzJYZEdBJiN4YTs3RDN0VjhxbU03dFVZUUJXWktTYUJtREJpdXZ2MjNXM2JscGlKVzB2TzZheVhpNFdRT3pEL0k5bHhLNkRmOWw1ZGNYYXhiclBxNnQ5JiN4YTtic0xTOCtycTVxd3Q3dHcwNDJBdkNxZnVvbHF4eU8rb1UzR1VtNW1nc0dxWGhNNWY1Nmk2dXVtZCtTTm95ek9GbDhCcHFRWmc3WEpXJiN4YTswYW55VUlyVnVvVDBVdTMvTEdLWnBrWDB5SHM2dDF6bHdmWHN6Skw3K2Zpak9tNndWWTY1SytmSlQ5ZTJNZmpwVXh0aUY0NUhyRHptJiN4YTtycmJ2NGxMSDNFbDZxVHJvcm5hYVV0a3hkNnZGSjEvMG1EdHJsNERpZys1V2M3c1ZISE8zL0tTSmtqQ0ZsWTY1RTdLeThxQTdlL0ZvJiN4YTsrVEYzZGZlRk8zdDJhYzljOE9pMXQySEtsd3NISUQ2cmtWbmsxRlM2ejU1ZEpnNmZZeklNN3NIdFN5ZlNsVVllcmhCclRZbDBGMHNxJiN4YTtzckk0Tnk2ZEFmdXNLSVJqOWF3MFBKdnUzcTJmbHhHdUVVUldka1lxUUtkV0VreTlmQ0xDc1dzMzdZd2kzRFMxT3RDMjFuclA0NTFUJiN4YTsyMzY1WUlMWWttandGYUtob0xKYXNjaTFvcUdnc2pvUjNkWHg1Y1Q1MXBMNXVPb1preExIN0hvdW5WTkx0WENSVjg0dGE5WlRIa1MxJiN4YTswam1KNnpob1VweVR1TmJFMmowN2FJTE9UZGlickd0WFFLeXFRTDhyeUsrc2szRUN2YTNEek15VEprb2o5L1pyZ2xJM0pBdFVDT1c1JiN4YTt1djFkM3FMSFhMeUw3dzFnWnordElUUEYzdmU0WUYrRjJxa01VTm56NnF5SUZVNHdoRWM3TlJhSmw1M2dKL1gzeTJVKzFrMWtxRDVqJiN4YTtDT3U1N0ttNVdNczZkZ2xneDhsVktmRXFPbjE1UFNZWnJuSW9YZjZjeE1wVWhwVVRHZTd3MlRmSjhNMTZ5TkE2NGU3aStaV3JuSERIJiN4YTtXeWtudzdXY2NNZldMTXJQdUZ1RkRNdFB1RnN4OC9HQytVUUZKK1Zkbmd4eko5eGQ0cVM4Rld6cHlwUHl5c2x3eFJQdTJPay81VHVGJiN4YTtMNm5NenA0b09lRnVXZFJOemNUYW42ckRtK3J5c1YvK3VJeWFrOHQ5VzF0aTdTOS8yS2NBWFBEMHRkcW5wRmRuUHI1WVExNDYxTks4JiN4YTtmTXpWLzkvY20vYzEwYXpyd3A4ZzN3RVVaQTVkMVZVOW9DZ3pxSWdqQ000SVBPckRvQ0NjL2E1L3ptZC9yK3V1VHRMcEtwSU9zTTQ1JiN4YTt6L3B0ZDBqZnFhN2hucWVTY2ZyWVVJMjY0OXpLZkdweFN5KzU1c2IxN2U2NnZGNDVpb1BYdDgrTlQzdGtPRGRlclV3TzVQWFZJc1BkJiN4YTtnWXFZZ2w2NDdvcXdMOWNxazdXTG1ObzNHTTZOWDM4OTJFRGhKZzVWOWVaNE8xYTN0VGtIcTBPVjEvc3R1M2ZzckVicnVGcDI1VzdkJiN4YTtNcVplUlV4Zkw2NlZzL0tXd1dwY2R3Y3ZZcExhNnV0VncwQzdSQ21WR2xBeHZPNCt2dVhtN2ZQc1dsdkplOS91cnNaMTc5cUlUVnNmJiN4YTtxMS9qdWpkNGE2cnIrMXp0M2MxMWo2MmI4dTZveG5XNU9YdHRBS2N4NmcxMlhZMnJsNFp4TFVaNFUvSjdFSEZTZDNEZFkrRUI0akZzJiN4YTtwbHhMYUJOYXFoOHIzamJtMzYwY3ErV2wyV2Z2Vis0ZlBYdTc4bVRxN2J2NTM5K21FbnhhZitWcSszWS9yUjNxc2NmM1ZwemdFY2R1JiN4YTtlY2Rhbjd2SzhMYWV2Q20vdEtzZTd1LzluYjFYWlZkVjl6MXNjOHNmOXlyMWNLVzZwT3ZMOEM2dXZzMnBhMThhclVXVDExWCtKZmRIJiN4YTswamNUbjh2V2EzZkIxcWZyQ3c3dnJmMkpyMy9wK3YwUDI1V1hDdWR2M2NQMjlIdnp4M1gzc0UzMEtFMTdaYSt2aC9zN2xqNjRLT1ZhJiN4YTt4NVVxeDRueEp4OVByaWxObStoNTQ5eCt0ZkpQTWxUYkcvejgwYXRyWHByY0h6VmJLOSt1cTRmNzJ1T2w2eU5KRjcxVUw3cDdmZi9EJiN4YTtOUy9OTnJwS0s2c3ZmVk41cWN1N2FPUHY4NTNyWDdxNnVyM1dmYW9qZkRyZC9sU1VZRjVOenM5VzROeU8rWkR4Y2xSanhPamI1TnhpJiN4YTtEVGpzMk56dnk5V09tTVNxOTB3MWE2RWRyZ21JenVVZTVsT3BNMWpOeEVsc3FwM29qZ2F0MUUyYnJIR0wyWHp2MGliUFF4S28vbkU2JiN4YTsvOHFBcVZYWFQyazVtTmRXNnR4U3Q3VHA3K0M1NUdFZHhuUG8xa3V0Q2xaSlVhN1h6SVRzczA5dit5U2cxYTlLcTVGYVZiY3FyVStPJiN4YTtaaDE4YWcxVkRubjF5ZW50VjNWWE0wdXJaVm4wbUpTWHB6WDRsS1NLODhIdmdmSzBlazBwN0NXK0FiMzg3cEdsVmN3bWNOTkVoVjJ0JiN4YTtmbm84MmMydVZtL3RZeTZzVjR6OXRFYkFzRTlkMmJYY2VlQzduL1ptK3FUQ2hNemZhempNSGJpWHY2eDI5UHdiKzhjR2FoaDN2WDlzJiN4YTs5UzVDMWw5V3hiUGNzd2RScllyTlB6V2EwRFpxYk14TnJaWVFKcS9VTklyckpJMVVBNnpGSFhaMzBnWjY3UTV0NVAyMXdaM0IxL241JiN4YTtXWERYUTg4YXlCR3d2K2I3K1FmdFBOVHRVekhuWHRlRjQreWkvKzJsdFF2SmRudDFPZXZmSTZLckZMQ2YzaFk4M1ZDbXl1RjYzL3IyJiN4YTt1cFZNK1hDbldyQk9uNFBycTl0NmRVYXRvWTEzVGVyNlpQMGFoWUJsN3loMjlIamtqa281dTJPS0V1VzVjU2xnLzB1djNGQ2xXMlo2JiN4YTtEZGI3WHVPKzgrcFVwSEl3LzJiam15N1NpMWZlYXJCK3RUeUQ3RmlmeU9WZ085WW5jam5RSWpmTnAydDN6Q3NYdnRhWUhlaEd2Wko4JiN4YTt1VUVWWU4wYXdDNnFITGdLMEo5RHVBYXdTeHNmdUFxd1IrUzVuais1VmhWZzNSckF2amV3WHpmRVFEZnFCYk9oYWxjQjFxMEJEUGZwJiN4YTtyVnNGV0hjL1E3S3lmaFZnM1JyQUdqWnlqeXJBdWpXQWZhSnZ2YXNBRjl4cy9GVlZMK1Z6T1lwZGhRZi9oVXY1K21KeW42cXRlcGZ5JiN4YTs5ZXRFY1RlWDhqa084L1MvZkNsZjViNmsvOUtsZk5mY2ozekhsL0lONG9XNythVjgxVjVxLzUxTCticWsySC90VXI2Z3BsUjNuNUllJiN4YTt1clBNcG45dnFNSHU5UnVzTjlSTjcvVXJzeWovVnI4Yjk0YXEzT3ZYTzNteFQ5Vno3WHY5ZWk1dC9QWjVTcy91cGpkVXJYdjkrdmFHJiN4YTt1cE43L1hyZjZqZEFmZVV0YWlFQ05ZazN1dGN2cExCM2J2V3IzR0oyQjBuRG9WdjlibExKTlhpMjR2V1ZYSVBkNjlmN1ZyOWIzMTlaJiN4YTszT3QzTzc5bDNYdjllbGZkeVZ2dTRGNi8zdm42OVRKVSs5L3JWN2UrOG5iMytuWFJnMWN4RThUa0c5enIxeW5jQ3dtNlh2cllJUGY2JiN4YTs5VDdKNjZyUzdxamN2YmpWcjRhZnY5YTlmcjJsWGQwczZINzMrdFcvaisvV05lL1gzdXAzby92NEJoWjU0ZnY0YmtPQm5WRTZ2THRuJiN4YTt4R3FBZS8zNmM4dTd1TmV2ZDNtSzg4RGYvbDYvM2trRjVadU1vbHZjNitkdFpkZXRmajNQcFJTcDZYZXZYKzliL2NJVlE0UGY2OWRiJiN4YTtIZXhYbFhZMzVaMkZyTHl6dW9md3JYNEQwLzQxOS9yMVZnT0M5L0hkNEY2L3dDalQvVTUvOEh2OWVvL1M1ejYrMmc9PSYjeGE7CSYjeGE7CSYjeGE7CTkvcjF2dFd2UjR4dnNMcUhvMTYzK2drZnU0TjcvWHJmNnRjWUhZUU1yNy9YYjhDcXREdXJzaTdmNmxlWGovVzcxKzkyMm5qZGUvM3EmI3hhOzNNZDMrM3Y5ZXQvcU45aDlmRGNsbitwOWZEZTkxNjk3bEdxYnYzQmx5dUQzK29XY2FRTjExS2wxcjE5dmcxcjZXdC9Cdlg2OWIvWHImI3hhO1k3M1dMNGJ2ZWF0ZjZlYmlXOTNyTjFEWHBodmY2MWNwUjZ6RXMyNStIOThnM3F5ZTkvSGR2aGkrdU5YdnRqbFhyWHY5cm5GbkZ3azEmI3hhO1JhYktyZS8xcTlNNy9mYjMrdlgyYTNYZnlYWHplLzFDNVdNZFd5c2d4VzUwcjE5dnM5MWxEdC8rWHIvZVpudVZLbTk2cjE5b3gycG0mI3hhO1FnNXdyMTlOdS9LVzkvclZ5aDY4OWIxK25tTFlkYXRmK3kyM3ZOZXZmYkRCVy8xSzNlWnZkYTlmNzRMWVJqOWp0K2E5ZnIwak5xVWQmI3hhO3U5VzlmdDN6cWpvbmI2ekRWTzcxNngxYzZOTWRxUGE5ZnIxdjlYTjllMjUvcjE5clN1R0NXQmNUSDd4WHlteEFPSHk0VmppNEd0N3QmI3hhO09rMU1INi8vOURvcXluZlh4ekJiaWZmK1BZbUJ3c1VLUHJrOTZmaXdIcy8vS2ZIY1FtVXJYalhlTGNXK05YOTNOaWFhZlhtVXRBOTUmI3hhO3E4c1czZng3Y2FILy9oeUdXSGsyUFBWeGF5U2EzVDFPSFFqcnFZWkhYangrMm96R3o0Wm5EejcrTWZIRnoyZHIyTEdUei9ucjdjbngmI3hhO21kT0pzYVh6cFdqang5YmkvZk9ycFdUNDAvNWhqRS9mRmtheWgxZXJEMTY4UEg5ano0LzNQcWEyYVE2eUYydTd6ZWZOaTJHN3VXNismI3hhO0xiMDUzbjV5K1BaRjh2N251Nk10ZTc0emZ2VFB5UHZGQ2JQeTc3MTNiNTQzUm8vblRoN3QvajU2TW41Mi9qVTlINzFZT0V1Mmh0OXYmI3hhO1BSa2JpY2ZYazlGL1BqNTlPbkgxOC81SDgvdlQwWndjclZSMlB0NSs5M1pudURuMVpXRlkvempmbVhvVWp5MUVhMHZQbDZLMWZ3NmUmI3hhO1JldkpnemNYRjkveThZdS8yWHZReTkvN1g1THZmKzMzajYvYXBZRHZwdVpuWjk0MzQ4MzhYcXZzN2QvWmk3K2Zmdk95dWZ4K09PcmImI3hhO1ZWMzY4TVBtMTN6eDRQVWZzc20zZjlybnd2c2tyNzZwMGNuRmhjMW5vYzJTN2NCeUx4OWNYTVFqd3oxWCtuTjhmK3pvMWYyZEQrOGUmI3hhO2o1eGR6T0pjSG1qejQrcit5ZUh3SVd0Sm43V0tRNGV2cHYrWUxlYXJ2VGlUbXNUaHhiVjM3MGFqa2FORGZQZnFkN2ZDL3FkQ1BsamEmI3hhO3ErV09aN1h3Snp0WldicmZFbXd0dEJPUGs5SGxxNVVQYTBlN2NuM204dWYxTjd2SjF2TGh2WVhaeTBmUEZtYi9IajVjeSs4ZnYxcDkmI3hhO3Z4Qi93YmFkUFY0LzJkbjkxQmhkM0VpR3YyT2NuZlBXc080Q3pYRTFkWnl5bUhIdnk4TER6ZUVMV2RYaTZlL052NHZQMzcvL09yVzYmI3hhO3M3dkJUMWp1cTVNbWkzYW5uVkgvMk81ZGlPVVV6VjZPTXhmaDYyWExScDYxemJIV0p6VXV2bVBzU1hxR1A5TkpxZnNGdzNuNkIzL08mI3hhO1Q4dWZrR0lmTC9EbmNyUDFzN1hadFZYOUlzT3dHOUhVeXZUbzFkcjR4dE9uYW5yczU5ZkdhR3VpenlmS2ovTEwvZmFEcWZLRHphbUQmI3hhOzlvT1o4b012NlZIN3dXejV3Wi9sSDZXM3FOS2o5YVZ6MWhkc1RaYS8yeDcvM2dMZW1pNC8rR0VPMncrYWNyK2gyaGhaaUNnU1J0VEcmI3hhO3pGb3NjbjlMZ1JmOVBsWWJUOTdFK1BOMWVlenZQNmE0dDYrbkhjakJTRHBYY0Mrd1FxTFhranFZbVZjRW1XWFYwcWs2ZVBLVTIvYTYmI3hhO0dQVGc5Ylo3eTJzV3RUNjZ6LzJlWW5XeENLWVJQVEZqcVAyL0syMk1ubml5OEpCdmVjaUE5NXVsaythUHljVlhCLzlzcmp4L092eTImI3hhO2c1RHRvTUJ5S1ZlaGJMMjJTR0JKVDJ5c1BScDh4TkI0em43QmlLODM1OXNqTHRuTFZ5Tkg2NTgvWkQ4VzMxNk4vRnI5Y1BncTRxcFUmI3hhO0IzLzE1NnN2Qzh1LzltZFZOTHYzSlc2aDF6dFRXdmpLazlTaGl1elkreG5aUXIzeWVwa3k4UDFzQy9IZlkrenZuM2szMjN0VmFMMzImI3hhO3ZVaUQzL3dVdHo4Wk44RHF3OU1FZjM0b3h2dDZzTVp6L2pEYnJyR3lINkwycHhLMk1TMzJWd3VCUHNUbEJ5dkhJNnNIeCtkNU5IdjgmI3hhO3IyMnQ1VU54dVdZME1aSkYrdVR0Nk9wMFB2R0ZtQnp0akpTZE5kL0dpNWlxVzFEbm44TDFWM2pySHR2UHpjNUw0d2NUTDdtcG4vSFAmI3hhOzN2dHhmbEx0VDlRdVNwQXZmaGgrYXdMemViMzJiV2R2ZVdVcW0xaGJXMzJ4a3hVeTlmTFVSa2ZmNXhMaVp6TWVlZlRvMjlyWGlZOGYmI3hhO0t1Szc2ODRVSjhBTGtiOEV2VzVxdFZCUVdyeTJKQ1l1bnFSamN3OSthN1A2ZnVsOEI5eHljbVVxdCtaUmkyLytlWUlITDU2dFhPMi8mI3hhO2VvbTM1SGIreVZvKzh1WncrZk96K3h1UHowZE9ONnV0QzRvRGUzWmE4Q3pNMXhIMi9yMW5FMEptTFpDZGN5SjJrM3ZNemZyMGwwOTUmI3hhOytpM2svSVF2MGd2aGxsTGhMS1hJWGR6eXJaR3hhZXljRndkdkYyYWswSnpwNk5ESHBuY0tkbnowS24za2xPVi90dWMrZG5laWFMdDImI3hhOy8vbXk4S2w2K254QURqc2JZSzFUanF1Mkp2eTVZT0NQbDJjNHczRzVBK0w3OGRMSnZiTzFicjRLWkVsM05wYS9IUzhld2d6OXMxUlEmI3hhOzRQcmNCQS9uaFNocTJKMU11YjBETDgxd3VqOWVPbDRxTEF4czFBb0g1VnFFVVk0c3pLNDhlL1E3d2pndkkwNWdJaDU1K0dPeE5mYTImI3hhOzVuZmN1NmxLS2ZseTJlTVBDVmpTNnFMeDVzT1NuaHpRNnk2VDRZbXREL253MUVGemdmOHNEVS9ydFMzMzU4U2pyYm5oNlowdlQ0ZG4mI3hhO1pzZmVERSs5dnZlQVQ5OE96eXpHai9uUDRmRDBpOTJONFltTGkrbmg2ZUZ2MG9saTkzaW5yUWc4Y0k3RG8xZnpVeFRHUlErQjFVOXImI3hhOzUyMFZVbGpkd3VyK3Q5WGpoYlB6Mlc4TE8yTnY5aGJmUGZ4M2ZPWHB4K1FaT04vNHZZVkhUOWFhYlhYaHZQQmNpZW93KzNQMDkzUzMmI3hhOytWSDdwY3UvMWg1YzRIMjc1d3UvTnk3MjFyNU9iOXhmZlBuajBlYml1eFV6MGhoZCtlZjEzemRDYUgrSFA0K3RSSWVqWnlzWEYvTWYmI3hhOzdvczZvVmNPWGo2NTJadGZyL3p6NE0vOXVYaDU1WHRqRkVzLytOcDd3VjNMUGJ2QWlHOU4xUW9rRGpGRVBPYjZIQlN0SGw2Y2tmUm0mI3hhO1d2RVg0Vm5SMzVXenBaZXZGajZ2clZqN2JkQTNmOHF2ZlhPcjMwWDN1OHZjOHVEcjVNTERUeisvcmpUZmZMdFkvbWYrN0h0bDAzdHYmI3hhO2VieDRNYnhTdmNmcXY0OWpqN2UvVHE1V3JOS0NXNjdML2UzUFRvdm1HV3RmUzllNXgwdFpuQ1gzNXpiZkxNeXRIdjFhT2g0ZmY3MjYmI3hhOzhlcVhXamhmbkYxY2VYcjZDemJ5MnNxSldpcG8wYXo4Z2dCN2MwbXFIR3VhamNYVHdVODZ0TnZBNU1IMis4bmNhMmZZUEw1Nk1GeDMmI3hhOzRZM1JnWmJlZCtGaFJCTVBmUDJsMzNEaHBKZUhqeDkwRFB4b2R2OThwanFmdW14MGN1eitvK0hwOHorYlpLT2JOS09mNDhFTTlER3kmI3hhO3o3ZkQweE1MNExXVFM5UERNOW5NbCtHSlh5ZGdybWV2UC9IWEVjR2ZjRklqWFVwQ1BSUWdxVGRHYjA3czlaRlBicG1wdkh2bmFHSG4mI3hhOytmelR0YStYNzRaWHZ5VXZmOVltOWh0em1EdmhiVjBaRWZXM3V2NXlpV2l2R3FNNDFlektlVkFtZi96MWlxRUdPZVJyMXd3OXVXdlYmI3hhO1lHWTdJeXQxcWEwdXJWRWJ2eVZicjhIVUpTWStvQlFmWElhM2VnN2ZzVUNwcUN3M2xtSURMWmZjOGtaYlBkQnlHNk9CQlFjUWJXbnMmI3hhO05tc0dqdlZmdFZCV2xhNXVqV01sZmUxRzJscUp1UDZJNVZTK2t5dmtFRnRlYWtZYXB0dmUxdUwwbjJoaDhlRDExdHJLa3luN2JISDYmI3hhOzk5ell5b2UxeTgrTEc4bTNyWVYvM3YxNXVIcngrZnRMZS9MOXk0alllUXV6RjVjalM5KzI5RnRvRi9sOSs3aGo4VDI4K3ZGNGVxbHAmI3hhO0xuYjAySlBKOVlyUHJOWGdhMVphWlRYRjhkSXlENy9CRWsvdS8xMmQrdlhoNStLN25mY1hENC95aTJPc2Z2aG5ZelE5MzNpenVicS8mI3hhO1A5WmMvWEI0NzZmc2ZPa01SbjkvWHFhR29HSE1xcWRkYTY3NzVoRm80OUFremoveERMRDl5MTgrMVZNbi9tNFZmY3pxdlpUeXBmVGEmI3hhOzkzcWwyWHowSGh6OXMxcDQrT3o0elFBdmhmWlVVaUc2dENlWFFYUXJ4YkdHOXVSWDEvNDNSRmxqMU5lZjZ1OTMzZDJHQm5zTG5mSE8mI3hhO05hVmJDZEhHNk4zb0Q3MjFoOEtyY05mS2N1WE4wR0FINXJDM3M4VHA4bnBWTXMzb3c3cmx3UmY3RG01WmErZXJyLzg0MEpwZHJzTGcmI3hhO1VrVWFmejVya2RuOG0rcVcwdzBrN1JHOHZJc3VkK0dQZE83enF4YzVoRWV5Z0g4ZUxVRlEzTitTUHg4OW1ybDhCQW15dmduQjgzWnomI3hhO1lmYnl5ZlBGRGJ2ZGhMalplWXMvbzdXNUI3OVg1bGJ1SHliUmYwVytoQmtBT0g5ZGhqdUl1VnBodDQzUkd6SGNBZC9jR0EyeitqL0wmI3hhO3kwdkhZMmVmVnBycDJOK09hSzBoV1AvUHlwZXlaUE1xaHVxN1JBWllybkNZUHlQL1pXZE1RTDZBcmMrY3pXUW5WWmZJZFVLOUZvNDkmI3hhO2ZENnk4bWxsZlgzK0dId2xQaC9vcE91cVVNNUdIa3krRG83aVJXN1AzYmpCcm4yejJNaTNJK3dhMk5ZWUhZaThicmpjQWZqWXJYQnMmI3hhO0lQSzZJWEZkeDhmcUhuSTk0aG9ReDI1SVhPQXdBZkppWUc2dm5GUFduWklxZXplOThrYlRwYmMxUFBWaGZHRjQ2c1NzRFU5L1BYekcmI3hhO1A4ZUdwMy8rKzVrZXZDM0dUUjdpTFRQWnpNdmhpVy8vWkF5cHJCSXlIcDU1bHUvZG9ldXZ5ODkvSjk3MmtITER6SzY3OVZQY3BaOS8mI3hhO01HUGQ4L1BmMGxLOW9ZMThGMXIwYStySmcyaVVOek5pdUdOMzRIN3Q4L29iK1dBSHh2aTJmeXlnVWQrZEVkTVk3UlZ5dVAyYkhjWTMmI3hhO1J1L0lsUGd2K21EN1cyOHQveGlJYW56akp2NnhzejhYYSsrZW1GMHhTTmJ5ZTFlcDJDb2hTd1gyL28xdGxiSHg1Vi9ESHlkcUNCblEmI3hhO1MvRzV5QlNjZXZRcmVWOWtkK3p1WDk0QXo5WFkwZVh5ei9UelVSOGZiTWNWZVQ1VjVQWFowL2NmM3oxNGV6TkVXNlNOZkh3eXViWjQmI3hhO3N2OXZEWTR1bnpETzFOcmY0U2RIT3plUEpRVVdYSGU1dThPL1o5L2RWSW90M25DNUYxZmZOdE9iODdHQmwxdjRsRzU5dnIyWHl4ejQmI3hhO3V6amYzc3VsTFhZWDU5dDd1Ynd4NXk3TzkwYSt2bHVnYytoMGEwZXNicnBjT2QyYis1TUhXUzRzdm12UHQvQnhuZDB2eCtYTG1mWVAmI3hhO3VnVEcrR2w1cnBJMTM3bjVxMmlkVXZ4d3N1dUg1cnlUUVNWODJxc0w5Vkk3dDhyWjhLdGZyT2cxalZIYWRLL0xONmtVdWZRekpkWHYmI3hhO3dVSDJ2RFJSK1c3NGN2eHYyeWg4NVExZ0p0ZEZYWkpqNGx2bWYzZXRRQ1R0bzVrWEhVbXJ4L085dUxOK2wrQTl1alRTMXJ3UEhuZ0QmI3hhO0xNMldCc0NPcmUydXEwNW1JcGJlUENXMmpjdFp6ZjU2dk0xRXhWZS9aMzlOenowVzA2ejEzYzU1Njd1OWk5bGZMOCttMnBtUTdINjAmI3hhOzlid2plNlV5aGFzMkU3eFVLQjh1Qk9iRDB6ZlV5NGRiVnh6bDk5MkRoeWZiVytWRFhyc3FUTXFyYi9ONnFuMm56K1RDKzhuOUZ1RXEmI3hhO3liakRSUDNyZmxwWHNjZ1p4T25MNHlMYlgxK3BrdmgrZVBEeUJjc2w3bkUyZTkxM0gwMlVkNHlvdStyeTZ5K1c5ajYyY2ZybitQZVImI3hhO041L1UvajJ6THZQcFFqNzFwNzBGWDhwYm9IKzhibS9CaDg0V1lDMmNUM2tUanJNL3JVMVlpRXViTVBwbytGdHJFOHhzWndzNG0rTnEmI3hhO0E5L3VMUkJNN3RxRUozUEhaNjFObUJ6dDNvU1o5aVlVTHkxS0RPUkllbXhCcHpKbC9yS0YvVmZEblUwWU5uOC9QcWlEQjAvbVhsMFcmI3hhO2lMMDA4Ynk5QlJ1Zm0vZiszUmJhbDAxb3pseUxCNno3SFd2dDRweTZCcFY2REVEdDR0K2o4ZHNNVWZSVTZUVUF6cVgzRUs0ZlJGK0smI3hhOzZER0F1amZWc3BKdXVBeDNGMmZmQVhwUVpWRzllSnRsYkpwbWkxdmVkQm5iYzdQWElsVmxBQ2ZGL0NHK0xFUjFod2h5cCtteG4rTWQmI3hhOzJ1N2NsVmFmdXRWMGREWXhFSHRvakhwRDVKZVR0K0V3YW5wNWRLb3lRTEZqZFUrRDlTL1R3VG1VQnlqUFFRWW94OFZZZWpqVDd6VDImI3hhO0gyMTFob2cvbnFpc1BNQ1h0QmxDN01aby9XWDhtSis5SVhFVjNsSFc5VVI5ZDZJSGJhaVprYWZLS1h6MzFqZVdXZ01rOXljL1hzVG4mI3hhO1hUdTJ2blErVVVDdS9hczZrRjNYMXhGdTgxNS9CQ212cWpGYW5kVDY5dmpVYmJpT1d2L1NyQ0pJQzhmcW91bjZEdz09JiN4YTsJJiN4YTsJJiN4YTsJMHhkQi9EbDA3OWlmdVNDSzFGNEdxd0pDV3drY3E3dU1qWm0xbTNLZEZvNXRKSnZxVmhTLzhlU043aXVSTHg3UHF2WVFHK2F5dWYybyYjeGE7Tk1UM0w2TzM0anA0eS9jZlUxTjlkcUxQSFA2b01OZHB6MEhrUzYrZE9CaEpaMjZGRVFjejg4MjIzL0ptak9zZ1dhN0RkUUlTV1V3dSYjeGE7cThaRlNlelVEc25yczVuaEE3UHlaT3Jycm1RUkxIOStsdDh2NnFEc3dreTcrdktUL3Z6MzhLK3I4cHRjL0xSWWlmSzhINWZhbTFLaCYjeGE7enVxWHVVZEZFY3pMbzdPaVRtajNlRVovM1RpY2xzUnNWL1QzK2U5UHFkdHBpbUVhUDltK0o1V2RZOUpWUW5wQzNoK1RWbEtZajVsdyYjeGE7TlVpcm54Wis0OCs1S1ZleE9UYi81bHhtNi83OC9QZklsWEoyREJiSzhCL3RPcUR5TkNGWXY1WHFLOHYxanBCMzdWcks1K1ZhU29pZyYjeGE7ZGkzbDgyYjV3WS81ZjByVlJwMEhZTlkvTzIvWm1paUtpVGJ2dGN0RXQ4cGxvdUNDN1RMUnJYS1pLQmdUeTk2MlpsdmxYRnVScTdRRSYjeGE7cVZQQjJtcGxFSkh1Mm1PL25uSkFvQU5pNk91WnRzNC80aHkyK0s1WlZHd215eHpuZGNTMi9oZnFZT09sL0ttTEFzNFBIMVhSc1MyYSYjeGE7M1Z1Ym1uM3g5cGowOU01VlIrbUpaSzY5TWUrYW9RSkF2L3h2NnF4Yy90ZFZIdWIzN01Ld3M3Y2UxdStpaVdHanN1ZGo5djdmUjFQYiYjeGE7RHkrU3g5dG1hekg5ZkRoZUZIcCtlRHRjWVBMZVI5Mm1qVzhkUk5NVFY0ZkhyUzE0WDBLYXhxaGUyWmluUEgvZkxFbzVQengxaFdaTSYjeGE7WjdiRnA1TnRYWHk2K3ZqRnVVNVdKL2EvRnAvMER4YWZ2YmRGN2VhSEJZNzNvY2s3dDM3cnJ5ZWJVYU9vcFAxNjlhWVkrOXZFN3M5MiYjeGE7MmFZdWwyMCtQUHkzL2NDMHErbStsOWJ5N2Yzd2NxaFN0akhhczFiMlFmdWZhdTF0UEhyMXRGMk85M25XVWZ3RHZlMEtDdU1IRHovYSYjeGE7NHRQSy9xOE92WHlPQzhpZDA4WHFmRjR1di91OHRuSnk3MkR4emJ0UFk2dmZaeGJlczQ3dmtkeEpVRlJEWHY1SlhGbXFZMnRyWDIybCYjeGE7TW1YMmdlTmVCVkc5T0N0KytQSm8wdTNpMlB6YnlhTGVmTzNxUkhnV2ZRNVJ3YlBlcis0N05nUDdrMGV5TVM3VVJGT1FYY1UySmx0NSYjeGE7ZmV3Q3BsZG1QazVKdlhtN3JIeEdTcWlsNkp3ZEszYmJoWkN0cHJCMmJUYmN0OGMramRnRDQzVzdpMmFyKzFNMCs5Z0l2NGNpTXo0KyYjeGE7VjNEaXgzT3lqSEZ3NThPUE1tV3E1R1FLejExQnNLaTJSVDNqNDdWbUc4VS94eVA1OFluVVZFSWlrNTJWbUJrcHgwa0djTFJtc2I3MSYjeGE7aGFsT1ZXWEJzZGZYWmxpYkdSVWNlMzF6TnJMZm56OHArSmlVVXlhYlB6dFZ6MXU2emN4YVpUeUwvL3R4STgweU81VFpMQjJhZlhOMSYjeGE7Y25UeDh1TFhqMTluUTlPTmg0M1p4YWRLYlo4ZC9sNjdPRHA2ZC9UL1hhNzhQcmc2UFRxN0hKb2JtbDE4dS96MGFXWlhqZzUrSHg0TiYjeGE7eWVWaTlsdGFjb0E0L0NqU0Jjck5QcnJ5Q0Z5Wjk4by8rZnJ4eHYwMzgvc3IvMFI3ajZ0WkJoUHh4cnpVWHpaR21SRHd5TlVaVGYvOCYjeGE7OVpQSkJNM2hxYXU1dDZ3aldobWVpVjVvNTVFTHRGRXBwV2w4U0U0L1BKcjV0dlk3ZlI5SGgyVm1Kd205MElIbXZ5OU8vOWw2dHZBOCYjeGE7Ly9zNDIzajB2cm4yKzRQWldiMzQ5Q0ZhK2JDMjkyNXRmbkgrUUxvZjFLNUU3YlFNS2JlYTd5cWhlc0NDVThPMTduQ2xLOE1qSzltcyYjeGE7cTQ3Q2Q4K1lSN0hsTWlydzRFbXAvblR5L1A0RkZZR3MyeTg5VlRBeE5ibXNIaFo0dS9iMWF3dmZYdjF1a2MxYnFIVS9mdEJCdVhOZSYjeGE7ZEg4NHZ0ZDBER1FrUDcxa0dlMnNLMVVHWFk0WG4vNDlZdE9FallrMlNZNmRNeVZsWTZyNGMyNThwaUJKK1hQVEZFUDhzejEzMmFwMiYjeGE7ZmhwMUNBUFVkcG0zeUN1ZDZEeVErVGRHVzQvbXAwcVA5a2VXNTFzUGxqdEsxbWU5OUdIN1NldkIwOWt5K1hWcWloKy9WTzBIWDlvTyYjeGE7MlBYNXljNjM1YjFiWDU0dVBTaTllZjFwazR4N0VsemlrMmhTRXlET2Y2L3c0STF5aGN4UHRvZng1NnNGTjNKalZOcHdTQ3RPZkxzbSYjeGE7U3RZa1NQdG9TYkNSOFF2cXE1dVoyci8zRWtmNzZ1VXN1ZVEwWG5BK2dqKzNaZGhKZHppenJ6N0diZjFocXRNUFFoZ3lmZFI3bTUyTiYjeGE7K2RaNmkwUnhQOHlzek80L2VqRDM0MnhzZSszUnF2bTMwOEpreWpVNGNSeXh6U3BiL0xMZGp5Y0hFOXUvZDdaOGh5TjJ4Wmtubm1XdiYjeGE7ODJ5OU1icTJNSGIwYnVYcDRmeHdRVTk3dTZyZDdxRXNqaWRPdnQ1dnFSYjdwcjN3L1RKNmZYOHBHdTUwMGNEaysvWnNXeG43dmh1cCYjeGE7NzV0UEovQUpLcHFUWHQrLzZNZjVVNDJ6K3I0ZnR6NGRHaG1pT05yak56TGlqTFFodzUrN0xaRjUvREZxZmZxaVNxZi9YWTg5Mlh4YyYjeGE7ek9mNE1HNVA5THYrTWh4L0xmU0dGK2Vqclk0UXAwa3AxZXZveThRL3l6K1R0WmRMSjluOXJNUXlYUWdBVEtneDJtb2MwUHJIdGVScSYjeGE7ZFcrRE1OL3RTS1dEQWxVdXYwUnFYUzJNNDlPK2FuMDY3Q2hvQjRYQXVmelhGRzNCeXZPeGx6dHJreE9QSDZZN00vZGVySDE3TVpvNyYjeGE7WmVYQjE3OXA5R3g5aWpyWDU2VFFrSGFqKzExWkQzNDduYUtGMitaY1YvdmNVQ2JhNU9lMUt5YWM3UmFwWlMvZTcxSk1qQmQ4ODJydSYjeGE7RlJucUJuanBrM2ZkU1dhNXl5L3J0SnN1Z3FmdXlDQkxIQWRkL2JRb2R0bGtTN041KzZjQVlWMXMwVFhIakhlNjVyUTFrakZlUFhaTyYjeGE7YmpuVjVwYlVhRXJjY3U5M3N6Qy9Gb1kvRjFiV2NwTzk3VjVONjg5WGo1N08vdHE5YkRwZDhOZjAzSlEwelFBZlczMFdhcmdtSVNYdiYjeGE7OVBsb3UyaElVV0d1UWdMZ3FxMHBQeTg2Tk1BNDQxcWV6M2FhUFhSeFZTckpMYTJqMms0bmFiZDdtR3l2YjBMTTNRTDV3RXZkZCt5ZCYjeGE7NmppbzhFM29XZis2aGhNYk0yczB6YmRVdVFsSnFaMU9uVDVnNWM1aHRvbzUzWXlKTGM1YTZDZm0vTlQ4MjlYREh1SEJSODlkbXpVWCYjeGE7WDF4Kzk5MTB4UmZ0eHYzejVPcEZhNEJ2bzkwaEhtbHk5ZjNWZVRrUStrRS84d0toODN1bjdVRG90aDhJM1N1WHdUeXd2OWU2R2c2NyYjeGE7SU5iVGo1MGgzcm9oV3BUbDdKOENCZGEranVtSjA2V1Uydm80TE9jZkVaV1dpZUs3L2ZQSjRydmplMVBVUFcycDFjbWhsNkI1aTNpSiYjeGE7bUVEdHVDZXBzbWc1OXJrY2hEelozcm91Q0RuZU9aZTZJY2p1Q3lDK05YL2ZLdjVHSy9KMlRrdWgvV0lUVnY2K2JXL0JwL0lXWEgxOCYjeGE7MmQ2QzNjNFdPRDQyWFdNVDRvWFg0K1BGSnV3L2VkbTFCWE4vZTRlaXFTZjNEa0txWjM5dkUreVJlNW1LNUxHYkJhUEhuRSt0RkQ4TyYjeGE7SVJJR2FJeGVQMFFKRzNzTmNlMEFuWWc2MW5MRElWWS9QWjRzYjM4dmVuRG40ZzJ4ZjI5OTZqYkxLQ01rQnJpT0tuc08wUTZzMTFpRyYjeGE7RE5BWXJRNEJ2dE84elRKb2ZNLzJEZTczSGtMdUN4c1lLMHM2ekhnWkx3ZWxiamRBQ1N1N0JtZ1ZqUFFmb29PWE4rVXc0Mlc4TEE5UiYjeGE7OXpUR3kxanBEMURRZnZjc3FrTjA4UEw2MCtpVnE4RW1WeVc4dkFsU2pkZkF5aUpONWRvaE9ualpZeXQ3aWJ3eXQ0dzJWdDUrYncyeCYjeGE7ZDFiSjBPa2dYN1QyYnFrOTI3M1BWYmg2T05ZckdhaU1ZNFB1ck1PeGlldHdyQzZwVEhSd0xJUWdiUnpydFl3Szd4c1lRU2E2Y2V4RyYjeGE7eStqZzJMVjQzZ2ZISnE3RHNkcHpxQ1dSaDhkV1ByMHVodEIvdjNRUE1WbVg4NVVrOG01MWlEWmUzbkFPM1JMNUpqc3hXY2JLdmhnUiYjeGE7bE1pVHZmR3lQK09hdkxsRUZrY2xERktxbnh2VDFTN0hNOC95RDZ6RytrRHpHQ2J6eTRscGwvQUltL1N3RTByWWFMWjZMVzhtWHVieCYjeGE7NVVJbUNsL0hYVll5NGZaSFRqODU5OGJZL0Y0UnJsbmEvU3IyNEl3NDdNV2ZYRFJVYkJuY0crM2VqSXdKME10eDlQZFlISkNUN1lqQSYjeGE7dEZ1USszTzUyU3ltV2Z4c3R0T1pVWm9XZGp5S1pyemtoZXgyOHBjTTVWSWM5dkhDZE1uVldITGtkSG42cFRscDV5MmJKVjlucFd1aSYjeGE7Mkw3bE42OHZUSlZjamFVM3I2OTFmSGxmc0lIYkYrTDliemZwWFg4WkViK25DdGRncDJ0aXgvbjFhbmxLbkltRjJmZnE2VXpMSnIyYSYjeGE7TEt6elY1dE41MjhjbTkrRkhmRHFUVVQrbzZRaDVDRy8ySFhEZ2lPY05ZdVdzeVBOaWNKM3ZQZFV6bktxN0R2ZGU5bXM2NzZpMzNMcyYjeGE7NDNMSGFWVjJjSFRjVjN0dlpnZHlpRlhHYXdSRzNJNUtVWUx0K2JubHhlMEhENzh0LzB5Zi8xbDh0M2oyM3Jrbmx6NU9maWxDbEFlNyYjeGE7N1U2dTcrSk9WOXJPNllwSGNYTzY1SVYwZnJidmIxelhaZDY5TStFKzdkL2JjVTdKVG94TUwzMklONlFTVTl4QThxazQyTzgvclBNMyYjeGE7dHJ6V3g5dE5zaFNGYzh2RThKbHBPNjFteXI3cTQzMWRjaldXL0RuSFAweTc1YXd0UlRHZmJLOXRpRGVXVkZuYnY4dmdtZnVuNnQ5OSYjeGE7Vk1iRnk0K3prcktBV1MvS21wdVNEUE5zeW4xYm12ZmxqMWkrYTNXRUxYdWJrdytuR3ljci80eitmYmZ3Nk1tdWNiN0Z4L2F6QlRkNSYjeGE7UFY0RVFuK05QaEJYcWpBemVVdmhiYitieHEraHRxK3VrT2N1RzcrRzJyN2k5Tys0OFd1bzdhdnc1RHR0L0JwcSsrclNWUG8xZnYzOSYjeGE7dng4M0hqWkdHYUg4dW5wMldJNU9Oa1pIOGMzYm84dXJQd1N3WDVlT2Z2dzYyOXovejlGRlF3MjUvMFg0SC85Tjh5R2xzeUZ0TGIrSSYjeGE7K1BYbTk4YTRBQStwaWFITnMwWTB0TGphR1AwNnUzaHh1ZkxyNFBMWDc3UDlpLzhNemZHcjNSZWIyMDlYaHVhRzNBKys0Z2NQaDhZeCYjeGE7cCtncm9QRm9nb0hScjVqblZ3NkQvOXY5SDM0NGFseGhKb3QvOFBsbEkycEdSaVUyVlRvMWNaNm55VkRVeFA5TFU2M3daYTUxekMreSYjeGE7T00xTmxxUjVyazJFbVRlaktJdDBvbzJOYktSaWpXK3lCQ1BZS00raU9OZUt3MFFtald5VzZkanEzQ2pDUkswL1ZKcVlWQTN0N2plaSYjeGE7WWpzd3VmL2dqMmY0OEMrKytoOXN4OUNMb1krZm82RkRUdnhOSTg1TU05SEpFR2JaTkZHZVpGbVc1elpOaDA1TGorS21TaktUNVpGTiYjeGE7dFltSDRqeHEyb2gvcXhqekJJVE9ta3FaSk10VlpuSkZpTFNaWnJIaVdFcFo1VU1jTkV4a20xR01nOEx1WkpISmZSaWpzRWRLUjFtZSYjeGE7S094VDZzOGtBRkZaQnQ3andSamJUR0s4SkV1TjFoRys4R1ppb3lhbWdVRVN6QWNMOU5kVGhUaG8rTHZpamRMYTBPb0VyajJFZzhZLyYjeGE7UkswL2pWam5UVzB4UXl4Zng2bkdHRkhUV0FORXlGTE1TL0c4ZE5yRWo1TmNwVEUyeWNFa3VjNDRnMVFsYWlqV0JqL0tvK0kvSlJCWiYjeGE7WmdtUzZEZ2lSTnlNYzRQdHorSUlvL2dRV0toU3dPWEFvempLbTNHQ1hkWTR3TlJpQW5IYXRFWWJMTWNrcVVsREVGaEdwRk1zVEtkSyYjeGE7cWFIbGhnK2pJK0JGaHEyRTlNNmpmR2l6RWNkUXA2UEVZanRpSEpnS3c1aG1uc2FBc1hHYWdSZlVnOEVYZVFRWW5jUVpLREFFd3k4MCYjeGE7ZGdnbnJVRnhRM0djTkZWa01ROFFxazY0cmJvSmVPNE1saEdCSGd4K0VvRkc4VjJTVzJDWVNadFpqSWxnT2ttaUxiZlZhbkFFQzd3QSYjeGE7UGVNWjhFYzNzVVJnZzAxTVp2R2V4RGFOVVVBMDRLbEtEU0J3V2hiRHA2WnBkWXdITmdaT3hlMEhHRFZObWtrVTRkREJhSFNTbDM2VCYjeGE7TjdNbzV3Tk1MSEsvMFVwalN0YUNXRFN3TWdhenNWZ21zQUlUbGdtUlh4RWl0UmdEaDRWUjhqeUpPSW83Q0ZzY0tON0d2Y1o3MHFZeSYjeGE7d0Nqd0xXQnc3ckEvNXlpcGlkSUl5OElVd1JFelFtVFlVVUVzYkhWTTNMWXFTdVE5cGdsU2ltVVRDNURFNUlMYW1TWm1wZHh5VEFlOCYjeGE7TVFVUkJyQXpWVTB5Wkp5dUF2NEVJTEJiQ1lkVjJCU2liUEdlN2xGc1hsQTVFRUNSeUhENHNlRlpnNzFIM0RZZndzZHhEOGJIVFRBQyYjeGE7SEQ5cFByRTRsclFXVEd5eFQybE10TTBzb0VGR0VWOXFpa2VXV0JyRkZtZ1Znc0dCTkNPZ0M5YWlJSlpTd25oVHJRRVRlbGVWak9yQSYjeGE7bUlpb1ljaVpkUVFVQ1pKK0FNWmpJVFZnU2xzWGZOUTlWUTJXblhFYU9vdXN5dXFBQkNhaFU5dU1GWmFCcGRnb0RVNVVZUEFQWVF5NCYjeGE7VFFBTnZEZlZBZkVZblFkUzVYTWE2QUpheDAvU05JbTB6K2FnZ3pSVEUrWnVrVzVtS2t0elRlRm9UWUM3cWJUWXdRPT0mI3hhOwkmI3hhOwkmI3hhOwlQSTEwYm9VaEpVa01FUWVtYUhKQVFBaENCZURScDJsR3dWMkZ3SHVvSW1TR0tKVEZUcFpYUnhHQ3pRaEJvUzhBTnNtWk1tZXdaK0NNJiN4YTtrTUxLOERVbTFyYUFBSC9oRU5CT2pDVUJZMjlJQVJna2lWVEd2UUFqeEl1eFpIQURzbnhRUFY0Q2RnNkdrbWFPNzhYRktucUw4bVZJJiN4YTtmVTFsS0lNZVpMQmhocnhlUStxbTVNd3hXQzFtZGRyUUNoT05EWFlkZUtGNUlGVVlyWENFRmtkaXVFS0ZIVlBZRFhEQ0xBZVRUN0FVJiN4YTtjUHltNEloSnRKYjNBQU0xeUJxTGc3d0I3aXczZkJnZnZ6QlhZQ2xveG1vSy9Eb2dIWUx6WHREclVTYnpBeHZYaHZwdUVDYkhFVU9CJiN4YTtCUDJLUG9VTnlyUXROTDBZNjhmaWdIckFEcTBUTURNb1l5UzVpT2RZaFRpUW96RGs3VkRXZ01KeFlCVHdwQWlTRXlvNGlNbVFiNEVRJiN4YTtnQzZVQ1VBcUFNU1EzS0tqUTcrSE5VQUFIWXZRZ0NvUENPeXlCNFBUdExIaUZnSUxsUms2QVl4dWFsRjNWSk1reUlPMjBCcXhEcUtmJiN4YTtEV0JBWHp5aWpnbnpvNW5IT2lLNkFpejJqKy9VaHdteFBHb29DVFljU0I1RDU2d0ZFK0pXZmVlemlWbUx0VVZRRlNtQ1lpL2lvQ1VUJiN4YTtnS2tZRWpDNW1sUnBxeWFJcGxJRXd3b3pqY0FBQWtZSzhBTktnNkVPQk1MUFl6bUU2aWdKOEJGV0FKWUUyNDJxaC9kK0g4SXpCWHlZJiN4YTtxaDNoejZScWd2anI4UTJaMWw1NHYvVjIwWHQvMzdOb0d6UW1oWElKVnBuUjRNS0VvTnlDeWhTQUkyQkdKTWRtK0JWSUUrSUZVZ1FtJiN4YTtNOUFGS2h5MDFpaFZXQ0hHVDR6d1V0QVFyT3JNT29nNEZRaG94S0RuaERzTmxUclRtRUdTK2hDd0VDMVVpdHppUGNCUXNQVEFLSUFBJiN4YTs5V1NFSUlGQ21jVFNzV3ljSDFiTGxYb1FHVlgraEh3S1hNcVFqM293QVdudjdVc3RtSUJtNkwyckRneUVXR29UVFNHVzZXc2hVbXJtJiN4YTs0SDhBSlF4WUtEUUppQlFOdlZyWEFnbk1CZExmWklvODFNSThDVks4d09SNWNFdXFiK2dQRW1lcUNkTUJ5aTg1akh0QkZRUW1BMHdRJiN4YTtSOUNhMkFWMGkwQTlVUXBrZ3VsQzVSK3ZvSUZMYlpUOExtdFN0R0xDWUY4eGJRcFNTUlE1VmdqZEdHb0ZyTFFrSW5GU3Ywb29KNkxVJiN4YTtabFF6S1FGU01IamdIWVUxWGhjcEtnWXdIbUREZVFBWUhNd1UrRWNRcUV3NkRZd0JIWUVxQ3ZUeWpGNkpXTlFka2kyVVB6b0ZmRW9FJiN4YTtCTjFRaElDS29ZbTVmYW1WL0JqYjJMUVFlalEwMHl5eG9tMmtFTVlaaVNzQ0twdzJZS0RDL0lUNFR5QjlST09GRXBPUWg0QnBwUGd3JiN4YTtaS25nYzA4VEdKbHA2Z3NzVUNSZVF3c1RhQWIrR1JKcEZxZ0NQUTZ6d1BSd1FvRlJWRVRwcXJOVVVZNDY5MENTVWpHRFVnYldQR1FoJiN4YTs1ak9UZ015MTJNV1lxcVhqQTF3YmRKOURsVnR1K0RBZUNRSE55TEF4WVNBbGJacStFQUdoNmIybm95SDVqM0xidE9TUDJPQ00vc0FBJiN4YTtET3pSSnRUOGxEWjFhb0hxUUVGd1Vod3dkRU9paDVoNVdzei9WTVcwRFRFa3RCN1FVaHJCZ3Fad3FVSmcyN21IaVk1QXRpTGlBNlBnJiN4YTs4Q0thSE1BUVNENVNLckNOL0FMS05IaDQ3a05BbUVDSVJMRDk4ZDdNdmFZS2t1VlF4eU9nbzhKeHFzQVkxUzNkQTdaU21HQkV5TFlVJiN4YTttTzVndENicGdOQmp5MzN6WURBWFlVY2dSMHdwQklLcFFqUVEwN0NzRExJZHU5cUU5cFZTamxwU1JRUVNvQzRKd29EdW53ejFweHRhJiN4YTtCSXFPRkJycnNQZHhRcG40RlNJTFM0MDZFaDAycHcwRmFvY05EbGFRMG9Wa3hJYkRLWXNUQjd4SER5bVk2cHBrYlVGdENjVjhER3hKJiN4YTtjMHNKbmNDc0FZUnFRdHZFNnhWMmxJNmhLc1JCUStIVkNlZUNKV05EMDhBb3lua21nQVFwVENmeWMxZ2VLVlJlQ0JKd0poMkFBTThHJiN4YTsweFRMQTd0SzFjcURnVmdCZ3RtODlkOFEyRElPTGFlT0Fjek9oVEhGWkY1Z1RGaTFHb0x1Z2w5RW1DcDJKYUl4WDRYQWEzQkNGdWdDJiN4YTtHSlBDREFpTVlza3RZSlppemRoYUc0TFF3TktZRUpCUmlac0oxaHZUeUlhbHlVUDBZQXJQYytJOHo3RllTZDR4MTREQkVXQVhJdGtIJiN4YTtURWhnb01NQU5US3FYYkFPQ1lOeDZDRlR0SzVoWDhCMEJTN0RkRThpQ0xyVWlRYWdhVWJaZ1hQS1pPOHNYc1M5QSt1UGZRZ2VFZlpYJiN4YTtBMXVoazhhcE1UNU1qa1ZMa01QOVIxOWRCQ3NHQzZJRkNyYmlRNUE5aVE4STNEYUNCWVgzK0RCQWJVeU83Z21ZVHBvb0I1M01FSDJBJiN4YTtRK0JrNG1LZ0dVaU1Gczlmb3FEVFpXbjdBV2FQVGNsVUpOdkdrK3I4QnFlbktaNXc4TUJydWpLQWpIWkl0aDdjV3JaZWk2K0QxRzIwJiN4YTsrTmd6TVJqN1V5cWw1WFpEd2pPSGpXUm9mR0pvOTcyTElVMWVGZkVqSEF5d0MxZ0o4UUJoTVlSdm9KUkFxNmNIT01JUytZM0JDMk1zJiN4YTtDdXhUTXhLVTBtc0pMZ2ZtZ3ZmeUd5QWFjWjg3Z21YeFI0cXVqTTYzL0ViaVJ1MmdFdU5IOUxlQ2UybDZsSFZNSnkxVUkwaG5xQTBwJiN4YTtRRjI4d1llSmlRbzRYN0F2a0MwZVFGdkhmc2NRdnNBMitwS2NMa2ZGQ3JoQzlTRWlreHVLUWVqT3EwZHRPazdGRndzNXFSbXVJTDNUJiN4YTtscVQ2UjkwS21yN29XckNIUUh1ZGFBYUlCTHdONzRXT0JwbERFb3pwV2NGcmFMZERsNEJOQk5rcmcyTUNGT0l0UHNJbmd1cWtJcXAyJiN4YTsxT1N3VVphYUhCY3BFQ0tHTlAzaG9rbEJHMHpwZzRRc2lPbDJxRUlzTjJJcWZ6RHc2Q1dEWEZZK3pHWUFCbHBsVG9NRmZDbHhqbEZMJiN4YTsrYWFvVmdMUjZEdXBnSnhnUmRyeE1NaDhsVEVHVndHaDhwcERwNEx5bWxFZkZBQmdCUmlDb1U5YzlwT0tGd0J3Tk5yTkF6SXpJVURxJiN4YTtiRjJuOTJVa1hmQnhTQ2JDU0FncmxUZ2svc1krYXVxZmtNRVo3UzBjZFN6SER1ckxxVlRIdE5rZ3NVRjdDZmtpZ3hReEtaZldGUEFCJiN4YTt2NGxCL2xEK2NtaXVtWTNOVUFEVklCZ1lWUUNiRTE5U1gzdzlFSWZCaXZpOFU4T0lCUTVYeC9ScUdoSlNUTGNub0NYeW1YSlIxT0poJiN4YTtUV3NzTWdLckFhSG5tamdLR2o4UjVHZUVEQzgwUnVmWWJraDFrQ09Hd1haRTJ1RzRJbTlXQmE1RFBoa1NKZmN3YzZJaml6azY0MmtwJiN4YTtONVRNRE1LVTRRNFlIcmttN3J2Z0RCVFZwdENzQnJKbHNpUDBRVkVwZ3FwckJZRk5FOE9uUUN4ckthQ3dob3k2Ym9jNmJQY1hCeEs5JiN4YTtZWkNhMFp0Y1pDTWRaamdKa0JoWmhET1NJaDRuRWR5UTZMUUwvZ1VlMEsxS2JFcngvb1JLdUE5RFAxbkdRRWlDdVpPRU1JR1lVZ3YwJiN4YTtuTVlDWVJsY1lDZ3RCdXVVWmRLWFFEc2JOaHF4R255WnV3bGRDc2RuQyt5QmhCVjJZMG1HOUVKWVE4U1BxT0Z3TStucHBUVU9Rc0JMJiN4YTtqR0pBQmdBWTNsam5WNUM5ZzgyVThBUUlBZU9CemhzeUtNRlJXRm9KZ3poUkNrT0lxcUNCQ3MwSUNEMVVHWmtMS0JDNElCUUlSbTBGJiN4YTtRaHllZ01EWnhpS21hZkZod2VSYnVROUJ6ekw0VGtyN3pOQnZuUGt3bXo2TWg4TUJybElISmxha1lvb29sUkF4aFBXa0xpSWNnUWNiJiN4YTtVbndWeHZFZVJ5L1lNaDVTRlVRaWx6d0tSbFlNZEU4TkswT2xXblplZC9GaEdBelVTMEZHT3FXVjdIZ09TQWVQRXVkUjE2QjRVZExBJiN4YTtGRTNYYnd2ZVF6OXRHaXZIbEtnUmdHcWh6SElJS3FHMDc2R0lnbm9FZXlJWERvQXlZb1NUQVViMEpEQ0gyTEUyNEU4aVRKTEh3RlVvJiN4YTtrQTE1T0tBU0YzdUUvay8yeFJRUEhFZU9aWlpKelFWS2xiQTRRNXM2RHg1SFg5WjBBaVkydVYzU0ZGYWdpcWZRTFNKTWhQb1NOQmpvJiN4YTtYRTFOdVFsa3grR0pXUkRUNjVjeU9RQ29BeTJHa1J3YlU1ckEzcUN2R2JwR2szWmRMc2tvS2JFRk1oeUxWNXBiQ05iSFI3VDhXdytvJiN4YTsrVUhSeXd6VmVkQXFYdFQrRFowdjRPVFFsQ0dwRSsxZVIrc2VyN09pUlhHUFFVVTU5VVo2VmpocElVbE50VEFUMVF4MlZCeUJrMkpMJiN4YTtZRkxpelZBQkl6STdMYUZZTzVUREZvRDEwZHBtdkVjc1grQUY1QXZ0ejZFYzlBYTF2YU0wOG1TZ2hWQ2ZCSjRCV1ZxUDNLbTZIOGNaJiN4YTt1RVhNSHdPYlRRLzg4aUhJeXVuRDExUVc4OXk5cHdMajB6TzNBMklLVzBUK3FRS2NJd1NEWGU1Qy93QU1sK3RJQmlvcXVBVTJIa29BJiN4YTtaQzUzS21IS2dxYThUSGxtS2ZWZVErc0cvSnF4UE9BTUk3cVVRcG5FMWhUSVdrRmxCd3gwem9oNFRqTVFKd3F0QzZac0xDcTR0aEREJiN4YTtFTGtaQnlFdVlqZUppNXJCY2FJVE5za1FuU0lpbmdlQjF6QTBhU0Q5WVI2RC9aclFLRmlXSWM3VFkyQVNtWWdSRVVwVUFRZUNpZzRqJiN4YTtCUFFJL2tQelJwQW5NMFRCSktKRFFveFllbWhCeGd4NTBuYmtwb0R0RUgzQUNRdzJoY3FOSlY1bExzc0JrZ2VJSHNzRHFQeFFvUzI5JiN4YTtsVVkwQkd3TklLRFRRWWJJOElUUnNjQlFEd0QyYU5xRHRQd1o1dk1CVW5tYjl6MjIzZjJRaGtEYUhycjgrZ0MrTURpTFE0RTVEaUtrJiN4YTs4S2tEbzVneGxGUE5zTUNJTEFnVE1XbUFoMDQwTjVndklFenNDRWluSkkrWWVHUGxnYVIrY0dNa0l3L29LSElDKzZpSUx6UzlGYjFLJiN4YTtPRXFhVUttVlE0am9lOGNoSkNsUUZUb2NlRGFsc0dFU0V3OGJDcFdFa2hQTUplRnA5R09CQjkxOEV4dlhaSVFFaW42Y1JTRm1URmNLJiN4YTtWa092dC9BYjVrL0VUdlBabEVjUW5hUndiZWo4RFBCeUdwYkFXYUk1dGlRSzhQSUFUT2lJSUZxakpQeUlMSXhiQ3c2WVVPVmorQjI4JiN4YTttMFNkSk00cFN4ajZaUWlUZ1ZoQzQyZ0tSZXhGRGltSTdWUzFZQUtpcWYrdWJuWWZBL0FaUncyNmhvMUdrZ3NkZ3djVG1wd0dBbG9vJiN4YTt4OERDeUlRVXJ3Qk1ZQUg5NTFOZEFNd3lXbkk1MDZPQ2g0d0ZXT2hHaVVUY05GVGNKRFFveEZtVGs4ME5Nd2pvaVFrc0FFak9jR2xPJiN4YTs2ekVNWVJNbWtNTElBaytIc0hhRUlnVEpNRlJtaTJRUytnUHpXQUpYd1dFWUY0bkFEMEdQS29BTUp6V1dYZDJuTEN1TTNwU094VGk0JiN4YTtUMVdZa042ck02eVFLamRVanN3R01kV0hvWmtiTWQrREVsRGtKQWtGRmdnWnZVMXF3NmkwQ2ZraCtTa3c1RVJoZzZSeVg0SEVFdHEyJiN4YTt0V0E0NTR6MklJUzN2dVpkL1dFbzg4VGdnc3lEeGlIcGpKQ0xraTBNdFJ0NmVGWVBKa0FJZmMrcmNzRE1KZ0tQWVRaUkNxdFBESGkzJiN4YTthRXRzdEF6bUFvU3pBQWc5dGN6RG9aNmRTNmFPbFdBdVNMVGxRb0NrNWdOdEZYTkptQm1VS21vaFVBaGFuZ3ZKVW9WaWlnVkpsaStEJiN4YTsxaEkveExlMHFwbDdTaFVYV2plenExenFDK011ak04cHlmT0JkaGdMZkVJTFhoS0ZyZGg3OUJZbEhnQnpsaFBJb3BTK1dBMUZLUFhIJiN4YTtpTVFGbG1WTTJMWTBvQUhnWEYrR01XcDYveUZYaklRSGtsajhNbGh1TEhGb0NGaHh5R1k1TFF2eU9td1JERnU2U21BNUVIY2tENW5DJiN4YTtFTlphUk1zVlFrbGNYbGlRa3ZpZkI2R3BKVXNlRXQ2b00zbVBCd09Sem1RVXhmQ0R1T0xwb1dWWU14UExGaWVqWS9IZldYR0lTQVpNJiN4YTtwTVVuVGRZbS9qc2VkbHNaNVY1bFRmb21NckVweFBrR3E1VldQTk93TStiUkFNc2o4UWRZdnRtUmozZzVRRDQ1TENDSnVGRWp5MlNpJiN4YTtUSzZraTA5WVdxVGtFSG55dVRNUEZRZ05oNDFIVkZhc3d5ZEw3endPQVc4QkJERE9NcFF0V09HeWZXbmNFQ2NaWHhEOVhmaUpKa09KJiN4YTtaUmthZkZkVForTzRsSTRNMzZTeEJJWEZWd0RWVDl4bzBJZXl2RWdpY1E4aUZ3Q0FrZ0JyVTJMQnhTTXFPZkorckZkUzAzVkV6VlU0JiN4YTt0aHdXVkJ2Z1JPcG15Qnp1WEFLVnBOYk1wU1lBbVNMUnlobTNwRXVPY1V2Z2lEUHV0RmlaYWM0VUtYOFh4VkNqNndJZm1Qa3BJU2tvJiN4YTs5UW5QQ25pcWZBaUhOU1lTN0lUcXJvMFBBeHh6Rk0wUWVaNDc5ZCtGMnNGemN0WEJEazlmNS9ERWRmcGdNRVhXUGtneVlVNDFEOGF3JiN4YTt5eU9JcWVERXpIT0c0UU55Y2hxUG9WdU1mdllrRmNSTkdSekdEeTM0Z1p0Q1Jxemc4cldMdnNFd0lKV25WcHNBQkZHS3RrOUcxelEwJiN4YTtuc1FFUmxFdXFnUjJBMEpOSGFjVlZJYmt4WjdIRXRjR0MyVWVzWUp1NnN4WHBWajhrUkNUSEc1UitXVk1MS2FmTlpQMUtPWTdZRDNRJiN4YTtWSlRnTUFrT0ZsVXpncTBHWElLV3kweTI0Z0dSREZ5UkQwZ1FEc2xhajhpTE1uRjJNTm9pRVc2NitUTG1YVVdpc1E9PSYjeGE7CSYjeGE7CSYjeGE7CU02T0k2S2Zwamt1RjB5clIzdzM0b05nMTRCNjVtTHdBc0FXanRmVEFVTTJMcUZGR2VZSG05UHl4cUFCRWxFSFVrYXdMaWFjd3FsZ1YmI3hhOzJFUkpNMDZhc013WXFnR3RpL3NmbEptUzdpSkdYNFY3YUNvcVpKUGc1dVJSa3NwWXFsMGd0MHdVVXp4eWVnTVM0UTEwUHpEN3o2YkMmI3hhOzNoZzZFYjRUWTUvbzFNeGk1MUppU0ZuYzJIVHMwTC9LcllrWkg4Wm1zRWlFdUF4NUIzUlUxSVdNMUU3RUVoM09tUE1RQW9EUXhCTEImI3hhO3lqQ2RMSmZYVkdFZ0Z6T1JvVmI4dEJKUGhvR2lpZldwOEc5bXA5TG1CdEpvMnRna3UwaThrRENxSS9Jb3BxY21tZXhSNUx4cXB2QTYmI3hhO3dDNVVLVGtmUTRhd0xpUmthQXdWNHJqSkxCRVNGdEEyRVZuSHplanNaaFdDSjAzaXlrTS9Ka3RrTll6aHBKMVJ3UWdMSUdKeWUwRismI3hhO0JxNloxTUg0bFpzaUxXZzZWREZWUVZQTFdKUmtJSU5oWk9LMzFaTFRqZmxIMXJGSFNmREh5WUhqT0dHcXFTeVF6VFBBUTM2YXB0UUMmI3hhO0ZIM3BUcEdURERocWNYSEJIL3ZvSmxWZEpzNGxpVG1nbzdZZUJkUk9ZNUttU3BtSmhuOUVsTlNBQ2FoZTE3NjlPc3MwZGJvQzJXOFUmI3hhO0cxK0ZQZlZoQW9NYVJ1SVVrNUJJN3lIRExnQVRVSmVaekNRWkY1a0YzOUZaUFpqQUhvRURnb3RBWGx2Ry9ZS0dqZzlUZmRkSmpmMnAmI3hhO2JLalZPQndvTjVBaWpBSzRnQTZZQnVXNllrNFlrNWVxTUlITnN1SXdqVHFVVlFmR2V4Y1hDU1V0S3ZNN2Z5T1kxc01zZGlBVE5qVzgmI3hhO29VeUZnWllZTVZzcXQ4YnBTVmJlRlZuUXBwRWNGZ2h1eG4rcGRVaG9OVENPeVlxTUtoQmZtZ1lNOFpNYWUxamU5S3YvNjFXU3RJWEUmI3hhO0RHcnBKVXpGWWpvRUJEbk1OMGxZazlBclZTbUdYcWtidy93Q3k0WWRZaVZqVFdLdlZaZ2tVZHhqS2tha2RvSlVYMlV6NENQbXl6aUkmI3hhO29Rd013SGpUNGZZeGRielF2VFBtVHd3bFlLVGt4SXo3cHBnRUtiOEtneE5pQUpuRld3eXZ5OXNZSDhaM3RFeVlCalpFa21GWVRUeHImI3hhO2pPQXhJb0Y5aTNsMk1mTjNjMGxWZ3ZDUHVPRXBVeEpQZkpoRUZRb3BmYmhRRlVpTmZlZk1sVkZJU0FTcHZmNDBjbG55bWFKaWtJa1omI3hhO0dZbitTMjBYMklvWk1aTXRaZDBiL2NxV3grSERRRk9GRm9tOWhpb0JaWVl3aGhvSDNkUWl6bFV0R0c4K0p6WG16SmdOWTY5ZHlrc0EmI3hhOzBVQTFMTGVqMGMzc1dSdENOQThtZ0dqVlY0VVFyZTkwTm91aWdJeHlQNmFvaE1VVFFEUVBKb1JvWUFMUURZVUp4S0lhKzRqR29vQ0kmI3hhO3lWWGdQMkJXYVFqUlBKZ0Fvdldmc3lBYTBCRjJMelZkSmNtaFBwN2gzYTV1MHBESE1WL1V4ek1meHNjaFRUMDJDYUpYNjFFSXEvcE4mI3hhOzhPVGFCS0tyLzZmeWlCUWxGQ3ZESXFnUVZtS1JrczdHNEdCTVRMUHlLR045RXNhQ1JldmlXTkQxNlVsT0dTeFc3dWNRVGxwZ21KMnomI3hhOzJjaVpYWmUzTlZqWWk5aE92a0lTeFRwaE1SaFZVZWFpZ0FaeWhSTEVoNkN0eG5nMU5EUzZmbHZwWmwwd1lNNVFJbGtwSkVZRG80K3MmI3hhO2FpN0ZGcWxoMEVqRU80QndqS2xsVEJlbi9jU2NSZXRETUthV09wOTl5aVFKSUt3L0NyT3FXSSthTUUyVzBRYm12akJFYnBnSVpRTUEmI3hhO3FvaXlHOUtZT0VrQ01Nb2xxaHZ5WTVpNFN2THRHVVJoa2hEOTFOaFBNRkREbXZtWWNTaUcvMkNDeGd6LzBUL25uOG95VGc3cUsvMWEmI3hhO3NHbFN4VUFqWVZqaFNFekpZZ21mTURzZ2xVUktsWXNGRGhoZ2xhVk9yb3dTRU13T3BNK2FOVWgxdkR0bnFSczlnSmlmZFlGR0xJTlomI3hhO2gxQW1nYk1NZE5Cd1lLQ0R1VFdTWHNvRVhLYU9VaFh4QUxncERQRWt6QzdGK3FJc01BaE1hWnEwMkdpd0hyRWFjZ2wvY0QvRjFjRncmI3hhO05RdDRDSUgxY1EwNUVKc2hmOExBSE5OUy9rTExRMkRFelE4WUxYc2VPNzlhd3V4Qm1Jd09nZzR5R3JVd3lIZGtGR0I1S3BXU1VHMDQmI3hhO1I4a2VZdjR4Skk4N2ZzMVFaNVpLcHBPaWMwbVNoNW1SYVF1SUZMTUhCR2FmQzRTUm9qTlpCN2tsMTJIbEFhd2tobkNBWWRKSEExc2smI3hhO1RvZWNYQlZqNVF5YXN0aUFlVEFjSE5ZMW1Mai9nTGpOMENGanlvcDVkRHJ3WTFBSWM3UklJVkxSenRWSnlKQ2hHdnFVcWd4a3VVamomI3hhO2dvMmY2cndkK3plQzlDd3RKQTJEM0ppZ0dJQ0JPc21rRFNQOUVFaWhMTEVEbjRYK2FabG9yWVh6bFBPTE9VTjZpMUxtWnRQUlU0WGcmI3hhO09wbTBKSW1uNUt1QlFVaVFKQlJRTGYzRU1oRWIrcHAxMUxwSWZPNStSRnNZMmdEWWo0bEpSNHJ1VHRiK01lR2RNVStXRHlaSkt1V0QmI3hhO3NNTWxvcCtKRklSdWJEaEVGWUk1RnNvUlBTQWdsUUtqK0h2SWlVZ2NTck5HTmdCUVBZaDI4SFdsb1ZqN3dFWWJrRUZwVG91VWVTZjAmI3hhO0ljTFdoMkFVQVJHQzBmUWJ3OW9udFE3NUVHQlZDWk55V1NvR2t6QU1JYzQzRm05SVVTdEJKTCtCSlEySkQ4SGM1NVJhQy8zNmx1dzkmI3hhO0FJQkhydktIYnFYUU93SWdrbVdLaVJvNnJRTVF4dVVnUUNTem5HRm9ENk9BbmpPbUwwTkVzNm1OZGlVVFJYQmVTbFpBMVNEMXpMRmImI3hhOzhRd3pzNEc1T0hIdU9HbGl3SmJwV0NDek5jSmlBTWE5aXNsem1DSUtOR2RWdFFmQmhBT3lsQnlqVUU1ckZScWxRSndFU2taczNGS0YmI3hhO3Q5RTVJMnlKdGF0VWZTUUlKSXR3NWE1WkFqN2wrREhtYWlVSlNURVJEekI0YlNMYkZiR01heWdBQWF1VWZTRU1hd2FZNE9KQk1ITXkmI3hhO1lwRjBBb3RWa25KOUdBL0RRaEJkZUxvak5SQnhKaGxnZEU1bFBnejNCSncxL0lBMTk5NkQ1VWI1VWZlVVdnK3duaTYvd0Y3bk54QysmI3hhO1J0Z2JBS3h5UDZFYkRGUUkxWjhubXpwUEhzUzNKaWJ4WENVNG5kQVp5SVFoN0hqTzJKdGhOb1U0NWduRDVBdWVQVFlrRVJocUFmVHMmI3hhO2Flb0Y5TXBGQWhEVEZTRTRqQUZKQ0JJU0VSUWpOOGNvTFA4SVFCd0lLc2NKQTRHR0pUcHhZQlNXbTJhV3dSMFdubkN5U2FGL3NNcWEmI3hhO3dvbVVRcGNQSUZ6K1VTUzJEeGVjVXBVUm1yVEZac0g4VFVsb2RDQzZiQmg3emRhWEhsU1J3RWpLZVVUNnRaSTI1WjAxK1F5OW5NUVImI3hhO3JDVU0wWnNwTHJ1cVdaZTd3b29GNnBMMHpqTHlSeDJQNGRQVHppT3RYWWFPWVJVbTZ6aFlGOHpTUFVKRHFSY21MdkVNS0xzMlpmcFgmI3hhO2dpOVlWSXkvWWt0RXFFS3dyRUYwU0NnSDRuYVBBNlBBc0l2SmZheExENUtaZEtYWit4Q1VuYUpaV1dJcGV5c1FockZVelNvb09yRk4mI3hhOzRrb0Y1VUdhUysyRllua3hJUXhUM0FGQi95OFBKTVhlc1hzQlVJaGhNaCtHRlZEUUM1a1VRNDZZK1JDZ0tJRmhqQ09uRVpzS2pBUm0mI3hhO29OcGhvbVlvQ09FV2tvZ1BaK2gvaFVhSkNqbEZiU0Z4QjJPNWswd2VaendNYkN6bXRVMlM5c1BVZSthbDBtZ1hkSlhxUzZDcmRzS2ImI3hhOzFRMzBpOEhDRitlWmx2eEV0cm5JV0tDS3BTWldRckNBVUpsa2hMQXZBZFZ6QnFPWlljcHpsL1FRMWxwbTJ2b1FQUGRJQ3Y5dzd1TGImI3hhO0M0eVNhb2V3MEM0VEowS3NpMktBUmFpWW1YUXA4dzZ4SVRoUGFPeUpyRWNTK0xFZUdnSnk3Z3dJc0hnTmsySHFDV0ZZYnBpekFqbGwmI3hhOzdVM1NCRE1HQW9JSmNKYzRrZUkxY1pKUUpnTUNwaWZSeTFEdEZBaEp4emNNUE5uV2E2U3NBMmFQRllVRmtvakV3dHdtbUx0V2xnTjkmI3hhO25jdUJnRXFjektURG1WSVYrSi9MdHVIWE1ldW9LQkI5Q0I0UFk1eWdONFlRSlFEb2pkS2lWNnpUbGpNNXI2WHhWaEVETWNzSmc4VFYmI3hhO3lHQ2UxS21GQ1REMFFnRWdta3NzTUVaYW45QlFjamw5VW0raEdSVlJiQlZRRzZaTDhBUmhjbGN4WWxqRm5XbTNsUURqVnBJSER0Rm4mI3hhO3dxSUY4Q2FveXFyZ1BMUkt3RUhBTHJRUDRUQmQ4dmxvemdiSFlQNFUxVkRhK2FRRUJsYWhYK1ZTS1NDMWJ0ZHMySElnb3pxam9rSnUmI3hhO3lZUzNKTXhxUFJpUDU5THRGbk5kT29zVTB4WTlicG16TTAyWTFUSk5tUVVKUmxBN3dHcUp0Q3hUSnRKQzZscWYxZm9RUHF1VnRENksmI3hhO2RhYjFzZmpXNDdrQ1liUkwvTE5VUG4yZVN4aHgySk1iWlNvTjhGeHNCazRxb2xtUUptR1dTeEFnZ29DMEJ1bG11U0dJS3N2MVlhb3MmI3hhO0Z4QkVIRmJMUTJzSThWNW1QeWtiWkxsWkxuWFUrSEhFNHBJQXkyWElsNDRKeTNRY2dhZ3lTK1lzUU9mTnBaSk5Cem11R0ZWWjZMZTUmI3hhO1M5OHo0dmpRUHFNbGs2Rlk5ZG1ycU93d0lVVmxqNHpQWHNVNDBhTFhrWjA2OWlwcFlNUkJCbEhFeFlhdG9FdUloVThoOXNyWE1DUkUmI3hhO3ZUL1hvb05WMlN0ZGQyQU1YRVJPSjRQUEdFRVpUQlpndm9wU2NSeGtyMEpmZ2xJd0RreG9GSTlHUFQ3Ymw5TGJESmQ0eFJJUDFpTGImI3hhO2dxdFdPUzloQkxrOVpxcWpTSHBBOUhsVVlhK2RSMVd1eXRTSFZOeFJXU1E3NkhIRVhISnpOSGVRbVdGQnJncGt0cG5zb0lyUzRDZ1omI3hhO0N3QlQyV01hUWdHKzJuZGZsanZXdnpBWFRZOGltQXZkWFh3aEEveE1kY21ZYm5JcU1Pd3dRRVdWcXJ6QTVCbHhMbGFKUzZua08xZ0UmI3hhO3luZEV6RUNud3B5TDEwS3p3aVdSSFpPaWJ5T1pqbW1BZjJJbCtKeHlKWWs0Ylh3dXJEWG5BbDNEeE1aNVVQeFJXaHAzSXJtRjFOaWwmI3hhOzM1Tm1LbjhtZ0U3cTJZTFU0aWhMRTlkVml2NWtKWHhiREhRRG1tTnRzTGgzVTBrR1pzSTl2NENTU0lyREhOaFdJUUJSUmF2bGhnOVQmI3hhOzlaRUVJY3IraXgwWmhOVWg5SGxuenZUckJoRlRTWk4zTWkwajg3MG9YRGh6Q2dHUXMxSWs0Q1FKZ2xSbVdvVlE1UEtTQStMQ3hudUImI3hhO1VZQUM3aWdLbTVDRlN1TG80Y2t6UlFRbmo5OW5EdTBUQ3NFNFpoYzFub2pFM0V4TVJNd0tUR0IrSERFaGMrUVV1MlFmUTdlRGNqOXkmI3hhO3JjYWdPUnJyUmxWQ28wRElWSEFrWXRVWWd3eHNKWmY3RUhnUG93RmkrVm1ZMWtZSFJsR3hLeUdrTmtUbnJ0WkY5U2hMVDIxaHpqQnYmI3hhO2t4QXMxbkVRNG1saDJNYzFkSXZwSVk0SndocFhBWEZPUGZMY3hEVmVxOEo0eHhLQ3FDQVFTOFJZcFFvSkhVWFVZNnI0b1NKWFNtRVkmI3hhO0NJd0RBQkUwSVVrWlpVeUJ5L01SS0FUU1BWTVBvbXJpQnlFcU5yak1OV1NlMHlXVE94ZVRWbEtJNFVQRUxwK2IrNUNsQVgrU094UVAmI3hhO1JoSXNNRWx0VlI0YXhiZ01QellxalBPVWROQ1h4N3JRYnVZcVptTG9QR0thWkdCRzVPdHBMRDZkVXg5RUtja3B5Nm4rYUFiRWpIWGwmI3hhOytERVZIeHF4MkFiRmhIVURaWUVsVjNST0tzWWFNOGF3amN4ZjZyZ3dmeDI1M21seDdtck9xWTh4K3dnQ09NbUVrNlVKOC9CMFhEUjEmI3hhO01Nem9LQVNNOVA5amd6RkpkL1VnaEYrV3hEeGY0OEdZSXBvWFM3M1hrSmFtandFeG9BMG9rSVdDN0pMSlRvOGhRY0VlRUt6OGpabUkmI3hhO0V4UTNsaldrc1JNWUlrQTFLNndUZVpBeXFBWU5LMklFaEJETVY2YW9ZQk1rWWdiN1YzQ3lnREdaY1R6Tm5VWE0zSEsyT21mR0F6Q0QmI3hhO2laMml5ekgySlB2SWxFQXlBVXZreFlzQmtZam1TaTRuMkVVM1NjeXFjenh0QXByUk1PYk1wRElLcTJBNVNzUStudG93QVE4bU9wc0cmI3hhO0tlT3dTMXB5R2dibFk5a3R3eHo3T05Qa2xSNEFONHNwQzh5bGhvSW9NcU02Umt5OUJQaE1yNjRWamcwOVg3em1NYnVKcWhCRUJLTlgmI3hhO05DUjhqRXlCV2Qwd0tpdjBVSnhMS25ObGVScXpBRFB4TUE2Uis1S2Y1K3pGeXVaWlhBM2tHcmFIUE4wNHdlUGtPSkJQU1RJOXp4NzgmI3hhOzJFclhLT0ZnUUdGbVZoS0ZHVG9ZWWdVUVV4cXhyVmhmNGRoeWg1TW9Gczc1QUZGV3NHUGdFK3VuRHhvQkdEYlpTTVV3MDZSOW5vMWwmI3hhO2dqNWRUYzVsVlBIUmErWlVNTGsrWmdQbkpBbDUralZMeTZrU015U1lXQnNZaGJRa2tVNXN1Q0xOWWlZU05HUlRyNHdVd3NKS0doNVEmI3hhO3JReUx6bVN1bGw4dy9VRWFxSElVcVRvSERBUGR6cFNnaTRtbWhDTG5aMWZ0bEZ3VlNNR3NWcXJ2MGs3QXNDR0xjcUh5T0hXK01Xa3gmI3hhO1laaWRsc1V5Zk1aZWlYUVdzUW1UYzJ5N3FGUUcrY1paczRNMDNjdXNaREtKOHpkYks1RVhzQlVpRFBBakwyYlc5YUJva1VocHo4S0MmI3hhO05NOUNQNjV5Mk1UMUxURFNjeXNKQUZSWXNQVGxUSFRSVUpFdkl0WEd1V1RxOFhnMEcwT2NobUNLUkdTc25YMThmUT09JiN4YTsJJiN4YTsJJiN4YTsJQU1wSDRoTDd1YkZIZHhDaUltUVQxV1FyRzA4KzI0d2RtdWkzeG00R29tQUV3Rnl3VlFhV3YvYlZUUEszQUVqM0JEMkk2aHA5Z01wRyYjeGE7dWRkMFQ3VUswMTZrLzZEZk9aUmQ5TkRBWVlPejBrbVNLUUpDNVZTcTdDRHdtQlZLUVJBU0dWbnNNaWMwVy9FYnAzYzRwd2xlWUxUciYjeGE7eDh3KzZaSjVLQlJDVzBtVHRjU0tIUXFKcVptMGdYSUNJUkpiaGdtNFRFdGx3VGRUTTJHeHNPOGVlYWpMQ0lIYXJMazlIZ1Q0WXlJZSYjeGE7R1Vibk0rWjcrRENlN2hXQ3FHaUpOT1c1Qzdxb3lLaWlVR1pjbHhDVzNVdTNWQThnWmw0QlUzMTEwSlRoUkFNZ1hhSFlBSVJ4WGtWdyYjeGE7SlBZVG9YYVZNUmxEWm1MWURWNGlzVWJ5VXkzNzIwdjVKTGJSc0l3QWd6a3Z0bWJEZlNORlQ0cXgwMVFjVGtyQ3FTTE8yRThpaWlWSCYjeGE7Sm1YV0I2czAyVVl0anpHRVRUTWZBZ2ViS3FjSFFRNG43Rm5tanlKOU0zSld5SUhwRnE2b1JKSm9XQVpCcFBBaGNtbDB5V2F6MVVkTSYjeGE7K2lkYXBwblQ2clFyM2VzOHlMUnJPRVpmZ2FaY0x4NjR6YmNzMU5QTXpZdFYrOUZtNkJGdHprelNCeUFYYkJBR3FPcml3bEM2aXZObiYjeGE7RmlRQktCdWN5YVBGYktMQXRESTU2ZUhNV0g4a3dWcnRlcG1ESGxJclhqZVNwSGc3V0lndWJuL2EveGx4R2VTbktVU1k2aXBwZVZBWiYjeGE7dFJqdnB0RElvVnZsVk9lWWRwNXlFMmhUSjdFUGNTQTF1Skt3QTdLbXZoZ2FoWUthbGJ5UmE3ekVtVEF6amVabUZGRXpZVStTakNvaCYjeGE7Yk4wMGRtNEVGMDZIR2dqTmtMdWVSa3dBWVU2S1RWTGxYTVNTQWcrTVZVeEl3aUxkYkdFYWFPMGM2eTZ6REpwaW5EZ0FDYUs1YnZGSyYjeGE7bkREY0dqZDZ6T0J5VEtxT25TOUV5allORlJTcUFha1UyYkM1UGJjOUM3QzR2b3l5bGU0amhLZHBlWUR6c1RFUXRTeTJYWlJHRVVCNiYjeGE7WWFtNktkMGROYStOeUpRUHcvcG5WaGdxc1dBa1o2OEtvbm1WQm1WMEROMGxqcDJUR2ZRdkJuZktKQ1l1UzBxeFlrVnVrWW5kRTdQNiYjeGE7aFJrV1lJOXl4S1FGdzYySG5tR2Q5U1FSV0pPNHF6TjRnSEw5Qm1RQTIzdTdsQ0RSYmhMUlVBSVFJRTRwZGpQc2ZteXlnZ2xVWUNBaiYjeGE7cUxPd0p4S3ZNQUM1c3hESWo2WnpKOWc3aWltVUtzb0M4WFlPbnhjaUtCZFJGUmlGUk0vdWZ5eG9ZU292OVN6MkplV0JLZUFkRHl3ViYjeGE7RjFoQVNTUFpabTdTN0JzWG9uUThTcDJQbXBXbVdaaGorTWZjRjEwMlMyN0pQSlBVM0p5cHo2WVFvMVczWk00OGs4UVE1aHF2WkN5SyYjeGE7TW1zRWdjSE8wVlR4U2txVGtDeEFCMnlwSVJsdlRKcU1UQURpUUxLbzJZK0lsWGhaSElnYXNYZUhwTUxRQjVHSWN6SXBGSFUySG1CYiYjeGE7YTNZaXkxeTNFMWFVaGR5U3JBNWgzMnNveFl4djVyNS9raENRL3F6VlM1aSs3ZnNuZlFqZlArbkRWQldISUVTMzRzQ3l3WlErTGczMSYjeGE7SjVERHhTMEJLNkNpQ0JYTCtqbGNzbWN3KzFrMHdoVExnT0lRQktsTXRBcmh1eWNETUxsVTArYVNlSmU1MWl1YXpaL1k1Y1hxZ0orUyYjeGE7R0NCb1NVVTNhL0h6YmtlbDVOcXp1Ujc3L0VxQXFPcW9aTTFuemt1RU5OOFdCUnlWMHVBbE5WTFFIQ1Z4RW5KVUV0bFR5bDY2aDdQQyYjeGE7b2RMdHFBVEZpSHVJcjRuemdKOHlkNDB6aGFRa2J1TDdLVWwxdkR3RElMRmtEUVQ4bEI2TXA0R0dJQ29hS0pOcXBiN1hjT0Urb3JBdyYjeGE7TjJNL0lTMGFzcTloRWtDY0dHQTNTcVNmcjRLR1FDb3pyVUo0ZnNvUVJOV1J5TGtTeXpCWHBRSytScTdXOENJcXR1R09yNE53K3gwWSYjeGE7dmZPbzJ6dlpmdUE3SmZ0eTJNMlMrY1NTR2l2M21MR0Rrd25ZY3FjaG1HNkQwQWVvMnBSQmlBcnRHMm5oeU1yWFRNVUJEemNiOFVsSyYjeGE7RkVnYldPNlBRUUIzSFkyQkRoYUgzTmRCRUxuTmkzRlk2VHpxUXdBTEZEV0JERm9hR0I4WVRDemxndVh3UHhoNTVDNHdZNUJLYmxYaSYjeGE7UlE2T1RSb3hFMW54SjAwVlkrZTFnOExOcUprZlM1WGJiSmdESkxmWktCdUt5RXFGZEpvRWZzeHlSeVhOWGZHQ3lFbDF5K3g1d3dwdiYjeGE7bGtGN0VHVCtpcWw5N0pjdm5hSjhHREtEU0JST0hxT1JOaFpzK01CbUVyejhKeUFqWTNhY2tMdDMyQTlTQlFVdE5rTmFUa0o3WVJaMCYjeGE7YUJSMmIxQkNBdEtHeEdqUjJWeDlzanlnL1NhLzRJYTVVOGI1S0xZMGhYNW5Nd2VUc01lcG9TWmw1WndJd2liQkRJYTRFSVJjR0dCbyYjeGE7VWRrMEJBTE1hSFVaNmY2K1FqRTdEczNZdEZEUnRSNEZxTXBoTyt1TGdPMzJHb0RlaE5sUzE5a0pXRXB1Rkl1T2JPS2Y1MmtBaHIwRyYjeGE7eEVXUnhuS25FaTgwVklwN21ES1JKcEFQd2ZZbkNkTTlNQUpzeWdDRU8wOXA1RXR0Tk00Q0NSZENJRkxhYjRuZXpsbG9ZenFMc3lpViYjeGE7bnRiU1RDWnh6V1RFaHFjVWxlS1lGRU9vMWdsTHAyeXh4OFV0eVl2U0pBY0RFMVFxZEg3U0hsOVJwV2N0VlBDSXRYYWVUQmgyMnJYLyYjeGE7bHRtd2Y2aGkrNlhJNldqR2FhUE1WM2RFbjBDUGM3ZGM1WTdseG9WN0lMYlNIUmpFYXNtNW1DaVpCNFE4YVVWNkpFQmowYUw4QjlRQSYjeGE7eHJuWmpvVjFManFrUzNpSERDb1cwMVphK1VRaENKLzAyNm82ck4vdUhyWThLZnFQZVZKc0tDZ0Z1d0VZZGxtaDZ6ZVNtOFpDRUZwNiYjeGE7Q21TOE5pd2pQL1ZoSXFkWnlRVVkwa1VXcDBEWG0yTHRhNUpLN1FxakF0VGtqZUFWVzgvSFBIeFkwOUwyTWs4WVlGRnNuY0VLZUJFeCYjeGE7aWNzaVoxQklVaGp6eElVUExDK09ZZU1MUTg4MXFVQkxUcmFyQUtKRGlhNkFUTzZXNUIwa3VkeGxZUk5YUkJTbFVtWms0NnpWaHBvcCYjeGE7UzNJRElhUGlTbG9OOGNvc2R2QWhobU0xeHJBYW1JMVhYVUtqTkRqeXZnZnhzRW1Eb1pjc2xZNjFIb2gxUVNKV2w5TkRGQUxvT3JRZCYjeGE7R1FNV0pOc0VNalFZZ0lubFlrazJ1WkNMVExJd1JHL2tLRHRwcFd5WlVRMldMYnRvZzR1OFI3RzA0amtWQ0laOUNNRTZBSWw4MExZRiYjeGE7TVRSSkVheFhWTG9vUFhSRmJyQ2kyRnFmRUN4bXkza0RSeFlXK3k1UnpOY1ltSDBtUDFXOEVpSU1JRFFXTVpBVCtRQVlPMk5zSWJWUyYjeGE7bkZsa1pZaDg1eFZIdks2Qm5XWlpOVVIvSjVpOUZ2OEVlRDY5RDlMS2t4UWdhYjhaY1p2K29nQU11RXppbWlPQjM5RmV6QUp2WW9QZiYjeGE7U05Pa3hCYm5mbndBWjU4a1Roa0VPbEV1K3l0T1l0NFlxbGl0RGpidk80Z0o0T3J2d2RGdEZDcjNJVWhNTjA3RTdtT0ZFdFI5WnV5byYjeGE7emFhaXZQeVFyWlhheDUxYXR5WThzRkVVd0JXMjk3V1ZEa2RWR09tMXpRQVVXeGVGQnVtSGtHM1pTaGVXOUs0eHpGUkw1Zlk1NTlZRiYjeGE7WlVEamx3Ym1oYnVKeWVPSmNrRkpVeTVKWTIxLzdQaUd0UEdKd3pBcFcwekt1K2hXWStSVkY2V2xLcWF2cllEcFBaK1NyNFY5azNodiYjeGE7RUJHRWVYZStoWEVhaHVteWdueUlxaVVWaE9qR0NOY3hqdTF1aFMzNmRNUXVVSEp2UzE0MHF2Y0JOTnRWc0UxVVFnVXcrSklBU0ZmWSYjeGE7SVFEaFZZQVJ4dkJPQy9aWGtIUzJkZ1VZYjRCbC95ZmVBRXZoNEJXQVNjczZpalVXdThRMlVBREc1Z3k4dEpxWEZiYVNMU3RSWVhaaiYjeGE7Z2tZdm9Vdmw0cDNlSUJHTFhRbVJTd1oydGZ5TDdacTZlZzRFQ3NEWXVRazR3SlpPekZvZDh1cS9mSUJLK1pjSDRGZC9lU0JWN0FvQiYjeGE7Vk1wK3BDa1RyNkRLbWFXdEFvWXk5NE1Gd2hJUVNVSlpRNFJnN1NsenRWUVN6RGdLZ1hRVFFoV2dXaHoySDMrTVNwR1lYRmNrRGFzeSYjeGE7aGd6MWtGY2t4bzZGT1lPR09XeFFTWmlqdTVJOTdvMmtmeVVGZ2xDN0JJek9DNUJ5alJqN0l1WkNqMVJRUXpWaTdGbkYyNDk0cVNaUCYjeGE7UE9TUEpySkhybFNLZDRJRUJxRXJYaXFWTFpUbHhPbnBYU1ZpUWtxYWxmRDRYWnc2NTNPbFJJd3dic3RzU2lrMjVOZUsrU0ErandwQSYjeGE7Vk5CSWFEK1JCb2dNUXFrQWtwQkp1WVI4V3IwQlpPelBVU2s0ZUQ4VFdMdVNqbWU1SklkNEdWOCtURFhseTREN3MycUdKSzZkbWQ2ZCYjeGE7OG1YWW1Gc1JEWGovV0o2RlVyNTR5UjR2aTZhUFVpSVQxWlF2OXE5THJmWXp2ZG9QL0FTdnpxTktYaGZmSnRuaFZTUGVzSE9tdFhKUCYjeGE7a2JXQjhvd0QyUkJ4dUpETVhUYW1OMGdtNmM5c3ZzaUxCbHgrRjZ2em1kOUZ5NUVRbVpVZWsyeDlGb2Z5dXdpVHBPN09wSUxPSy9sZCYjeGE7aHJhbDRmVnNqTTZiUUg0WElkalJneEM1aEtiOS9DN2VWaWhYMjdIM29XQmJKYjJMVnlySnBjM1FDeE9YUE51ZG1zVk40KzF3ckp0TyYjeGE7SGQrcnBuY1o3YXg0TmhObCsxWi9EQWxMc0N3TzU4anJFN3owcmdDRWw5N2x3MVRUdTRpTGN2TFZyQzR1UXZKNi9HUXVuamhZb3pRRyYjeGE7QkQ3bmZqSVgrN1BSRENTSUdOTFZaQzRmd0UvbUNzQlVrcmw0RWd5SitYS1dWY2RhWEZpYURRMkQwcHBJNk82ck1YSnhnamNJcVlVSiYjeGE7Mi9Teml5Kyttc0lsdlZNTjZ5aGoyZ2MybE1KbHBDc3NtMFhHcmVCakpZV0xkNzZ4T29QVWtVYkd6K0FpQUYwZkJORFVFZ0pSUXE3RyYjeGE7dUVzNWVRMXk3S2R5c1U4Z2t4b3psOXFXK05sWWNnRlhLcnNHcFZXRlVycDRKVzhrN1dvaE55SnJRNE40UExTUzA5V2Z5OUtYd1V0ViYjeGE7ZWFrWmxra05QWldtQzFMTXdhSElFazdETU02b2xuczc4eUVmb3NyM29UZmFUS0pPVURWSk55SHBZVE1KSUdmVU5ZUFNZNmNSaE5HNSYjeGE7cE5RekoxYUZSbUduUHlXVkUzSi9Xd0FDTnAxU2t0R2dsTGdPQTdPdHdBVFdYSUhZQyt3Y1c5TEliRk9vUkhGYVhHdGJnU0dQRUhlZSYjeGE7WEVrZmVGUFZhV2g0blI3N29QTHFJWlVFSzJlTlRhVGpjY1llSHBKSDRZK1NTZ0lSSUtqREY4ak5KanhFYnZhSWxGMWh4aGQyaFI0ZSYjeGE7cDFvSlA4bVVZbThjdDNQQTBwZ21SZXBTSlUyaG9jSGFwVmtBODYzSnhxWGNmK2RlaVl0N3o4RUFsUnhoanMybmxpZk85RmF0RnhFaCYjeGE7RTJFbHJ5bm9MR1Buajl3NWlYTG5XWE8zeG5EQkxGdVdXRnFVRllFRXVlbVd0MDVqcjdSY0srVytkamN2OHg0ZVhwVU9uU0Jwd1p0YyYjeGE7OUMyR0p4aTdkb2FWcTBKazAvbE1idDFMVTdtV0w1Rms5S2d3N3lXaUpkMW5JQWVjUllJVlN2b2M5NFFCTWV5SlpzYWRBR1M4WGpmbCYjeGE7L1lvT0M2VE1sQ3dKdStNZ2NrNlBwK2d5TUZ6QU5ja3hYNUhkVlJDbWNWQWlHMmsrS1owY3F5QlZwTjJVVG5PMGx0aHBqb2x1QWRSbiYjeGE7TW4wcXhhVjA0R2MrQkFqVmg2bVNvUTlSSmVVUVJOVXM4V2RiWlN2ZWtuM2VWQVh4R0Z3QW9JdEw3c2dZTWcwSURDbzZQb3hjWW02ayYjeGE7dFNXeklsUUlvaDgzRnYyWjEzMktHc2RHczQ3eGlJVEY3b00yVlhGYnVkZ2VKRnlKTXhCR3hHSE1IQVJCaGFSRlplQnpVaFBPMndGaSYjeGE7OGR3ek1RSTdseklJemtWRnZPRXJFTU15dkp3dW5DUEN4bnFpSnFhOFJUR2cwMEpReWZVN1dTb05jMTBXaWR4YkEzMktmVHdGUWhRUCYjeGE7emJiRFZLaVkvaGNKbDBrelNURG5qNVZUWmJ1cjNxVG5LbHVsVTJsblYzaEpiSE1ST21nSWNTNFFxYlExWThwWjVsTDdpNWcvczJTRSYjeGE7b3RnaVFsZ2QweWdMV2NJZ0UwQ1VvZ3FXOG1vL3RocGh6Ymh5U3I4MEZHTlpMMTBjaEloTTJSdFhoZUJlRmRuZC9vL1pVWnQ0eC93bCYjeGE7S1NZSFNZaERobW5vMUU5eDBzTGtxSDlZbDQ0b2w5WVpROThlODJJRkdYaEhFcEZCZWpOSVIyUlJZUTNid1FreUVLZFlmWUN6ME1iQiYjeGE7Rk5jY3NNbEpHTWJ6ZElVZ3VoMnNScG84a0JNcUpnWDQvbE5lTko1THMzSmVMcUY5ZHpVQk1BcEdZQ2U3UUFvRlZ4d0FxY3kwQ3VIWiYjeGE7ekNHSUt2TkpqQ1FMeTF5ZHlWZGxQbktibnpSTGREZFhCU0hFQXdBV0hjazlXYUgzQkdDY2pneFdtZkdTQkI5Q3QxSmNFbWJEa2N2MSYjeGE7NHh2bHhBZkQvdm5NUGs2bFQwYkEzZ1NYWVdrMGpGL0FhSkZaSG9teit6bWJ1cWZHU25EZlN4czNFaDhDTzJSQ2RwWUgwOGFOWEJ5VyYjeGE7c3RzbHV6dzZlMVA0QlBnK2V5aGErcmVnSFFOQUNvb2tHcStGYlRKb251Z0FoSjgrN3NOVWtTWUlVVUZ2ekZYdUk2Z2lMWjEwYkNVQyYjeGE7T3p6V2dhb0dicFhnU1NxWHhJYktIb0lnM2Y1Ykg4SkxHeWRNSkZYMnZHVlN2S05lM2pnUE5xR0d4bjVldG5CSGR3PT0mI3hhOwkmI3hhOwkmI3hhOwk1WTBUUGRoMmdPZ2hmUks5akcvRDI3RXp1VUxJbXFKdlNTVnRISk9DbWNQOVROTWlQZDBiSkdMUkV5OVJ3TDRYYlFDNjBzWURFSzIwJiN4YTtjZjlSa2VuTnlZcyttc3B0TDZiMGdNM3ltSDlvMklXdW5EYk9iWk9yTjFJbVhaWWViWVllZVdualBrd2xiWndBVHBLcW9wNDhsaW8vJiN4YTtQR0E4T01yRXY1Qzc0dDVLc3JpUnU3WmNxbkhNanNaZXNyakpxVW54TWdGclZlR2E2c3J5TnJ3OWo1NFM0clVPNTRyelJHT1RKT3g3JiN4YTtFa3Uxb3pkS1prV3Q1UVVtY1NGUnUxTEZEZU04N0NPTEUrZWRHRU9CVkhIQ0pEb2U4akxFb1N2TGhTUVpFM1ZhR2UrSjJDY3hOZnBZJiN4YTtJQXo3S0xGRm5ldFU2T1dLYzNnbE5hdXAvRTRjWEs2akFlMStIa1dXdUNzRjZHRGx6WEFCdnRhUE9iWUNaRUp0Q1R2MWd0cWtZTmZQJiN4YTtGZWZ4TVhPVUxlVGxYdTlBZ2pEUFIvTlNGSHpOMWpNK0RCYnQvQnVNeHVyRStNbmlQSjJVd29yVWx1WjVLRm1jSk1tZXZpNUhYSnFpJiN4YTtnUE5hSGkxejBjdHFESTJMMkZWTEswUHowWVB3YzhRRE1DNUhuSHN1RnlPa2FaUmFHM0tuODk0V1FmS0UzVnpEUHZtY2ZtNTJWN2F1JiN4YTtIdDBiaE9tSTBxL0pzRXpjeFFZeWRuckQyWUhOWmtKdTNMV01EWER6TEE1NmdVak15aDJxZHVIL1Z0SzRUK2QrMG5pQVh3VE91eC9lJiN4YTtsQUtabHI1eHVZTWdrcmhaS0VreEFOT2RwT2dEVkpNVWd4RGRJc3F5dzQyUzVBOWVwdVRMUWZ4Y3N1M1l3aVBKQThvYkFlZ2xLR0dJJiN4YTs5NUlRU1BkTVBZanFZbjBBTDN2TW4yb1Z4bCt0RDlIdlpNZ29NQ04zUlFxejJhVHhHWXRXSldjdlN0anI0elFFa2hTUnNVaTZuZUJWJiN4YTs3bHIyTEpIMEJlYmQ4WTRrV2tUc0g4eU80THljQ2J5V0ZmQzhQTlNIT0dpd1pUcnRRVjVYQWJHWmhrYlJFcVBLNU9wb2xRWm00a04wJiN4YTtMNGV2OFVCYUdXRlJ6aStIQWhQUjdySXBhRHJNTnc0dHB3S0I5L2liVWgzRjM5anFUUHFkRHYyb1hCRFRFUEFpcHJFRWN3bUNNRjAyJiN4YTtody9ocWFBaGlBcDVTSEk3eEVtU1NhcXdUMkpZRUsrVjQ2Ymt1Wi9pd3VlVzBpMWh5bERxRDdEY0NJSjBUOVNEOEJZYmdxZ1lQdDVVJiN4YTtxeUQrWW4ySWZpZFR6c1N5VEdLMXZIcE9yZzROMkRTbmNrTUpCRmxNaDJDVWh5ckZZRlUxMlVzc1MyakRwb2x2OTFqMkQyVVJTOElpJiN4YTtqS0pGaTVTZTBlNUpwWDdDR2c2YkFnWjduK21RNGNPMFB3Z0ZRRWpqMTREaDQwRUVEQjhQeGp2TUVFUzM0VU1RM2luT3lhWlpDS3VNJiN4YTtrUlJGckZncUxZSUEvVGgvQ0tUTEFncEFlQllRcjNPUVVDcExlZUtpSzVoYzFFQUxLQkVMaUdkTXB4RFBPR3ZOdHNzQ0lxYlFRVUpNJiN4YTtVVTRKcUJndlZyS21DTUYrRFdrY01vRXNnNWlzZitKRkREcGtKb0ZFbXN5TVpic3lsUlpkbWJ0TW9BQkV5d1R5SHhWV0MyY3YwWDdnJiN4YTtBakFoN2p6Z0JjcU0zYkpOczl3ZjN6YUJ1RzlRVjRpemllS0ZnQjBUS1BESU00RjhHSnBBdkc2QWtWVFFrOXl6SVRkbzBRSlJSV01zJiN4YTt1UW1OeGhBRG1wd2RYWlNacFBYcEpHUU44ZWhvTjlENXJ0T2laVWVYTlFUYjJOMEFrOEFza1R1YXE0WU10NGNkTGxpZ0s1Y3dCTXdoJiN4YTt5NVE4Q3FjRVdxQXA2dkFxb3pDaUNNUktXRUtoQTZXelBINHhxUkplRW1mamtEMUVHRWRaekNQSkV0OHdzcnl5VjVoSkVrRTdEaGhHJiN4YTtsajJrOFE2V1lhcThLUE90R0VZY3hUVlZ0ZGpzTEdBWWNUM3VCSzFjSEJCZ2ZIM1paOHN3RWlJc1gvb1dNSXg0Mm5MMUlkQTlTb0oyJiN4YTtrV1dHT20wYTVzcTdGdHNWR0NDRjVGWXltSndYUFNPN3pDSXJ6bjRoUVMzSTRGdEZsdW5uaG4xcjVSNlMxRGVQQ0NGQjNRU0tRcG9hJiN4YTt2NFRXaC9ETm93Q01NNCs0Q0ZWMHhPMHlhTGorR0JZVFZrZmZlS0MybGdUQjlDODVGT21OR2hpRlJPK0tadGsrdGNpcWNvbFowaTFCJiN4YTtTSk8xY3J3Q1I2ZkdtVHhTaEdyWUFsSWlFMExnY2lzWENOeFlWVEtMZk5yM3phSUFEL0dQdXkvV0ZHWlI0RDZhbGY4bkxxSHg3M0t4JiN4YTt1UlBJTWFQM0thOG5Ec0FVRjdPUWJhUUZONjJLNUZvd2xYZHQxcGlQM1BNMTlNSkJsdStZWVdlZlpudSs1U2N6cks1cjhxZmpXeE5EJiN4YTtrLzVFMmovMW5sUi91cm5VR0YxOGFyK3VuaDF1N3YvbjZHSm1wakU2K21yL3g5RzdpLzFmSjBjWGpSOS85Ly9YMGREKzJkbnZ5LzNMJiN4YTtvejk0TXZUajR1anY1ZStMbzZHL1AzLy9ENy9CVDFyZ282T3JMOWNhL3o5U2wxSUQmI3hhOwkmI3hhOyYjeGE7PC9zdmc+;" vertex="1" parent="1">
          <mxGeometry x="1439.21" y="878.65" width="191.57" height="270.7" as="geometry" />
        </mxCell>
        <mxCell id="-YayVQwCSqtVJ1XMJFyR-63" value="" style="endArrow=none;html=1;rounded=1;strokeColor=#007A3D;strokeWidth=6;arcSize=40;" edge="1" parent="1">
          <mxGeometry width="50" height="50" relative="1" as="geometry">
            <mxPoint x="240" y="599.8800000000001" as="sourcePoint" />
            <mxPoint x="840" y="599.8800000000001" as="targetPoint" />
            <Array as="points" />
          </mxGeometry>
        </mxCell>
        <mxCell id="-YayVQwCSqtVJ1XMJFyR-64" value="" style="ellipse;whiteSpace=wrap;html=1;strokeWidth=4;" vertex="1" parent="1">
          <mxGeometry x="1313.5" y="1116" width="20" height="20" as="geometry" />
        </mxCell>
        <mxCell id="-YayVQwCSqtVJ1XMJFyR-65" value="" style="endArrow=none;html=1;rounded=1;strokeColor=#007A3D;strokeWidth=6;" edge="1" parent="1">
          <mxGeometry width="50" height="50" relative="1" as="geometry">
            <mxPoint x="697" y="670" as="sourcePoint" />
            <mxPoint x="697" y="680" as="targetPoint" />
          </mxGeometry>
        </mxCell>
        <mxCell id="-YayVQwCSqtVJ1XMJFyR-66" value="Lime Survey" style="text;html=1;strokeColor=none;fillColor=none;align=left;verticalAlign=top;whiteSpace=wrap;rounded=0;fontFamily=London Tube;fontSize=12;fontStyle=0;spacingLeft=4;fontColor=#22387D;" vertex="1" parent="1">
          <mxGeometry x="607.5" y="564.5" width="85" height="25" as="geometry" />
        </mxCell>
        <mxCell id="-YayVQwCSqtVJ1XMJFyR-67" value="REDCap" style="text;html=1;strokeColor=none;fillColor=none;align=left;verticalAlign=top;whiteSpace=wrap;rounded=0;fontFamily=London Tube;fontSize=12;fontStyle=0;spacingLeft=4;fontColor=#22387D;" vertex="1" parent="1">
          <mxGeometry x="668.88" y="637.5" width="85" height="25" as="geometry" />
        </mxCell>
        <mxCell id="-YayVQwCSqtVJ1XMJFyR-68" value="Intro to R" style="text;html=1;strokeColor=none;fillColor=none;align=left;verticalAlign=top;whiteSpace=wrap;rounded=0;fontFamily=London Tube;fontSize=12;fontStyle=0;spacingLeft=4;fontColor=#22387D;" vertex="1" parent="1">
          <mxGeometry x="242" y="304.5" width="80" height="30" as="geometry" />
        </mxCell>
        <mxCell id="-YayVQwCSqtVJ1XMJFyR-69" value="Longitudinal studies in REDCap" style="text;html=1;strokeColor=none;fillColor=none;align=center;verticalAlign=top;whiteSpace=wrap;rounded=0;fontFamily=London Tube;fontSize=12;fontStyle=0;spacingLeft=4;fontColor=#22387D;" vertex="1" parent="1">
          <mxGeometry x="719.25" y="635" width="123" height="35" as="geometry" />
        </mxCell>
        <mxCell id="-YayVQwCSqtVJ1XMJFyR-70" value="Publish or perish?&lt;br&gt;(end of the line)" style="text;html=1;strokeColor=none;fillColor=none;align=left;verticalAlign=top;whiteSpace=wrap;rounded=0;fontFamily=London Tube;fontSize=12;fontStyle=0;spacingLeft=4;fontColor=#22387D;" vertex="1" parent="1">
          <mxGeometry x="1325.71" y="472.5" width="113.5" height="30" as="geometry" />
        </mxCell>
        <mxCell id="-YayVQwCSqtVJ1XMJFyR-71" value="Formulating open-ended questions" style="text;html=1;strokeColor=none;fillColor=none;align=left;verticalAlign=top;whiteSpace=wrap;rounded=0;fontFamily=London Tube;fontSize=12;fontStyle=0;spacingLeft=4;fontColor=#22387D;" vertex="1" parent="1">
          <mxGeometry x="233.5" y="561" width="123" height="25" as="geometry" />
        </mxCell>
        <mxCell id="-YayVQwCSqtVJ1XMJFyR-72" value="Qualitative survey validation" style="text;html=1;strokeColor=none;fillColor=none;align=left;verticalAlign=top;whiteSpace=wrap;rounded=0;fontFamily=London Tube;fontSize=12;fontStyle=0;spacingLeft=4;fontColor=#22387D;" vertex="1" parent="1">
          <mxGeometry x="480" y="561" width="100" height="25" as="geometry" />
        </mxCell>
        <mxCell id="-YayVQwCSqtVJ1XMJFyR-73" value="Mixed methods foundations" style="text;html=1;strokeColor=none;fillColor=none;align=left;verticalAlign=top;whiteSpace=wrap;rounded=0;fontFamily=London Tube;fontSize=12;fontStyle=0;spacingLeft=4;fontColor=#22387D;" vertex="1" parent="1">
          <mxGeometry x="236" y="1001.5" width="94" height="25" as="geometry" />
        </mxCell>
        <mxCell id="-YayVQwCSqtVJ1XMJFyR-74" value="Intro to structural equation modelling" style="text;html=1;strokeColor=none;fillColor=none;align=left;verticalAlign=top;whiteSpace=wrap;rounded=0;fontFamily=London Tube;fontSize=12;fontStyle=0;spacingLeft=4;fontColor=#22387D;" vertex="1" parent="1">
          <mxGeometry x="487.5" y="910" width="130" height="35" as="geometry" />
        </mxCell>
        <mxCell id="-YayVQwCSqtVJ1XMJFyR-75" value="Formulating closed questions" style="text;html=1;strokeColor=none;fillColor=none;align=center;verticalAlign=top;whiteSpace=wrap;rounded=0;fontFamily=London Tube;fontSize=12;fontStyle=0;spacingLeft=4;fontColor=#22387D;" vertex="1" parent="1">
          <mxGeometry x="352.5" y="561" width="110" height="25" as="geometry" />
        </mxCell>
        <mxCell id="-YayVQwCSqtVJ1XMJFyR-76" value="" style="endArrow=none;html=1;rounded=1;strokeColor=#007A3D;strokeWidth=3;shape=link;endSize=6;" edge="1" parent="1">
          <mxGeometry width="50" height="50" relative="1" as="geometry">
            <mxPoint x="1508.5" y="409.5799999999999" as="sourcePoint" />
            <mxPoint x="1608.500000000001" y="409.5799999999999" as="targetPoint" />
          </mxGeometry>
        </mxCell>
        <mxCell id="-YayVQwCSqtVJ1XMJFyR-77" value="Stats Light Rail" style="text;html=1;strokeColor=none;fillColor=none;align=left;verticalAlign=middle;whiteSpace=wrap;rounded=0;fontFamily=London Tube;fontSize=18;fontStyle=0;fontColor=#22387D;" vertex="1" parent="1">
          <mxGeometry x="37.5" y="945" width="140" height="30" as="geometry" />
        </mxCell>
        <mxCell id="-YayVQwCSqtVJ1XMJFyR-78" value="The meaning of logistic regression" style="text;html=1;strokeColor=none;fillColor=none;align=left;verticalAlign=top;whiteSpace=wrap;rounded=0;fontFamily=London Tube;fontSize=12;fontStyle=0;spacingLeft=4;fontColor=#22387D;" vertex="1" parent="1">
          <mxGeometry x="617.5" y="910" width="130" height="35" as="geometry" />
        </mxCell>
        <mxCell id="-YayVQwCSqtVJ1XMJFyR-79" value="A case for Bayesian" style="text;html=1;strokeColor=none;fillColor=none;align=left;verticalAlign=top;whiteSpace=wrap;rounded=0;fontFamily=London Tube;fontSize=12;fontStyle=0;spacingLeft=4;fontColor=#22387D;" vertex="1" parent="1">
          <mxGeometry x="352.5" y="925" width="130" height="20" as="geometry" />
        </mxCell>
        <mxCell id="-YayVQwCSqtVJ1XMJFyR-80" value="Interviewing skills in mixed methods" style="text;html=1;strokeColor=none;fillColor=none;align=left;verticalAlign=top;whiteSpace=wrap;rounded=0;fontFamily=London Tube;fontSize=12;fontStyle=0;spacingLeft=4;fontColor=#22387D;" vertex="1" parent="1">
          <mxGeometry x="535.75" y="1070" width="117" height="25" as="geometry" />
        </mxCell>
        <mxCell id="-YayVQwCSqtVJ1XMJFyR-81" value="" style="endArrow=none;html=1;rounded=1;strokeColor=#22387D;strokeWidth=6;arcSize=40;" edge="1" parent="1">
          <mxGeometry width="50" height="50" relative="1" as="geometry">
            <mxPoint x="243" y="336.5" as="sourcePoint" />
            <mxPoint x="1440" y="337" as="targetPoint" />
            <Array as="points">
              <mxPoint x="563" y="336.5" />
            </Array>
          </mxGeometry>
        </mxCell>
        <mxCell id="-YayVQwCSqtVJ1XMJFyR-82" value="Taming ggplot in R" style="text;html=1;strokeColor=none;fillColor=none;align=center;verticalAlign=top;whiteSpace=wrap;rounded=0;fontFamily=London Tube;fontSize=12;fontStyle=0;spacingLeft=4;fontColor=#22387D;" vertex="1" parent="1">
          <mxGeometry x="1280" y="290" width="77.25" height="24" as="geometry" />
        </mxCell>
        <mxCell id="-YayVQwCSqtVJ1XMJFyR-83" value="Excellent graphics in R" style="text;html=1;strokeColor=none;fillColor=none;align=center;verticalAlign=top;whiteSpace=wrap;rounded=0;fontFamily=London Tube;fontSize=12;fontStyle=0;spacingLeft=4;fontColor=#22387D;" vertex="1" parent="1">
          <mxGeometry x="970" y="296.5" width="95" height="24" as="geometry" />
        </mxCell>
        <mxCell id="-YayVQwCSqtVJ1XMJFyR-84" value="Multinomial regression" style="text;html=1;strokeColor=none;fillColor=none;align=right;verticalAlign=top;whiteSpace=wrap;rounded=0;fontFamily=London Tube;fontSize=12;fontStyle=0;spacingLeft=4;fontColor=#22387D;" vertex="1" parent="1">
          <mxGeometry x="721.5" y="915" width="90" height="20" as="geometry" />
        </mxCell>
        <mxCell id="-YayVQwCSqtVJ1XMJFyR-85" value="Understanding probability" style="text;html=1;strokeColor=none;fillColor=none;align=right;verticalAlign=top;whiteSpace=wrap;rounded=0;fontFamily=London Tube;fontSize=12;fontStyle=0;spacingLeft=4;fontColor=#22387D;" vertex="1" parent="1">
          <mxGeometry x="233.5" y="915" width="100" height="40" as="geometry" />
        </mxCell>
        <mxCell id="-YayVQwCSqtVJ1XMJFyR-86" value="" style="rounded=0;whiteSpace=wrap;html=1;glass=0;labelBackgroundColor=none;labelBorderColor=none;fontSize=12;fontColor=#22387D;strokeColor=none;strokeWidth=1;fillColor=#22387D;" vertex="1" parent="1">
          <mxGeometry x="2" y="1140" width="1650" height="29" as="geometry" />
        </mxCell>
        <mxCell id="-YayVQwCSqtVJ1XMJFyR-87" value="&lt;font color=&quot;#ffffff&quot;&gt;Design elements and colours based on Harry Beck&#39;s 1933 London Underground map.&amp;nbsp;&lt;/font&gt;" style="text;html=1;strokeColor=none;fillColor=none;align=left;verticalAlign=top;whiteSpace=wrap;rounded=0;fontFamily=London Tube;fontSize=12;fontStyle=0;spacingLeft=4;fontColor=#22387D;" vertex="1" parent="1">
          <mxGeometry x="58" y="1139" width="572" height="30" as="geometry" />
        </mxCell>
        <mxCell id="-YayVQwCSqtVJ1XMJFyR-88" value="Reproducible research" style="text;html=1;strokeColor=none;fillColor=none;align=center;verticalAlign=top;whiteSpace=wrap;rounded=0;fontFamily=London Tube;fontSize=12;fontStyle=0;spacingLeft=4;fontColor=#22387D;labelBackgroundColor=none;labelBorderColor=none;glass=0;spacingBottom=0;strokeWidth=1;" vertex="1" parent="1">
          <mxGeometry x="344.25" y="830" width="90" height="25" as="geometry" />
        </mxCell>
        <mxCell id="-YayVQwCSqtVJ1XMJFyR-89" value="" style="ellipse;whiteSpace=wrap;html=1;strokeWidth=4;" vertex="1" parent="1">
          <mxGeometry x="1248.5" y="1056" width="20" height="20" as="geometry" />
        </mxCell>
        <mxCell id="-YayVQwCSqtVJ1XMJFyR-90" value="" style="endArrow=none;html=1;rounded=1;strokeColor=#000000;strokeWidth=6;dashed=1;exitX=1;exitY=1;exitDx=0;exitDy=0;entryX=0;entryY=0;entryDx=0;entryDy=0;dashPattern=1 1;" edge="1" parent="1" source="-YayVQwCSqtVJ1XMJFyR-89" target="-YayVQwCSqtVJ1XMJFyR-64">
          <mxGeometry width="50" height="50" relative="1" as="geometry">
            <mxPoint x="1187.6410678118707" y="1158.9289321881292" as="sourcePoint" />
            <mxPoint x="1253.4989321881344" y="1093.0710678118655" as="targetPoint" />
          </mxGeometry>
        </mxCell>
        <mxCell id="-YayVQwCSqtVJ1XMJFyR-91" value="" style="shape=image;verticalLabelPosition=bottom;labelBackgroundColor=default;verticalAlign=top;aspect=fixed;imageAspect=0;image=data:image/png,iVBORw0KGgoAAAANSUhEUgAAATwAAAYWCAYAAAA+lRXYAAAKq2lDQ1BJQ0MgUHJvZmlsZQAASImVlwdUU9kWhs+96SGhJUQ6oTdBOgGkhNBClw6iEpIAoYQYCCo2RAZHcCyIiIAi6KiIgmMBZLAhim1QUOw6QQYBZRws2FB5F1gEZ956762319o5X/bd5z/73HXOWvsCQFbkiETpsCIAGcJscZivJz0mNo6OGwQQUAXyyK8zh5slYoaGBgLEZsa/2/u7SB5ity0mtf79+X81JR4/iwsAFIpwIi+Lm4HwScRfcEXibABQe5G4/rJs0SR3IEwVIwUifH+Sk6d5ZJITpxgNpnIiwlgIUwHAkzgccTIAJDoSp+dwkxEdkgfCVkKeQIiwCGG3jIxMHsLHEDZBcpAYaVKfkfidTvLfNBNlmhxOsoyn9zJleC9Bliids+L/fB3/2zLSJTNrGCFOShH7hSGjMvLO7qdlBshYmBgcMsMC3lT+FKdI/CJnmJvFipthHscrQDY3PThwhpMEPmyZTjY7Yob5Wd7hMyzODJOtlSRmMWeYI55dV5IWKYun8Nky/dyUiOgZzhFEBc9wVlp4wGwOSxYXS8Jk9fOFvp6z6/rI9p6R9d1+BWzZ3OyUCD/Z3jmz9fOFzFnNrBhZbTy+l/dsTqQsX5TtKVtLlB4qy+en+8riWTnhsrnZyIGcnRsqe4epHP/QGQYskAnSERcDOghE/nkBkM1fnj25EVamaIVYkJySTWciN4xPZwu5lnPpNlY2tgBM3tfp4/CWNnUPIdq12dh6IgCuwomJibbZWMBnAE7qAkCUzsaMewCQR879lW1ciThnOjZ1lzCACBQAFagBbaAPTIAFsAEOwAV4AG/gD0JABIgFiwEXpIAMpPJlYBVYBwpBMdgKdoAKUA32gUPgKDgOmkEbuAAug+vgFugFj4AUDICXYBS8B+MQBOEgMkSB1CAdyBAyh2wgBuQGeUOBUBgUCyVAyZAQkkCroPVQMVQCVUA1UB30C3QaugBdhbqhB1AfNAy9gT7DKJgEU2Et2AieBzNgJhwAR8CL4GR4KZwLF8Cb4XK4Fj4CN8EX4OtwLyyFX8JjKICSQ9FQuigLFAPFQoWg4lBJKDFqDaoIVYaqRTWgWlGdqNsoKWoE9QmNRVPQdLQF2gXth45Ec9FL0WvQm9AV6EPoJnQH+ja6Dz2K/oYhYzQx5hhnDBsTg0nGLMMUYsowBzCnMJcwvZgBzHssFkvDGmMdsX7YWGwqdiV2E3Y3thF7HtuN7ceO4XA4NZw5zhUXguPgsnGFuF24I7hzuB7cAO4jXg6vg7fB++Dj8EJ8Pr4Mfxh/Ft+DH8SPExQJhgRnQgiBR1hB2ELYT2gl3CQMEMaJSkRjoisxgphKXEcsJzYQLxEfE9/KycnpyTnJLZATyOXJlcsdk7si1yf3iaRMMiOxSPEkCWkz6SDpPOkB6S2ZTDYie5DjyNnkzeQ68kXyU/JHeYq8pTxbnie/Vr5Svkm+R/6VAkHBUIGpsFghV6FM4YTCTYURRYKikSJLkaO4RrFS8bTiPcUxJYqStVKIUobSJqXDSleVhpRxykbK3so85QLlfcoXlfspKIo+hUXhUtZT9lMuUQaoWKoxlU1NpRZTj1K7qKMqyip2KlEqy1UqVc6oSGkomhGNTUunbaEdp92lfZ6jNYc5hz9n45yGOT1zPqhqqHqo8lWLVBtVe1U/q9HVvNXS1LapNas9UUerm6kvUF+mvkf9kvqIBlXDRYOrUaRxXOOhJqxpphmmuVJzn+YNzTEtbS1fLZHWLq2LWiPaNG0P7VTtUu2z2sM6FB03HYFOqc45nRd0FTqTnk4vp3fQR3U1df10Jbo1ul2643rGepF6+XqNek/0ifoM/ST9Uv12/VEDHYMgg1UG9QYPDQmGDMMUw52GnYYfjIyNoo02GDUbDRmrGrONc43rjR+bkE3cTZaa1JrcMcWaMkzTTHeb3jKDzezNUswqzW6aw+YO5gLz3ebdczFzneYK59bOvWdBsmBa5FjUW/RZ0iwDLfMtmy1fzTOYFzdv27zOed+s7K3SrfZbPbJWtva3zrdutX5jY2bDtam0uWNLtvWxXWvbYvvaztyOb7fH7r49xT7IfoN9u/1XB0cHsUODw7CjgWOCY5XjPQaVEcrYxLjihHHydFrr1Ob0ydnBOdv5uPNfLhYuaS6HXYbmG8/nz98/v99Vz5XjWuMqdaO7JbjtdZO667pz3Gvdn3noe/A8DngMMk2ZqcwjzFeeVp5iz1OeH1jOrNWs814oL1+vIq8ub2XvSO8K76c+ej7JPvU+o772vit9z/th/AL8tvndY2uxuew69qi/o/9q/44AUkB4QEXAs0CzQHFgaxAc5B+0PehxsGGwMLg5BISwQ7aHPAk1Dl0a+usC7ILQBZULnodZh60K6wynhC8JPxz+PsIzYkvEo0iTSElke5RCVHxUXdSHaK/okmhpzLyY1THXY9VjBbEtcbi4qLgDcWMLvRfuWDgQbx9fGH93kfGi5YuuLlZfnL74zBKFJZwlJxIwCdEJhxO+cEI4tZyxRHZiVeIol8XdyX3J8+CV8ob5rvwS/mCSa1JJ0lCya/L25OEU95SylBEBS1AheJ3ql1qd+iEtJO1g2kR6dHpjBj4jIeO0UFmYJuzI1M5cntktMhcViqRLnZfuWDoqDhAfyIKyFmW1ZFORxuiGxETyg6Qvxy2nMufjsqhlJ5YrLRcuv7HCbMXGFYO5Prk/r0Sv5K5sX6W7at2qvtXM1TVroDWJa9rX6q8tWDuQ55t3aB1xXdq63/Kt8kvy362PXt9aoFWQV9D/g+8P9YXyheLCextcNlT/iP5R8GPXRtuNuzZ+K+IVXSu2Ki4r/rKJu+naT9Y/lf80sTlpc9cWhy17tmK3Crfe3ea+7VCJUkluSf/2oO1NpfTSotJ3O5bsuFpmV1a9k7hTslNaHljesstg19ZdXypSKnorPSsbqzSrNlZ92M3b3bPHY09DtVZ1cfXnvYK992t8a5pqjWrL9mH35ex7vj9qf+fPjJ/rDqgfKD7w9aDwoPRQ2KGOOse6usOah7fUw/WS+uEj8UduHfU62tJg0VDTSGssPgaOSY69+CXhl7vHA463n2CcaDhpeLLqFOVUURPUtKJptDmlWdoS29J92v90e6tL66lfLX892KbbVnlG5cyWs8SzBWcnzuWeGzsvOj9yIflCf/uS9kcXYy7e6VjQ0XUp4NKVyz6XL3YyO89dcb3SdtX56ulrjGvN1x2uN92wv3HqN/vfTnU5dDXddLzZcsvpVmv3/O6zPe49F2573b58h33nem9wb/fdyLv378Xfk97n3R96kP7g9cOch+OP8h5jHhc9UXxS9lTzae3vpr83Sh2kZ/q8+m48C3/2qJ/b//KPrD++DBQ8Jz8vG9QZrBuyGWob9hm+9WLhi4GXopfjI4V/Kv1Z9crk1cm/PP66MRozOvBa/Hrizaa3am8PvrN71z4WOvb0fcb78Q9FH9U+HvrE+NT5Ofrz4PiyL7gv5V9Nv7Z+C/j2eCJjYkLEEXOmWgEU4nBSEgBvDgJAjgWAcgvpHxZO99NTBk1/A0wR+E883XNPmQMADcgw2RaxzgNwDHGjPEQb8cmWKMIDwLa2Mp/pfaf69EnDIl8sez0mqVeVlwf+YdM9/Hd1/3MEk6p24J/jvwAN/gaoxCHy1QAAAIplWElmTU0AKgAAAAgABAEaAAUAAAABAAAAPgEbAAUAAAABAAAARgEoAAMAAAABAAIAAIdpAAQAAAABAAAATgAAAAAAAACQAAAAAQAAAJAAAAABAAOShgAHAAAAEgAAAHigAgAEAAAAAQAAATygAwAEAAAAAQAABhYAAAAAQVNDSUkAAABTY3JlZW5zaG90hkqUOwAAAAlwSFlzAAAWJQAAFiUBSVIk8AAAAddpVFh0WE1MOmNvbS5hZG9iZS54bXAAAAAAADx4OnhtcG1ldGEgeG1sbnM6eD0iYWRvYmU6bnM6bWV0YS8iIHg6eG1wdGs9IlhNUCBDb3JlIDYuMC4wIj4KICAgPHJkZjpSREYgeG1sbnM6cmRmPSJodHRwOi8vd3d3LnczLm9yZy8xOTk5LzAyLzIyLXJkZi1zeW50YXgtbnMjIj4KICAgICAgPHJkZjpEZXNjcmlwdGlvbiByZGY6YWJvdXQ9IiIKICAgICAgICAgICAgeG1sbnM6ZXhpZj0iaHR0cDovL25zLmFkb2JlLmNvbS9leGlmLzEuMC8iPgogICAgICAgICA8ZXhpZjpQaXhlbFlEaW1lbnNpb24+MTU1ODwvZXhpZjpQaXhlbFlEaW1lbnNpb24+CiAgICAgICAgIDxleGlmOlBpeGVsWERpbWVuc2lvbj4zMTY8L2V4aWY6UGl4ZWxYRGltZW5zaW9uPgogICAgICAgICA8ZXhpZjpVc2VyQ29tbWVudD5TY3JlZW5zaG90PC9leGlmOlVzZXJDb21tZW50PgogICAgICA8L3JkZjpEZXNjcmlwdGlvbj4KICAgPC9yZGY6UkRGPgo8L3g6eG1wbWV0YT4Kfcg2ogAAABxpRE9UAAAAAgAAAAAAAAMLAAAAKAAAAwsAAAMLAAAf8mLOhaIAAB++SURBVHgB7NxPyKXnWcfxp75p02mSNpPEtGlsohS0rTVJE211Ymo6oRZErKIp4qIouCjUhQiCWSguu+hCF6JQK5rxD4oLBRdudNks/NeVQkEyCVHBNOlMTDqTycy8WuHmubjPldUcmGd+59PNcz/3kMO5PtfLl7eb9y3H//e/xf8IECBwAAJvEbwD2LIRCRD4fwHB84NAgMDBCAjewazaoAQICJ6fAQIEDkZA8A5m1QYlQEDw/AwQIHAwAoJ3MKs2KAECgudngACBgxEQvINZtUEJEBA8PwMECByMgOAdzKoNSoCA4PkZIEDgYAQE72BWbVACBATPzwABAgcjIHgHs2qDEiAgeH4GCBA4GAHBO5hVG5QAAcHzM0CAwMEICN7BrNqgBAgInp8BAgQORkDwDmbVBiVAQPD8DBAgcDACgncwqzYoAQKC52eAAIGDERC8g1m1QQkQEDw/AwQIHIzAdQ/e5UuvL8/+498fDLhBCRySwLd/14eW2++5fzMjX/fgffPci8sffv6JzYD4IgQI7E/gsc/+2vJ9n/q5/X3gNX6S4F0joP+cAIE3FxC8ycZveBOIVwJBAoI3LVPwJhCvBIIEBG9apuBNIF4JBAkI3rRMwZtAvBIIEhC8aZmCN4F4JRAkIHjTMgVvAvFKIEhA8KZlCt4E4pVAkIDgTcsUvAnEK4EgAcGblil4E4hXAkECgjctU/AmEK8EggQEb1qm4E0gXgkECQjetEzBm0C8EggSELxpmYI3gXglECQgeNMyBW8C8UogSEDwpmVeeOXl5c+fenK69UqAQILAxz7zS8sHf+SnNjPKdf97eJuR8EUIEIgXELz4FRuQAIEhIHhDwpMAgXgBwYtfsQEJEBgCgjckPAkQiBcQvPgVG5AAgSEgeEPCkwCBeAHBi1+xAQkQGAKCNyQ8CRCIFxC8+BUbkACBISB4Q8KTAIF4AcGLX7EBCRAYAoI3JDwJEIgXELz4FRuQAIEhIHhDwpMAgXgBwYtfsQEJEBgCgjckPAkQiBcQvPgVG5AAgSEgeEPCkwCBeAHBi1+xAQkQGAKCNyQ8CRCIFxC8+BUbkACBISB4Q8KTAIF4AcGLX7EBCRAYAoI3JDwJEIgXELz4FRuQAIEhIHhDwpMAgXgBwYtfsQEJEBgCgjckPAkQiBcQvPgVG5AAgSEgeEPCkwCBeAHBi1+xAQkQGAKCNyQ8CRCIFxC8+BUbkACBISB4Q8KTAIF4AcGLX7EBCRAYAoI3JDwJEIgXELz4FRuQAIEhIHhDwpMAgXgBwYtfsQEJEBgCgjckPAkQiBcQvPgVG5AAgSEgeEPCkwCBeAHBi1+xAQkQGAKCNyQ8CRCIFxC8+BUbkACBISB4Q8KTAIF4AcGLX7EBCRAYAoI3JDwJEIgXELz4FRuQAIEhIHhDwpMAgXgBwYtfsQEJEBgCgjckPAkQiBcQvPgVG5AAgSFw3YN39eKF5b//+i/H9/EkQCBI4OTHTy8333PvZia67sF746WvL1998sc2A+KLECCwP4Hv/sJvLe/66Kn9feA1fpLgXSOg/5wAgTcXELzJxm94E4hXAkECgjctU/AmEK8EggQEb1qm4E0gXgkECQjetEzBm0C8EggSELxpmYI3gXglECQgeNMyBW8C8UogSEDwpmUK3gTilUCQgOBNyxS8CcQrgSABwZuWKXgTiFcCQQKCNy1T8CYQrwSCBARvWqbgTSBeCQQJCN60TMGbQLwSCBIQvGmZgjeBeCUQJCB40zIFbwLxSiBIQPCmZV4+f2752lO/PN16JUAgQeC+z//Kcuv3PrCZUa7738PbjIQvQoBAvIDgxa/YgAQIDAHBGxKeBAjECwhe/IoNSIDAEBC8IeFJgEC8gODFr9iABAgMAcEbEp4ECMQLCF78ig1IgMAQELwh4UmAQLyA4MWv2IAECAwBwRsSngQIxAsIXvyKDUiAwBAQvCHhSYBAvIDgxa/YgAQIDAHBGxKeBAjECwhe/IoNSIDAEBC8IeFJgEC8gODFr9iABAgMAcEbEp4ECMQLCF78ig1IgMAQELwh4UmAQLyA4MWv2IAECAwBwRsSngQIxAsIXvyKDUiAwBAQvCHhSYBAvIDgxa/YgAQIDAHBGxKeBAjECwhe/IoNSIDAEBC8IeFJgEC8gODFr9iABAgMAcEbEp4ECMQLCF78ig1IgMAQELwh4UmAQLyA4MWv2IAECAwBwRsSngQIxAsIXvyKDUiAwBAQvCHhSYBAvIDgxa/YgAQIDAHBGxKeBAjECwhe/IoNSIDAEBC8IeFJgEC8gODFr9iABAgMAcEbEp4ECMQLCF78ig1IgMAQELwh4UmAQLyA4MWv2IAECAwBwRsSngQIxAsIXvyKDUiAwBAQvCHhSYBAvIDgxa/YgAQIDAHBGxKeBAjECwhe/IoNSIDAEBC8IeFJgEC8gODFr9iABAgMgQ0E73i59MKXxvfxJEAgSODotoeWo3d9dDMTbSJ4r/3LpzcD4osQILA/gbe++2eWt733s/v7wGv8JMG7RkD/OQECby4geDs2x4vf8HZQXBCIEBC8nTUK3g6JCwIhAoK3s0jB2yFxQSBEQPB2Fil4OyQuCIQICN7OIgVvh8QFgRABwdtZpODtkLggECIgeDuLFLwdEhcEQgQEb2eRgrdD4oJAiIDg7SxS8HZIXBAIERC8nUUK3g6JCwIhAoK3s0jB2yFxQSBEQPB2Fil4OyQuCIQICN7OIgVvh8QFgRABwdtZpODtkLggECIgeDuLPF5ef/YLO7cuCBC48QWObv+h5aaTj29mkA38PbzNWPgiBAiECwhe+IKNR4DAKiB4q4UTAQLhAoIXvmDjESCwCgjeauFEgEC4gOCFL9h4BAisAoK3WjgRIBAuIHjhCzYeAQKrgOCtFk4ECIQLCF74go1HgMAqIHirhRMBAuECghe+YOMRILAKCN5q4USAQLiA4IUv2HgECKwCgrdaOBEgEC4geOELNh4BAquA4K0WTgQIhAsIXviCjUeAwCogeKuFEwEC4QKCF75g4xEgsAoI3mrhRIBAuIDghS/YeAQIrAKCt1o4ESAQLiB44Qs2HgECq4DgrRZOBAiECwhe+IKNR4DAKiB4q4UTAQLhAoIXvmDjESCwCgjeauFEgEC4gOCFL9h4BAisAoK3WjgRIBAuIHjhCzYeAQKrgOCtFk4ECIQLCF74go1HgMAqIHirhRMBAuECghe+YOMRILAKCN5q4USAQLiA4IUv2HgECKwCgrdaOBEgEC4geOELNh4BAquA4K0WTgQIhAsIXviCjUeAwCogeKuFEwEC4QKCF75g4xEgsAoI3mrhRIBAuIDghS/YeAQIrAKCt1o4ESAQLiB44Qs2HgECq4DgrRZOBAiECwhe+IKNR4DAKiB4q4UTAQLhAoIXvmDjESCwCgjeauFEgEC4gOCFL9h4BAisAtc9eMfHx8sv/PFvrt/IiQCBGIFfPPWTyw+//yObmWcTwXvPU5/cDIgvQoDA/gR++8lfXX72kU/t7wOv8ZME7xoB/ecECLy5gOBNNt/6v7R+w5tQvBIIERC8aZGCN4F4JRAkIHjTMgVvAvFKIEhA8KZlCt4E4pVAkIDgTcsUvAnEK4EgAcGblil4E4hXAkECgjctU/AmEK8EggQEb1qm4E0gXgkECQjetEzBm0C8EggSELxpmYI3gXglECQgeNMyBW8C8UogSEDwpmUK3gTilUCQgOBNyxS8CcQrgSABwZuWKXgTiFcCQQKCNy3zW8H79b/53enWKwECCQI//dDp5SPv+8BmRrnufw9vMxK+CAEC8QKCF79iAxIgMAQEb0h4EiAQLyB48Ss2IAECQ0DwhoQnAQLxAoIXv2IDEiAwBARvSHgSIBAvIHjxKzYgAQJDQPCGhCcBAvECghe/YgMSIDAEBG9IeBIgEC8gePErNiABAkNA8IaEJwEC8QKCF79iAxIgMAQEb0h4EiAQLyB48Ss2IAECQ0DwhoQnAQLxAoIXv2IDEiAwBARvSHgSIBAvIHjxKzYgAQJDQPCGhCcBAvECghe/YgMSIDAEBG9IeBIgEC8gePErNiABAkNA8IaEJwEC8QKCF79iAxIgMAQEb0h4EiAQLyB48Ss2IAECQ0DwhoQnAQLxAoIXv2IDEiAwBARvSHgSIBAvIHjxKzYgAQJDQPCGhCcBAvECghe/YgMSIDAEBG9IeBIgEC8gePErNiABAkNA8IaEJwEC8QKCF79iAxIgMAQEb0h4EiAQLyB48Ss2IAECQ0DwhoQnAQLxAoIXv2IDEiAwBARvSHgSIBAvIHjxKzYgAQJDQPCGhCcBAvECghe/YgMSIDAEBG9IeBIgEC8gePErNiABAkNA8IaEJwEC8QKCF79iAxIgMAQEb0h4EiAQLyB48Ss2IAECQ0DwhoQnAQLxAoIXv2IDEiAwBDYRvP/8i79dLv/Pq+M7eRIgECLwzgc/sNz+/R/ezDSbCN7Z3/nT5Y1vnN8Mii9CgMB+BO549OHlzk98bD8ftodPEbw9IPoIAgR6AcFrXPyG16C4IhAgIHjNEgWvQXFFIEBA8JolCl6D4opAgIDgNUsUvAbFFYEAAcFrlih4DYorAgECgtcsUfAaFFcEAgQEr1mi4DUorggECAhes0TBa1BcEQgQELxmiYLXoLgiECAgeM0SBa9BcUUgQEDwmiUKXoPiikCAgOA1SxS8BsUVgQABwWuWKHgNiisCAQKC1yxR8BoUVwQCBASvWeIrX/235crFS82/uCJA4EYWePu9dy8n3nfPZkbYxN/D24yGL0KAQLSA4EWv13AECFQBwasazgQIRAsIXvR6DUeAQBUQvKrhTIBAtIDgRa/XcAQIVAHBqxrOBAhECwhe9HoNR4BAFRC8quFMgEC0gOBFr9dwBAhUAcGrGs4ECEQLCF70eg1HgEAVELyq4UyAQLSA4EWv13AECFQBwasazgQIRAsIXvR6DUeAQBUQvKrhTIBAtIDgRa/XcAQIVAHBqxrOBAhECwhe9HoNR4BAFRC8quFMgEC0gOBFr9dwBAhUAcGrGs4ECEQLCF70eg1HgEAVELyq4UyAQLSA4EWv13AECFQBwasazgQIRAsIXvR6DUeAQBUQvKrhTIBAtIDgRa/XcAQIVAHBqxrOBAhECwhe9HoNR4BAFRC8quFMgEC0gOBFr9dwBAhUAcGrGs4ECEQLCF70eg1HgEAVELyq4UyAQLSA4EWv13AECFQBwasazgQIRAsIXvR6DUeAQBUQvKrhTIBAtIDgRa/XcAQIVAHBqxrOBAhECwhe9HoNR4BAFRC8quFMgEC0gOBFr9dwBAhUAcGrGs4ECEQLCF70eg1HgEAVELyq4UyAQLSA4EWv13AECFQBwasazgQIRAsIXvR6DUeAQBUQvKrhTIBAtMAmgnfp0qXl+Pg4GtpwBA5R4OjoaLnppps2M/omgvcHT59Zzp07vxkUX4QAgf0I/MAjDy+PPXpqPx+2h08RvD0g+ggCBHoBwWtc/IbXoLgiECAgeM0SBa9BcUUgQEDwmiUKXoPiikCAgOA1SxS8BsUVgQABwWuWKHgNiisCAQKC1yxR8BoUVwQCBASvWaLgNSiuCAQICF6zRMFrUFwRCBAQvGaJgteguCIQICB4zRIFr0FxRSBAQPCaJQpeg+KKQICA4DVLFLwGxRWBAAHBa5YoeA2KKwIBAoLXLFHwGhRXBAIEBK9ZouA1KK4IBAgIXrPEl1/+xnLlypXmX1wRIHAjC5x4x4nl1ltu2cwIm/gDoJvR8EUIEIgWELzo9RqOAIEqIHhVw5kAgWgBwYter+EIEKgCglc1nAkQiBYQvOj1Go4AgSogeFXDmQCBaAHBi16v4QgQqAKCVzWcCRCIFhC86PUajgCBKiB4VcOZAIFoAcGLXq/hCBCoAoJXNZwJEIgWELzo9RqOAIEqIHhVw5kAgWgBwYter+EIEKgCglc1nAkQiBYQvOj1Go4AgSogeFXDmQCBaAHBi16v4QgQqAKCVzWcCRCIFhC86PUajgCBKiB4VcOZAIFoAcGLXq/hCBCoAoJXNZwJEIgWELzo9RqOAIEqIHhVw5kAgWgBwYter+EIEKgCglc1nAkQiBYQvOj1Go4AgSogeFXDmQCBaAHBi16v4QgQqAKCVzWcCRCIFhC86PUajgCBKiB4VcOZAIFoAcGLXq/hCBCoAoJXNZwJEIgWELzo9RqOAIEqIHhVw5kAgWgBwYter+EIEKgCglc1nAkQiBYQvOj1Go4AgSogeFXDmQCBaAHBi16v4QgQqAKCVzWcCRCIFhC86PUajgCBKiB4VcOZAIFoAcGLXq/hCBCoAoJXNZwJEIgWELzo9RqOAIEqIHhVw5kAgWgBwYter+EIEKgCglc1nAkQiBbYRPBe/Pf/WK68cTka2nAEDlHg5Hfcvdx864nNjL6J4H3x0c8tL539r82g+CIECOxH4OfP/MbyPacf2c+H7eFTBG8PiD6CAIFeQPAaF7/hNSiuCAQICF6zRMFrUFwRCBAQvGaJgteguCIQICB4zRIFr0FxRSBAQPCaJQpeg+KKQICA4DVLFLwGxRWBAAHBa5YoeA2KKwIBAoLXLFHwGhRXBAIEBK9ZouA1KK4IBAgIXrNEwWtQXBEIEBC8ZomC16C4IhAgIHjNEgWvQXFFIEBA8JolCl6D4opAgIDgNUsUvAbFFYEAAcFrlih4DYorAgECgtcs8eIrry1Xr1xt/sUVAQI3ssDNt71jObrpaDMjbOIPgG5GwxchQCBaQPCi12s4AgSqgOBVDWcCBKIFBC96vYYjQKAKCF7VcCZAIFpA8KLXazgCBKqA4FUNZwIEogUEL3q9hiNAoAoIXtVwJkAgWkDwotdrOAIEqoDgVQ1nAgSiBQQver2GI0CgCghe1XAmQCBaQPCi12s4AgSqgOBVDWcCBKIFBC96vYYjQKAKCF7VcCZAIFpA8KLXazgCBKqA4FUNZwIEogUEL3q9hiNAoAoIXtVwJkAgWkDwotdrOAIEqoDgVQ1nAgSiBQQver2GI0CgCghe1XAmQCBaQPCi12s4AgSqgOBVDWcCBKIFBC96vYYjQKAKCF7VcCZAIFpA8KLXazgCBKqA4FUNZwIEogUEL3q9hiNAoAoIXtVwJkAgWkDwotdrOAIEqoDgVQ1nAgSiBQQver2GI0CgCghe1XAmQCBaQPCi12s4AgSqgOBVDWcCBKIFBC96vYYjQKAKCF7VcCZAIFpA8KLXazgCBKqA4FUNZwIEogUEL3q9hiNAoAoIXtVwJkAgWkDwotdrOAIEqoDgVQ1nAgSiBQQver2GI0CgCghe1XAmQCBaQPCi12s4AgSqgOBVDWcCBKIFBC96vYYjQKAKCF7VcCZAIFpgE8F75itfWS5cuBANbTgChyjwwIMPLnfddddmRt9E8B49dWo5e/bsZlB8EQIE9iNw5syZ5fQTT+znw/bwKYK3B0QfQYBALyB4jYvf8BoUVwQCBASvWaLgNSiuCAQICF6zRMFrUFwRCBAQvGaJgteguCIQICB4zRIFr0FxRSBAQPCaJQpeg+KKQICA4DVLFLwGxRWBAAHBa5YoeA2KKwIBAoLXLFHwGhRXBAIEBK9ZouA1KK4IBAgIXrNEwWtQXBEIEBC8ZomC16C4IhAgIHjNEgWvQXFFIEBA8JolCl6D4opAgIDgNUs8ffr08vxzzzX/4ooAgRtZ4Pe//OXl8ccf38wIm/h7eJvR8EUIEIgWELzo9RqOAIEqIHhVw5kAgWgBwYter+EIEKgCglc1nAkQiBYQvOj1Go4AgSogeFXDmQCBaAHBi16v4QgQqAKCVzWcCRCIFhC86PUajgCBKiB4VcOZAIFoAcGLXq/hCBCoAoJXNZwJEIgWELzo9RqOAIEqIHhVw5kAgWgBwYter+EIEKgCglc1nAkQiBYQvOj1Go4AgSogeFXDmQCBaAHBi16v4QgQqAKCVzWcCRCIFhC86PUajgCBKiB4VcOZAIFoAcGLXq/hCBCoAoJXNZwJEIgWELzo9RqOAIEqIHhVw5kAgWgBwYter+EIEKgCglc1nAkQiBYQvOj1Go4AgSogeFXDmQCBaAHBi16v4QgQqAKCVzWcCRCIFhC86PUajgCBKiB4VcOZAIFoAcGLXq/hCBCoAoJXNZwJEIgWELzo9RqOAIEqIHhVw5kAgWgBwYter+EIEKgCglc1nAkQiBYQvOj1Go4AgSogeFXDmQCBaAHBi16v4QgQqAKCVzWcCRCIFhC86PUajgCBKiB4VcOZAIFoAcGLXq/hCBCoAoJXNZwJEIgWELzo9RqOAIEqIHhVw5kAgWgBwYter+EIEKgCglc1nAkQiBYQvOj1Go4AgSqwieA9+/yLy6VLV+r3ciZAIEDgvnvvWE6ceNtmJtlE8H70M19cnnvhpc2g+CIECOxH4M9+73PLww/cv58P28OnCN4eEH0EAQK9gOA1Ln7Da1BcEQgQELxmiYLXoLgiECAgeM0SBa9BcUUgQEDwmiUKXoPiikCAgOA1SxS8BsUVgQABwWuWKHgNiisCAQKC1yxR8BoUVwQCBASvWaLgNSiuCAQICF6zRMFrUFwRCBAQvGaJgteguCIQICB4zRIFr0FxRSBAQPCaJQpeg+KKQICA4DVLFLwGxRWBAAHBa5YoeA2KKwIBAoLXLFHwGhRXBAIEBK9Z4iuvXlyOr15t/sUVAQI3ssCtt7x9OTr6ts2MsIk/ALoZDV+EAIFoAcGLXq/hCBCoAoJXNZwJEIgWELzo9RqOAIEqIHhVw5kAgWgBwYter+EIEKgCglc1nAkQiBYQvOj1Go4AgSogeFXDmQCBaAHBi16v4QgQqAKCVzWcCRCIFhC86PUajgCBKiB4VcOZAIFoAcGLXq/hCBCoAoJXNZwJEIgWELzo9RqOAIEqIHhVw5kAgWgBwYter+EIEKgCglc1nAkQiBYQvOj1Go4AgSogeFXDmQCBaAHBi16v4QgQqAKCVzWcCRCIFhC86PUajgCBKiB4VcOZAIFoAcGLXq/hCBCoAoJXNZwJEIgWELzo9RqOAIEqIHhVw5kAgWgBwYter+EIEKgCglc1nAkQiBYQvOj1Go4AgSogeFXDmQCBaAHBi16v4QgQqAKCVzWcCRCIFhC86PUajgCBKiB4VcOZAIFoAcGLXq/hCBCoAoJXNZwJEIgWELzo9RqOAIEqIHhVw5kAgWgBwYter+EIEKgCglc1nAkQiBYQvOj1Go4AgSogeFXDmQCBaAHBi16v4QgQqAKCVzWcCRCIFhC86PUajgCBKiB4VcOZAIFoAcGLXq/hCBCoAoJXNZwJEIgWELzo9RqOAIEqIHhVw5kAgWiBTQTvmRfOLd9842o0tOEIHKLAQ++5bbnzxFs3M/omgvfYH/3Dcvbchc2g+CIECOxH4OlPf3j5xHfesZ8P28OnCN4eEH0EAQK9gOA1Ln7Da1BcEQgQELxmiYLXoLgiECAgeM0SBa9BcUUgQEDwmiUKXoPiikCAgOA1SxS8BsUVgQABwWuWKHgNiisCAQKC1yxR8BoUVwQCBASvWaLgNSiuCAQICF6zRMFrUFwRCBAQvGaJgteguCIQICB4zRIFr0FxRSBAQPCaJQpeg+KKQICA4DVLFLwGxRWBAAHBa5YoeA2KKwIBAoLXLPGTf/JPy/PnLzb/4ooAgRtZ4Es//qHl4/ed3MwIm/h7eJvR8EUIEIgWELzo9RqOAIEqIHhVw5kAgWgBwYter+EIEKgCglc1nAkQiBYQvOj1Go4AgSogeFXDmQCBaAHBi16v4QgQqAKCVzWcCRCIFhC86PUajgCBKiB4VcOZAIFoAcGLXq/hCBCoAoJXNZwJEIgWELzo9RqOAIEqIHhVw5kAgWgBwYter+EIEKgCglc1nAkQiBYQvOj1Go4AgSogeFXDmQCBaAHBi16v4QgQqAKCVzWcCRCIFhC86PUajgCBKiB4VcOZAIFoAcGLXq/hCBCoAoJXNZwJEIgWELzo9RqOAIEqIHhVw5kAgWgBwYter+EIEKgCglc1nAkQiBYQvOj1Go4AgSogeFXDmQCBaAHBi16v4QgQqAKCVzWcCRCIFhC86PUajgCBKiB4VcOZAIFoAcGLXq/hCBCoAoJXNZwJEIgWELzo9RqOAIEqIHhVw5kAgWgBwYter+EIEKgCglc1nAkQiBYQvOj1Go4AgSogeFXDmQCBaAHBi16v4QgQqAKCVzWcCRCIFhC86PUajgCBKiB4VcOZAIFoAcGLXq/hCBCoAoJXNZwJEIgWELzo9RqOAIEqIHhVw5kAgWgBwYter+EIEKgCglc1nAkQiBYQvOj1Go4AgSqwieB97esvLJcuX67fy5kAgQCB+0++e7nt5hObmWQTwXv6n/9uOX/xtc2g+CIECOxH4Cc++IPL/Sfv3s+H7eFTBG8PiD6CAIFeQPAaF7/hNSiuCAQICF6zRMFrUFwRCBAQvGaJgteguCIQICB4zRIFr0FxRSBAQPCaJQpeg+KKQICA4DVLFLwGxRWBAAHBa5YoeA2KKwIBAoLXLFHwGhRXBAIEBK9ZouA1KK4IBAgIXrNEwWtQXBEIEBC8ZomC16C4IhAgIHjNEgWvQXFFIEBA8JolCl6D4opAgIDgNUsUvAbFFYEAAcFrlvhX//rM8urrF5p/cUWAwI0scPr9Dy7vfeedmxlhE38PbzMavggBAtECghe9XsMRIFAFBK9qOBMgEC0geNHrNRwBAlVA8KqGMwEC0QKCF71ewxEgUAUEr2o4EyAQLSB40es1HAECVUDwqoYzAQLRAoIXvV7DESBQBQSvajgTIBAtIHjR6zUcAQJVQPCqhjMBAtECghe9XsMRIFAFBK9qOBMgEC3wvwAAAP//lYw3ywAAJNZJREFU7dwHlGV1fQfw//ZlCwu7sHQQF5DusSOIAiIgihVMNGLvxhC7UWIvyYkt0WhMYs85MXoMCiRRY05EydGYWDGi2KVk6cVly+yUvDfwMpd5O4874wx3uN/PnGPm7XuXO+/7+f32mz/Mzi4Y63wUHwQIEAgQWKDwAqYsIgEC4wIKzyIQIBAjoPBiRi0oAQIKzw4QIBAjoPBiRi0oAQIKzw4QIBAjoPBiRi0oAQIKzw4QIBAjoPBiRi0oAQIKzw4QIBAjoPBiRi0oAQIKzw4QIBAjoPBiRi0oAQIKzw4QIBAjoPBiRi0oAQIKzw4QIBAjoPBiRi0oAQIKzw4QIBAjoPBiRi0oAQIKzw4QIBAjoPBiRi0oAQIKzw4QIBAjoPBiRi0oAQIKzw4QIBAjoPBiRi0oAQIKzw4QIBAjoPBiRi0oAQIKzw4QIBAjoPBiRi0oAQIKzw4QIBAjoPBiRi0oAQIKzw4QIBAjoPBiRi0oAQIKzw4QIBAjoPBiRi0oAQIKzw4QIBAjoPBiRi0oAQIKzw4QIBAjoPBiRi0oAQIKzw4QIBAjMC8K76TzP1t+9ZtbYtAFJZAmcPS63ct5pz268djzovBOVHiNL4I3QGAuBY5et1v53GlnzOWXqHVvhVeLyUUECPw2AgqvoueEV8HwkEALBRReZagKr4LhIYEWCii8ylA/edml5eahbZVnPCRAoE0C63daUZ604ZDGIzX43/DGGg/vDRAg0JTAgka+sMJrhN0XJZAuoPDSN0B+AkECCi9o2KISSBdQeOkbID+BIIHgwvufG64vW0dGgoYtKoEsgZVLlpRDd9n19tDNlF33izf4TYuJgftzeBMWHhFoo4A/h1eZqsKrYHhIoIUCCq8yVIVXwfCQQAsFFF5lqAqvguEhgRYKKLzKUBVeBcNDAi0UUHiVoX7nums736UdrjzjIQECbRJYvWRpOXLtusYjzYvv0jau4A0QIBAhoPAixiwkAQJdAYVnDwgQiBFQeDGjFpQAAYVnBwgQiBFQeDGjFpQAAYVnBwgQiBFQeDGjFpQAAYVnBwgQiBFQeDGjFpQAAYVnBwgQiBFQeDGjFpQAAYVnBwgQiBFQeDGjFpQAAYVnBwgQiBFQeDGjFpQAAYVnBwgQiBFQeDGjFpQAAYVnBwgQiBFQeDGjFpQAAYVnBwgQiBFQeDGjFpQAAYVnBwgQiBFQeDGjFpQAAYVnBwgQiBFQeDGjFpQAAYVnBwgQiBFQeDGjFpQAAYVnBwgQiBFQeDGjFpQAAYVnBwgQiBFQeDGjFpQAAYVnBwgQiBFQeDGjFpQAAYVnBwgQiBFQeDGjFpQAAYVnBwgQiBFQeDGjFpQAAYVnBwgQiBFQeDGjFpQAAYVnBwgQiBFQeDGjFpQAAYVnBwgQiBFQeDGjFpQAAYVnBwgQiBFQeDGjFpQAAYVnBwgQiBFQeDGjFpQAAYVnBwgQiBFQeDGjFpQAAYVnBwgQiBFQeDGjFpQAgXlReLfcvLmMjo6ZBgECLRVYtHhhWb16p8bTzYvCO+e5f1U2XnVj4xjeAAECcyOw4ZC9ytvf84y5ufk07qrwpoHlUgIEZiag8CpuTngVDA8JtFBA4VWGqvAqGB4SaKGAwqsMVeFVMDwk0EIBhTc+1Nu+M/uNi39UtmweauGYRSJAoCuw85qdyv0edPDtGAsaQ2nwmxb+GEpjU/eFCTQu0EzpKbzGB+8NEEgUUHiJU5eZQKiAwgsdvNgEEgUUXuLUZSYQKhBXeN053/aNi+99+xdl6xbfpQ3dfLEDBFauWl6OvPcBtydtpuy6X7zBb1pMTNmfw5uw8IhAGwX8ObzKVBVeBcNDAi0UUHiVoSq8CoaHBFoooPAqQ1V4FQwPCbRQQOFVhqrwKhgeEmihgMKrDPXqjTeV4eGRyjMeEiDQJoGlSxaX3fdY03ikefFd2sYVvAECBCIEFF7EmIUkQKAroPDsAQECMQIKL2bUghIgoPDsAAECMQIKL2bUghIgoPDsAAECMQIKL2bUghIgoPDsAAECMQIKL2bUghIgoPDsAAECMQIKL2bUghIgoPDsAAECMQIKL2bUghIgoPDsAAECMQIKL2bUghIgoPDsAAECMQIKL2bUghIgoPDsAAECMQIKL2bUghIgoPDsAAECMQIKL2bUghIgoPDsAAECMQIKL2bUghIgoPDsAAECMQIKL2bUghIgoPDsAAECMQIKL2bUghIgoPDsAAECMQIKL2bUghIgoPDsAAECMQIKL2bUghIgoPDsAAECMQIKL2bUghIgoPDsAAECMQIKL2bUghIgoPDsAAECMQIKL2bUghIgoPDsAAECMQIKL2bUghIgoPDsAAECMQIKL2bUghIgoPDsAAECMQIKL2bUghIgoPDsAAECMQIKL2bUghIgoPDsAAECMQIKL2bUghIgoPDsAAECMQIKL2bUghIgoPDsAAECMQIKL2bUghIgoPDsAAECMQLzovB++cHnle03XBWDLiiBNIHlex9S9nvmuxuPPS8K7xfvPbsM3XBl4xjeAAECcyOwfJ9DywHP/8Dc3Hwad1V408ByKQECMxNQeBU3J7wKhocEWiig8CpDVXgVDA8JtFBA4VWGesPFnyojm2+uPOMhAQJtEli8Zn3Z9UGPbzxSg/8Nb6zx8N4AAQJNCSxo5AsrvEbYfVEC6QIKL30D5CcQJKDwgoYtKoF0AYWXvgHyEwgSCC68oeuvKGMj24OGLSqBLIGFi5eVJWv3roSOK7yJ7P4c3oSFRwTaKODP4VWmqvAqGB4SaKGAwqsMVeFVMDwk0EIBhVcZqsKrYHhIoIUCCq8yVIVXwfCQQAsFFF5lqJt//u0yOrS18oyHBAi0SWDR8lVlp3sc3XikBn+0rPHs3gABAmECCi9s4OISSBZQeMnTl51AmIDCCxu4uASSBRRe8vRlJxAmoPDCBi4ugWQBhZc8fdkJhAkovLCBi0sgWUDhJU9fdgJhAgovbODiEkgWUHjJ05edQJiAwgsbuLgEkgUUXvL0ZScQJqDwwgYuLoFkAYWXPH3ZCYQJKLywgYtLIFlA4SVPX3YCYQIKL2zg4hJIFlB4ydOXnUCYgMILG7i4BJIFFF7y9GUnECag8MIGLi6BZAGFlzx92QmECSi8sIGLSyBZQOElT192AmECCi9s4OISSBZQeMnTl51AmIDCCxu4uASSBRRe8vRlJxAmoPDCBi4ugWQBhZc8fdkJhAkovLCBi0sgWUDhJU9fdgJhAgovbODiEkgWUHjJ05edQJiAwgsbuLgEkgUUXvL0ZScQJqDwwgYuLoFkAYWXPH3ZCYQJKLywgYtLIFlA4SVPX3YCYQIKL2zg4hJIFlB4ydOXnUCYgMILG7i4BJIFFF7y9GUnECag8MIGLi6BZAGFlzx92QmECSi8sIGLSyBZQOElT192AmECCi9s4OISSBZQeMnTl51AmIDCCxu4uASSBRRe8vRlJxAmoPDCBi4ugWQBhZc8fdkJhAnMi8L70NdeWm7afHUYvbgEcgT2WrOhPO2YtzQeeF4U3gcuekm5cfPGxjG8AQIE5kZg7zUHlWce+465ufk07qrwpoHlUgIEZiag8CpuTngVDA8JtFBA4VWGqvAqGB4SaKGAwqsM9Zu/vLBsGdpUecZDAgTaJLB6+dpy3/1PaTxSg/8Nb6zx8N4AAQJNCSxo5AsrvEbYfVEC6QIKL30D5CcQJKDwgoYtKoF0AYWXvgHyEwgSCC68a39zeRke3R40bFEJZAksXbSsrFu1TyV0XOFNZPfn8CYsPCLQRgF/Dq8yVYVXwfCQQAsFFF5lqAqvguEhgRYKKLzKUBVeBcNDAi0UUHiVoSq8CoaHBFoooPAqQ/31DT8s20eGKs94SIBAmwSWLVlR9t3lkMYjNfijZY1n9wYIEAgTUHhhAxeXQLKAwkuevuwEwgQUXtjAxSWQLKDwkqcvO4EwAYUXNnBxCSQLKLzk6ctOIExA4YUNXFwCyQIKL3n6shMIE1B4YQMXl0CygMJLnr7sBMIEFF7YwMUlkCyg8JKnLzuBMAGFFzZwcQkkCyi85OnLTiBMQOGFDVxcAskCCi95+rITCBNQeGEDF5dAsoDCS56+7ATCBBRe2MDFJZAsoPCSpy87gTABhRc2cHEJJAsovOTpy04gTEDhhQ1cXALJAgovefqyEwgTUHhhAxeXQLKAwkuevuwEwgQUXtjAxSWQLKDwkqcvO4EwAYUXNnBxCSQLKLzk6ctOIExA4YUNXFwCyQIKL3n6shMIE1B4YQMXl0CygMJLnr7sBMIEFF7YwMUlkCyg8JKnLzuBMAGFFzZwcQkkCyi85OnLTiBMQOGFDVxcAskCCi95+rITCBNQeGEDF5dAsoDCS56+7ATCBBRe2MDFJZAsoPCSpy87gTABhRc2cHEJJAsovOTpy04gTEDhhQ1cXALJAgovefqyEwgTUHhhAxeXQLKAwkuevuwEwgQUXtjAxSWQLKDwkqcvO4EwAYUXNnBxCSQLKLzk6ctOIExgXhTeT9/w6jJ07TVh9OISyBHY6R4HlgNf9frGA8+Lwvv+2U8s2668vHEMb4AAgbkRWHno4eXwD3xsbm4+jbsqvGlguZQAgZkJKLyK26/e984yfMP1lWc8JECgTQLL9tm37PucFzceqcET3ljj4b0BAgSaEljQyBdWeI2w+6IE0gUUXvoGyE8gSCC48C4953ll6OqNQcMWlUCWwIoNB5eD3/auSujgwrvtj6VcUcHwkACBNgnc9l3aj1YiKbwKhocECLRJQOGVie/SXvV3HynDN9/UpvnKQoBARWDp+j3Lnmc9pfJM8AmvouAhAQIRAgovYsxCEiDQFVB49oAAgRiBuMKbmOwlTz/LXx4wweERgdYJrOj+5QHv/0jjuRr8SYuJ7P62lAkLjwi0UcBfHlCZqsKrYHhIoIUCCq8y1GsvPK8Mb9pUecZDAgTaJLBk7bqy2ymnNx5pXvwrbeMK3gABAhECCi9izEISINAVUHj2gACBGAGFFzNqQQkQUHh2gACBGAGFFzNqQQkQUHh2gACBGAGFFzNqQQkQUHh2gACBGAGFFzNqQQkQUHh2gACBGAGFFzNqQQkQUHh2gACBGAGFFzNqQQkQUHh2gACBGAGFFzNqQQkQUHh2gACBGAGFFzNqQQkQUHh2gACBGAGFFzNqQQkQUHh2gACBGAGFFzNqQQkQUHh2gACBGAGFFzNqQQkQUHh2gACBGAGFFzNqQQkQUHh2gACBGAGFFzNqQQkQUHh2gACBGAGFFzNqQQkQUHh2gACBGAGFFzNqQQkQUHh2gACBGAGFFzNqQQkQUHh2gACBGAGFFzNqQQkQUHh2gACBGAGFFzNqQQkQUHh2gACBGAGFFzNqQQkQUHh2gACBGAGFFzNqQQkQUHh2gACBGAGFFzNqQQkQUHh2gACBGAGFFzNqQQkQUHh2gACBGAGFFzNqQQkQUHh2gACBGAGFFzNqQQkQUHh2gACBGAGFFzNqQQkQUHh2gACBGAGFFzNqQQkQUHh2gACBGAGFFzNqQQkQUHh2gACBGAGFFzNqQQkQUHh2gACBGAGFFzNqQQkQUHh2gACBGAGFFzNqQQkQUHh2gACBGAGFFzNqQQkQUHh2gACBGAGFFzNqQQkQUHh2gACBGAGFFzNqQQkQUHh2gACBGAGFFzNqQQkQUHh2gACBGAGFFzNqQQkQUHh2gACBGAGFFzNqQQkQmBeFt/EHPy0jW4dMgwCBlgosWblTWX/YgY2nmxeF9/W//HTZcuMtjWN4AwQIzI3AznvvXu7/rMfOzc2ncVeFNw0slxIgMDMBhTfuNjb+f2/81f+W0e3DO5QcHRktl3zmyzt8bb49uccR9yx7HnXQrL6tW6+7qfz0y9+c1XvO1c0OOO7eZZf99pjV21//syvKFf/1w1m951zd7NDTjyvLdl45q7e/8luXlut+cvms3nMubrZw0cJy1FknT3nrxcuWljX/vxsLprxurl9o8IR3W9ndWcDR4eHylT/5+J1dNi9ev8fx9yn3fNh9Z/W93HzlNeVbH71gVu85Vzc78oknzfp/p7nq2z8qP/rn/5irtzyr9z3mRWeWFWvXzOo9L/vC18sV/z3/C3/h4kXlhNc8YxrZmyk9hTeNEd3ZpQpP4Sm8O/td0ntd4fUk7vDZCc8JzwnPCe8OpfBb/MIJ77fAm/yPOuE54TnhTf5dMdWvnfB2KOOE54TnhOeEt8NymMGTTngzQJvqH3HCc8Jzwpvqd8fk553wJouM/9oJzwnPCc8Jb4flMIMnnfBmgDbVP+KE54TnhDfV747JzzvhTRYZ/7UTnhOeE54T3g7LYQZPOuHNAG2qf8QJzwnPCW+q3x2Tn3fCmywy/msnPCc8JzwnvB2WwwyebPCEN/Fuv/2JC8vWmzdNPDHp0aDXJl3a6C+7Py+4ePnSWX0PoyMjZWjTllm951zdbMmK5WXRksWzevuRoe1l+5Zts3rPubrZstUryoKFC2f19t3sXYO7w8fyNaumfJur9lhbjn7SKVO+fle9MC8Kz18PdVeN29ch0IyAvy2l4v69v//CwBNe5VIPCRC4GwqsWr+2HPGEkxp/5/PihNe4gjdAgECEgMKLGLOQBAh0BRSePSBAIEZA4cWMWlACBBSeHSBAIEZA4cWMWlACBBSeHSBAIEZA4cWMWlACBBSeHSBAIEZA4cWMWlACBBSeHSBAIEZA4cWMWlACBBSeHSBAIEZA4cWMWlACBBSeHSBAIEZA4cWMWlACBBSeHSBAIEZA4cWMWlACBBSeHSBAIEZA4cWMWlACBBSeHSBAIEZA4cWMWlACBBSeHSBAIEZA4cWMWlACBBSeHSBAIEZA4cWMWlACBBSeHSBAIEZA4cWMWlACBBSeHSBAIEZA4cWMWlACBBSeHSBAIEZA4cWMWlACBBSeHSBAIEZA4cWMWlACBBSeHSBAIEZA4cWMWlACBBSeHSBAIEZA4cWMWlACBBSeHSBAIEZA4cWMWlACBBSeHSBAIEZA4cWMWlACBBSeHSBAIEZA4cWMWlACBBSeHSBAIEZA4cWMWlACBBSeHSBAIEZA4cWMWlACBBSeHSBAIEZA4cWMWlACBBSeHSBAIEZA4cWMWlACBBSeHSBAIEZA4cWMWlACBBSeHSBAIEZA4cWMWlACBBSeHSBAIEZA4cWMWlACBBSeHSBAIEZA4cWMWlACBBSeHSBAIEZA4cWMWlACBBSeHSBAIEZA4cWMWlACBBSeHSBAIEZA4cWMWlACBBSeHSBAIEZA4cWMWlACBBSeHSBAIEZA4cWMWlACBBSeHSBAIEZA4cWMWlACBBSeHSBAIEZA4cWMWlACBBSeHSBAIEZA4cWMWlACBBSeHSBAIEZA4cWMWlACBBSeHSBAIEZA4cWMWlACBBSeHSBAIEZA4cWMWlACBBSeHSBAIEZA4cWMWlACBBSeHSBAIEZA4cWMWlACBBSeHSBAIEZA4cWMWlACBBSeHSBAIEZA4cWMWlACBBSeHSBAIEZA4cWMWlACBBSeHSBAIEZA4cWMWlACBBSeHSBAIEZA4cWMWlACBBSeHSBAIEZA4cWMWlACBBSeHSBAIEZA4cWMWlACBBSeHSBAIEZA4cWMWlACBBSeHSBAIEZA4cWMWlACBBSeHSBAIEZA4cWMWlACBBSeHSBAIEZA4cWMWlACBBSeHSBAIEZA4cWMWlACBBSeHSBAIEZA4cWMWlACBBSeHSBAIEZA4cWMWlACBBSeHSBAIEZA4cWMWlACBBSeHSBAIEZA4cWMWlACBBSeHSBAIEZA4cWMWlACBBSeHSBAIEZA4cWMWlACBBSeHSBAIEZA4cWMWlACBBSeHSBAIEZA4cWMWlACBBSeHSBAIEZA4cWMWlACBBSeHSBAIEZA4cWMWlACBBSeHSBAIEZA4cWMWlACBBSeHSBAIEZA4cWMWlACBBSeHSBAIEZA4cWMWlACBBSeHSBAIEZA4cWMWlACBBSeHSBAIEZA4cWMWlACBBSeHSBAIEZA4cWMWlACBBSeHSBAIEZA4cWMWlACBBSeHSBAIEZA4cWMWlACBBSeHSBAIEZA4cWMWlACBBSeHSBAIEZA4cWMWlACBBSeHSBAIEZA4cWMWlACBBSeHSBAIEZA4cWMWlACBBSeHSBAIEZA4cWMWlACBBSeHSBAIEZA4cWMWlACBBSeHSBAIEZA4cWMWlACBBSeHSBAIEZA4cWMWlACBBSeHSBAIEZA4cWMWlACBBSeHSBAIEZA4cWMWlACBBSeHSBAIEZA4cWMWlACBBSeHSBAIEZA4cWMWlACBBSeHSBAIEag0cL72XVXlMtv3BiDLSiBRIFVy1aU++9/+LyI3mjhveVf/qa8/6J/mBcQ3gQBAnMjsPuqXcsPzv3M3Nx8mndVeNMEczkBAtMTWLtiTbn09Z+d3j80R1c3Wnj/+N1/K1+89BtTRhsbGyuf//5Xpnx98guH7Xlgudce95j89JS//tz3/n3K1ya/cGjn3ofO1b079+3ev+5H16RrU+ej69F1qftxfufeozXvfcj6A8rhe92z7q3L+d+/qHPv0VrXT/feF1xyURkZrXfvg9fvX47Ya0Ot99G96IJLvtq590it6w/afb9y5N4H1bq2e9GFnXsP17z3hs69j5rGvf/pB18r20eGa72XDbvtW47a5+Ba13Yvms69j+7c919f8sHa957LCxssvDv/Ddtd4L1fe2rt/K9+xNPLyx7+1FrXdwtjzz86pda13YteefLTyitOPrv29d171y2ll3fe86s6773uR9ek7m/ul570e+U1pzyj7q3Lvq97ZO3fJOec+OTy2lOfVfve+517ehka3l7r+j844XfL6057dq1ruxcd8MePLlu3b6t1/Ysf+qTy+tOfW+va7kUHvv6Msnloa63rX3j8meWNj3p+rWu7F214w2PKpm1bal3//Ic8sbz50S+odW33ooPf+Lhyy9Zba13/3OMeX956xotqXdu96F5veny5acumWtc/59jHlbc95sWdaxfUun4uL1J4NXUVXj+Uwus3UXj9Jgpv3MQJr7caTng9iYnPTngTFr1HTng9iZl/dsKraeeE1w/lhNdv4oTXb+KEN27ihNdbDSe8nsTEZye8CYveIye8nsTMPzvh1bRzwuuHcsLrN3HC6zdxwhs3ccLrrYYTXk9i4rMT3oRF75ETXk9i5p+d8GraOeH1Qznh9Zs44fWbOOGNmzjh9VbDCa8nMfHZCW/CovfICa8nMfPPTng17Zzw+qGc8PpNnPD6TZzwxk2c8Hqr4YTXk5j47IQ3YdF75ITXk5j55wZPeKX86Zc+Vj508eAfKr51qN6P3XQJli5aUpYsWlxbY77cu/ueu++97sd03rd796vOJ5PNnf2+8//Xf1uG6b7v7o/DjdW8+1zee/2qteWScz/dP4gGnmm08Pz1UA1M3JckcBcL+NtSbgd/+xc/XD7w1cF/T1bdH5Lv3nLhggVlQed/dT/my72777n73ut+TOd9u3e/KpO71mT/tXuU/3zlJ/u/aAPPNHrCayCvL0mAQLCAwgsevugE0gQUXtrE5SUQLKDwgocvOoE0AYWXNnF5CQQLKLzg4YtOIE1A4aVNXF4CwQIKL3j4ohNIE1B4aROXl0CwgMILHr7oBNIEFF7axOUlECyg8IKHLzqBNAGFlzZxeQkECyi84OGLTiBNQOGlTVxeAsECCi94+KITSBNQeGkTl5dAsIDCCx6+6ATSBBRe2sTlJRAsoPCChy86gTQBhZc2cXkJBAsovODhi04gTUDhpU1cXgLBAgovePiiE0gTUHhpE5eXQLCAwgsevugE0gQUXtrE5SUQLKDwgocvOoE0AYWXNnF5CQQLKLzg4YtOIE1A4aVNXF4CwQIKL3j4ohNIE1B4aROXl0CwgMILHr7oBNIEFF7axOUlECyg8IKHLzqBNAGFlzZxeQkECyi84OGLTiBNQOGlTVxeAsECCi94+KITSBNQeGkTl5dAsIDCCx6+6ATSBBRe2sTlJRAsoPCChy86gTQBhZc2cXkJBAsovODhi04gTUDhpU1cXgLBAgovePiiE0gTUHhpE5eXQLCAwgsevugE0gQUXtrE5SUQLKDwgocvOoE0AYWXNnF5CQQLKLzg4YtOIE1A4aVNXF4CwQIKL3j4ohNIE1B4aROXl0CwgMILHr7oBNIEFF7axOUlECyg8IKHLzqBNAGFlzZxeQkECyi84OGLTiBNQOGlTVxeAsECCi94+KITSBNQeGkTl5dAsIDCCx6+6ATSBBRe2sTlJRAsoPCChy86gTQBhZc2cXkJBAsovODhi04gTUDhpU1cXgLBAgovePiiE0gTUHhpE5eXQLCAwgsevugE0gQUXtrE5SUQLKDwgocvOoE0AYWXNnF5CQQLKLzg4YtOIE1A4aVNXF4CwQIKL3j4ohNIE1B4aROXl0CwgMILHr7oBNIEFF7axOUlECyg8IKHLzqBNAGFlzZxeQkECyi84OGLTiBNQOGlTVxeAsECCi94+KITSBNQeGkTl5dAsIDCCx6+6ATSBBRe2sTlJRAsoPCChy86gTQBhZc2cXkJBAsovODhi04gTUDhpU1cXgLBAo0W3s3f+ULZ9MOvDeQf3nTDwNerLy5culPp/q/uh3v3S03LZMnysnDZiv6bTPHM3ffeN3YSjU2R6o5PL5y2SfvvvXTdPmWvM8+9I1RDv2q08K790l+XGy7+VEPRfVkCBO4KgUUr1pSDXnPeXfGl7vRrKLw7JXIBAQK/jYDCG9cbK9tvuroM33Ld1JZjo+XXH/7DqV+f9Mqa+51e1tzntEnPTvXLsfLrvz1nqhf7nl9z30eW7v/qftx273r/GtR9z933Xvdj3KRjU+djzX1O7dz7UXUuHb/m8o+8tIyNjtS6fud7P6Ls8oAzal3bvejyj76sjI0M17p+2vf+2MvL2PD2evc++uFllwc+tta13Ysu/9grOvceqnX9zkedVHZ50ONqXdu96IqPv7KMbt9W6/rVR55Ydj3m8bWuHb/3J15dRoe21Lp+9REnlF0f/IRa147f+5OvKaPbNte6vmuy11mv61y7oNb1c3lRgye8GmUwOlp+/MZH1M6/20nPKOtOOLve9WNj5cdvOLnetZ2rdjvx6WXdiU+rff34vTtfo85H9z1333vdj8s6JmMdmzof6x721LLbw59Z59Lxay5706m1S2ndQ59Sdjv52fXv/ebTapfS2uOfXHZ/xHPq3/stp5exmsWx9iG/U3Y/5Xm17/2Ttz6qUxxba12/9rizyu6nvqDWtd2LfvK2M2oXx67HnlnWn/bC+vd++2PK6NZba13fLbv1j3xxrWu7F/30HY8rI1t+U+v6bkmvP/33O9cqvMFgCm+HPgqvn+UyhdeH8hOF12fihNdHsuMnnPD6XZzw+k2c8PpNnPDGTWr8654TXv/2dJ5xwutnccLrN3HC6zdxwus32eEzTnj9LE54/SZOeP0mTnjjJk54vdXwTYuexMRn37SYsOg98k2LnsTMPzvh1bRzwuuHcsLrN3HC6zdxwhs3ccLrrYYTXk9i4rMT3oRF75ETXk9i5p+d8GraOeH1Qznh9Zs44fWbOOGNmzjh9VbDCa8nMfHZCW/CovfICa8nMfPPjZ7wtl55Wdl2zc+nfvedn1TY+Ll3Tv36pFdWHfaQsurQB096dupfbjzvz6Z+cdIrqw47rnPvYyc9O/Uvp3Xvzn2796/7MW5S86c4Vt3rwWXV4Q+pe+uy8fPvKqXmT3GsPOSYsvqI42vf++rPv7v2j62tPORBnXs/tP69z39P7Z8QWXnwA8vqIx9W/94XvLf2T4isPPgBnXufMI17/3ntH1tbedD9y+qjTqx/7wv/ovZPn6zYcL+y89En1b73NRe+r/MjcfV++mRVZ0/2eerbOveO/kmLUvxtKbX3y4UE7rYC/vKA20en8O62O+yNE6gtoPBup7r1sm+Uzb/47kC4kc03D3y9+mL3L19csGRZ9amBj+fLvRd0/9LIab3vWzq5avw30M5Vd997L+uYLB84v+qLI1s6JjX/Nb+7I3fLey/uvO+lc2Qyh/devGaPaf3lGNW5zvbjBv8b3mxHcT8CBAgMFlB4g328SoBAiwQUXouGKQoBAoMFFN5gH68SINAiAYXXomGKQoDAYAGFN9jHqwQItEhA4bVomKIQIDBYQOEN9vEqAQItElB4LRqmKAQIDBZQeIN9vEqAQIsEFF6LhikKAQKDBRTeYB+vEiDQIgGF16JhikKAwGABhTfYx6sECLRIQOG1aJiiECAwWEDhDfbxKgECLRJQeC0apigECAwWUHiDfbxKgECLBBRei4YpCgECgwUU3mAfrxIg0CIBhdeiYYpCgMBgAYU32MerBAi0SEDhtWiYohAgMFhA4Q328SoBAi0SUHgtGqYoBAgMFlB4g328SoBAiwQUXouGKQoBAoMFFN5gH68SINAiAYXXomGKQoDAYAGFN9jHqwQItEhA4bVomKIQIDBYQOEN9vEqAQItElB4LRqmKAQIDBZQeIN9vEqAQIsEFF6LhikKAQKDBRTeYB+vEiDQIgGF16JhikKAwGABhTfYx6sECLRI4P8Alvf1+fPhQi0AAAAASUVORK5CYII=;" vertex="1" parent="1">
          <mxGeometry x="78" y="1240" width="191" height="941.7" as="geometry" />
        </mxCell>
        <mxCell id="-YayVQwCSqtVJ1XMJFyR-92" value="Mixed methods (with Interview skills strand)" style="text;html=1;strokeColor=none;fillColor=none;align=left;verticalAlign=middle;whiteSpace=wrap;rounded=0;" vertex="1" parent="1">
          <mxGeometry x="301.5" y="1250" width="308.5" height="30" as="geometry" />
        </mxCell>
        <mxCell id="-YayVQwCSqtVJ1XMJFyR-93" value="Literature Review (with meta analysis strand)" style="text;html=1;strokeColor=none;fillColor=none;align=left;verticalAlign=middle;whiteSpace=wrap;rounded=0;" vertex="1" parent="1">
          <mxGeometry x="301.5" y="1290" width="268.5" height="30" as="geometry" />
        </mxCell>
        <mxCell id="-YayVQwCSqtVJ1XMJFyR-94" value="Write and publish Line (incl. data viz, can connect to &#39;R&#39; viz workshops)" style="text;html=1;strokeColor=none;fillColor=none;align=left;verticalAlign=middle;whiteSpace=wrap;rounded=0;" vertex="1" parent="1">
          <mxGeometry x="301.5" y="1340" width="378.5" height="30" as="geometry" />
        </mxCell>
        <mxCell id="-YayVQwCSqtVJ1XMJFyR-95" value="Computation Line" style="text;html=1;strokeColor=none;fillColor=none;align=left;verticalAlign=middle;whiteSpace=wrap;rounded=0;" vertex="1" parent="1">
          <mxGeometry x="300" y="1470" width="178.5" height="30" as="geometry" />
        </mxCell>
        <mxCell id="-YayVQwCSqtVJ1XMJFyR-96" value="Coding Line" style="text;html=1;strokeColor=none;fillColor=none;align=left;verticalAlign=middle;whiteSpace=wrap;rounded=0;" vertex="1" parent="1">
          <mxGeometry x="301.5" y="1420" width="178.5" height="30" as="geometry" />
        </mxCell>
        <mxCell id="-YayVQwCSqtVJ1XMJFyR-97" value="Research Data" style="text;html=1;strokeColor=none;fillColor=none;align=left;verticalAlign=middle;whiteSpace=wrap;rounded=0;" vertex="1" parent="1">
          <mxGeometry x="300" y="1810" width="178.5" height="30" as="geometry" />
        </mxCell>
        <mxCell id="-YayVQwCSqtVJ1XMJFyR-98" value="Text Mining and Analysis" style="text;html=1;strokeColor=none;fillColor=none;align=left;verticalAlign=middle;whiteSpace=wrap;rounded=0;" vertex="1" parent="1">
          <mxGeometry x="290" y="1640" width="178.5" height="30" as="geometry" />
        </mxCell>
        <mxCell id="-YayVQwCSqtVJ1XMJFyR-99" value="Survey and data collection Line" style="text;html=1;strokeColor=none;fillColor=none;align=left;verticalAlign=middle;whiteSpace=wrap;rounded=0;" vertex="1" parent="1">
          <mxGeometry x="290" y="1680" width="178.5" height="30" as="geometry" />
        </mxCell>
        <mxCell id="-YayVQwCSqtVJ1XMJFyR-100" value="Statistics Line" style="text;html=1;strokeColor=none;fillColor=none;align=left;verticalAlign=middle;whiteSpace=wrap;rounded=0;" vertex="1" parent="1">
          <mxGeometry x="290" y="1590" width="178.5" height="30" as="geometry" />
        </mxCell>
        <mxCell id="-YayVQwCSqtVJ1XMJFyR-101" value="with Longitudinal &#39;strand&#39;" style="text;html=1;strokeColor=none;fillColor=none;align=left;verticalAlign=middle;whiteSpace=wrap;rounded=0;" vertex="1" parent="1">
          <mxGeometry x="490" y="1680" width="250" height="30" as="geometry" />
        </mxCell>
        <mxCell id="-YayVQwCSqtVJ1XMJFyR-102" value="" style="endArrow=none;html=1;strokeWidth=6;rounded=1;arcSize=40;strokeColor=#E77D96;entryX=1;entryY=0.5;entryDx=0;entryDy=0;" edge="1" parent="1" target="-YayVQwCSqtVJ1XMJFyR-11">
          <mxGeometry width="50" height="50" relative="1" as="geometry">
            <mxPoint x="842.25" y="278.5" as="sourcePoint" />
            <mxPoint x="417.25" y="237.5" as="targetPoint" />
            <Array as="points">
              <mxPoint x="482.25" y="278.5" />
              <mxPoint x="400" y="200" />
            </Array>
          </mxGeometry>
        </mxCell>
        <mxCell id="-YayVQwCSqtVJ1XMJFyR-103" value="" style="endArrow=none;html=1;rounded=1;strokeColor=#007A3D;strokeWidth=6;arcSize=40;" edge="1" parent="1">
          <mxGeometry width="50" height="50" relative="1" as="geometry">
            <mxPoint x="520" y="600" as="sourcePoint" />
            <mxPoint x="840" y="680" as="targetPoint" />
            <Array as="points">
              <mxPoint x="590" y="600" />
              <mxPoint x="670" y="680" />
            </Array>
          </mxGeometry>
        </mxCell>
        <mxCell id="-YayVQwCSqtVJ1XMJFyR-104" value="Computation Line" style="text;html=1;strokeColor=none;fillColor=none;align=left;verticalAlign=middle;whiteSpace=wrap;rounded=0;fontFamily=London Tube;fontSize=18;fontStyle=0;fontColor=#22387D;" vertex="1" parent="1">
          <mxGeometry x="42.25" y="424" width="210" height="30" as="geometry" />
        </mxCell>
        <mxCell id="-YayVQwCSqtVJ1XMJFyR-105" value="" style="endArrow=none;html=1;rounded=1;strokeColor=#0091C6;strokeWidth=6;arcSize=40;" edge="1" parent="1">
          <mxGeometry width="50" height="50" relative="1" as="geometry">
            <mxPoint x="242.25" y="440" as="sourcePoint" />
            <mxPoint x="842.25" y="440" as="targetPoint" />
            <Array as="points">
              <mxPoint x="562.25" y="440" />
            </Array>
          </mxGeometry>
        </mxCell>
        <mxCell id="-YayVQwCSqtVJ1XMJFyR-106" value="Longitudinal branch" style="text;html=1;strokeColor=none;fillColor=none;align=right;verticalAlign=middle;whiteSpace=wrap;rounded=0;fontFamily=London Tube;fontSize=18;fontStyle=0;fontColor=#22387D;" vertex="1" parent="1">
          <mxGeometry x="480" y="662.5" width="169.5" height="30" as="geometry" />
        </mxCell>
        <mxCell id="-YayVQwCSqtVJ1XMJFyR-107" value="Systematic branch" style="text;html=1;strokeColor=none;fillColor=none;align=left;verticalAlign=middle;whiteSpace=wrap;rounded=0;fontFamily=London Tube;fontSize=18;fontStyle=0;fontColor=#22387D;" vertex="1" parent="1">
          <mxGeometry x="303.25" y="260" width="208.5" height="30" as="geometry" />
        </mxCell>
        <mxCell id="-YayVQwCSqtVJ1XMJFyR-108" value="" style="endArrow=none;html=1;strokeWidth=6;strokeColor=#8D9193;startArrow=none;rounded=1;arcSize=40;" edge="1" parent="1">
          <mxGeometry width="50" height="50" relative="1" as="geometry">
            <mxPoint x="235.75" y="1040" as="sourcePoint" />
            <mxPoint x="835.75" y="1040" as="targetPoint" />
            <Array as="points" />
          </mxGeometry>
        </mxCell>
        <mxCell id="-YayVQwCSqtVJ1XMJFyR-109" value="Mixed Methods Line" style="text;html=1;strokeColor=none;fillColor=none;align=left;verticalAlign=middle;whiteSpace=wrap;rounded=0;fontFamily=London Tube;fontSize=18;fontStyle=0;fontColor=#22387D;" vertex="1" parent="1">
          <mxGeometry x="35.75" y="1026.5" width="180" height="30" as="geometry" />
        </mxCell>
        <mxCell id="-YayVQwCSqtVJ1XMJFyR-110" value="" style="endArrow=none;html=1;strokeWidth=6;rounded=1;arcSize=40;strokeColor=#E77D96;" edge="1" parent="1">
          <mxGeometry width="50" height="50" relative="1" as="geometry">
            <mxPoint x="837.5" y="160" as="sourcePoint" />
            <mxPoint x="480" y="200" as="targetPoint" />
            <Array as="points">
              <mxPoint x="517.5" y="160" />
            </Array>
          </mxGeometry>
        </mxCell>
        <mxCell id="-YayVQwCSqtVJ1XMJFyR-111" value="Meta-analysis branch" style="text;html=1;strokeColor=none;fillColor=none;align=left;verticalAlign=middle;whiteSpace=wrap;rounded=0;fontFamily=London Tube;fontSize=18;fontStyle=0;fontColor=#22387D;" vertex="1" parent="1">
          <mxGeometry x="629" y="115" width="208.5" height="30" as="geometry" />
        </mxCell>
        <mxCell id="-YayVQwCSqtVJ1XMJFyR-112" value="" style="endArrow=none;html=1;strokeWidth=6;strokeColor=#8D9193;startArrow=none;rounded=1;arcSize=40;" edge="1" parent="1">
          <mxGeometry width="50" height="50" relative="1" as="geometry">
            <mxPoint x="360" y="1040" as="sourcePoint" />
            <mxPoint x="840" y="1116" as="targetPoint" />
            <Array as="points">
              <mxPoint x="440" y="1040" />
              <mxPoint x="520" y="1120" />
            </Array>
          </mxGeometry>
        </mxCell>
        <mxCell id="-YayVQwCSqtVJ1XMJFyR-113" value="" style="endArrow=none;html=1;rounded=1;strokeColor=#007A3D;strokeWidth=6;" edge="1" parent="1">
          <mxGeometry width="50" height="50" relative="1" as="geometry">
            <mxPoint x="780.8299999999999" y="670" as="sourcePoint" />
            <mxPoint x="780.8299999999999" y="680" as="targetPoint" />
          </mxGeometry>
        </mxCell>
        <mxCell id="-YayVQwCSqtVJ1XMJFyR-114" value="" style="endArrow=none;html=1;rounded=1;strokeColor=#007A3D;strokeWidth=6;" edge="1" parent="1">
          <mxGeometry width="50" height="50" relative="1" as="geometry">
            <mxPoint x="640" y="589.5" as="sourcePoint" />
            <mxPoint x="640" y="599.5" as="targetPoint" />
          </mxGeometry>
        </mxCell>
        <mxCell id="-YayVQwCSqtVJ1XMJFyR-115" value="Interview branch" style="text;html=1;strokeColor=none;fillColor=none;align=right;verticalAlign=middle;whiteSpace=wrap;rounded=0;fontFamily=London Tube;fontSize=18;fontStyle=0;fontColor=#22387D;" vertex="1" parent="1">
          <mxGeometry x="322.75" y="1095" width="169.5" height="30" as="geometry" />
        </mxCell>
      </root>
    </mxGraphModel>
  </diagram>
</mxfile>
